<?xml version="1.0" encoding="UTF-8" standalone="no"?>
<svg
   viewBox="0 0 37 16"
   version="1.1"
   id="svg6"
   width="37"
   height="16"
   xmlns="http://www.w3.org/2000/svg"
   xmlns:svg="http://www.w3.org/2000/svg"
   xmlns:rdf="http://www.w3.org/1999/02/22-rdf-syntax-ns#"
   xmlns:cc="http://creativecommons.org/ns#"
   xmlns:dc="http://purl.org/dc/elements/1.1/">
  <metadata
     id="metadata12">
    <rdf:RDF>
      <cc:Work
         rdf:about="">
        <dc:format>image/svg+xml</dc:format>
        <dc:type
           rdf:resource="http://purl.org/dc/dcmitype/StillImage" />
      </cc:Work>
    </rdf:RDF>
  </metadata>
  <defs
     id="defs10" />
  <g
     id="g4491"
     transform="matrix(0.67631637,0,0,0.67631637,-117.85536,146.61048)"
     style="stroke-width:1.4786">
    <path
       d="m 197.17897,-193.85969 -9.50528,-17.42633 1.58422,-4.75264 h -1.58422 l -1.58421,3.16844 -1.58421,-3.16844 h -1.58423 l 1.58423,4.75264 -9.50528,17.42633 z m -11.08949,-11.08948 4.75263,9.50528 h -9.50526 z"
       id="camping"
       style="fill:#000000;stroke-width:1.82188" />
  </g>
  <path
     d="m 18.500007,0.49999907 c -1.499997,0 -3.000002,1.50000503 -3.000002,3.00000963 V 9.500007 c 0,1.499991 1.500005,2.999995 3.000002,2.999995 h 1.59375 c 0.349683,-1.70882 1.844064,-2.999995 3.656249,-2.999995 1.812187,0 3.306574,1.291175 3.656258,2.999995 h 9.093737 c 0,0 0,-1.500004 -1.499998,-1.500004 H 32.749999 V 3.5000087 c 0,-1.4409997 -1.536498,-3.00000963 -2.999995,-3.00000963 z m 1.265626,3.00000963 c 0.14062,-0.023433 0.234379,0 0.234379,0 h 2.999989 c 0,0 1.500005,0 1.500005,1.4999978 0,1.5000049 -1.500005,1.5000049 -1.500005,1.5000049 h -2.999989 c 0,0 -1.500005,0 -1.500005,-1.5000049 0,-1.1249983 0.843751,-1.4296877 1.265626,-1.4999978 z m 7.734376,0 h 0.749997 c 0,0 1.499998,0 1.499998,1.4999978 0,1.5000049 -1.499998,1.5000049 -1.499998,1.5000049 h -0.749997 c 0,0 -1.500006,0 -1.500006,-1.5000049 0,-1.4999978 1.500006,-1.4999978 1.500006,-1.4999978 z m -3.750003,7.4999893 c -1.242645,0 -2.249989,1.007357 -2.249989,2.25001 0,1.242624 1.007344,2.24999 2.249989,2.24999 1.242639,0 2.249997,-1.007366 2.249997,-2.24999 0,-1.242653 -1.007358,-2.25001 -2.249997,-2.25001 z"
     id="caravan"
     style="fill:#000000;fill-opacity:1;stroke:none;stroke-width:1.38639" />
</svg>
