<?xml version="1.0" encoding="UTF-8" standalone="no"?>
<svg
   xmlns:dc="http://purl.org/dc/elements/1.1/"
   xmlns:cc="http://creativecommons.org/ns#"
   xmlns:rdf="http://www.w3.org/1999/02/22-rdf-syntax-ns#"
   xmlns:svg="http://www.w3.org/2000/svg"
   xmlns="http://www.w3.org/2000/svg"
   viewBox="0 0 22 16"
   version="1.1"
   id="svg6"
   width="22"
   height="16">
  <metadata
     id="metadata12">
    <rdf:RDF>
      <cc:Work
         rdf:about="">
        <dc:format>image/svg+xml</dc:format>
        <dc:type
           rdf:resource="http://purl.org/dc/dcmitype/StillImage" />
        <dc:title></dc:title>
      </cc:Work>
    </rdf:RDF>
  </metadata>
  <defs
     id="defs10" />
  <path
     d="m 3.5000043,0.49999987 c -1.4999977,0 -3.00000255,1.50000493 -3.00000255,3.00000973 v 5.9999978 c 0,1.4999916 1.50000485,2.9999956 3.00000255,2.9999956 h 1.5937494 c 0.3496833,-1.70882 1.8440639,-2.9999956 3.6562498,-2.9999956 1.8121865,0 3.3065735,1.2911756 3.6562575,2.9999956 h 9.093737 c 0,0 0,-1.500004 -1.499998,-1.500004 H 17.749996 V 3.5000096 c 0,-1.4410001 -1.536498,-3.00000973 -2.999995,-3.00000973 z M 4.76563,3.5000096 c 0.1406205,-0.023433 0.2343792,0 0.2343792,0 h 2.9999884 c 0,0 1.5000049,0 1.5000049,1.4999977 0,1.5000049 -1.5000049,1.5000049 -1.5000049,1.5000049 H 5.0000092 c 0,0 -1.5000049,0 -1.5000049,-1.5000049 0,-1.1249982 0.8437505,-1.4296876 1.2656257,-1.4999977 z m 7.734376,0 h 0.749997 c 0,0 1.499998,0 1.499998,1.4999977 0,1.5000049 -1.499998,1.5000049 -1.499998,1.5000049 h -0.749997 c 0,0 -1.500006,0 -1.500006,-1.5000049 0,-1.4999977 1.500006,-1.4999977 1.500006,-1.4999977 z M 8.7500035,10.999999 c -1.2426459,0 -2.2499895,1.007357 -2.2499895,2.250011 0,1.242624 1.0073436,2.24999 2.2499895,2.24999 C 9.9926422,15.5 11,14.492634 11,13.25001 11,12.007356 9.9926422,10.999999 8.7500035,10.999999 Z"
     id="caravan"
     style="fill:#000000;fill-opacity:1;stroke:none;stroke-width:1.38639" />
</svg>
