<?xml version="1.0" encoding="UTF-8" standalone="no"?>
<svg
   xmlns:dc="http://purl.org/dc/elements/1.1/"
   xmlns:cc="http://creativecommons.org/ns#"
   xmlns:rdf="http://www.w3.org/1999/02/22-rdf-syntax-ns#"
   xmlns:svg="http://www.w3.org/2000/svg"
   xmlns="http://www.w3.org/2000/svg"
   viewBox="0 0 21 16"
   version="1.1"
   id="svg6"
   width="21"
   height="16">
  <metadata
     id="metadata12">
    <rdf:RDF>
      <cc:Work
         rdf:about="">
        <dc:format>image/svg+xml</dc:format>
        <dc:type
           rdf:resource="http://purl.org/dc/dcmitype/StillImage" />
        <dc:title></dc:title>
      </cc:Work>
    </rdf:RDF>
  </metadata>
  <defs
     id="defs10" />
  <g
     id="g1532"
     transform="matrix(1.0908864,0,0,1.0908864,-191.4752,233.34761)"
     style="stroke-width:0.916685">
    <path
       d="m 175.96636,-201.75893 v -6.0585 c 0,-0.52465 0.45803,-0.87442 0.93688,-0.87442 h 5.68374 c -0.0208,0.7162 0.47885,1.22003 0.87442,1.74885 h -1.43655 c -1.04098,0 -1.56146,0.64749 -1.56146,1.8113 v 3.37277 h -1.99868 v -4.55948 h -0.87442 v 4.55948 z m 5.37144,2.06113 v -5.49636 c 0,-0.63083 0.4164,-0.93688 0.99935,-0.93688 h 5.62127 c 0.68705,0 0.99934,0.58086 0.99934,0.87442 v 5.55882 h -1.18672 v -4.43457 h -0.87441 v 4.43457 h -3.43523 v -4.43457 h -0.93688 v 4.43457 z m 12.99141,-2.06113 v -5.80866 c 0,-0.635 -0.33312,-1.12426 -0.93688,-1.12426 h -5.68374 c 0,0.68913 -0.47885,1.22836 -0.87442,1.74885 h 1.37409 c 0.97852,0 1.62392,0.84943 1.62392,1.8113 v 3.37277 h 1.99868 v -4.55948 h 0.87442 v 4.55948 z"
       id="path8"
       style="fill:#000000;fill-rule:evenodd;stroke-width:2.05997" />
    <path
       d="m 192.13066,-211.51727 a 1.8435917,1.8435917 0 0 1 -3.68714,0 1.8435917,1.8435917 0 1 1 3.68714,0 z"
       id="path12"
       style="fill:#000000;fill-rule:evenodd;stroke-width:2.05997" />
    <path
       d="m 181.66738,-211.59555 a 1.8435917,1.8435917 0 0 1 -3.68714,0 1.8435917,1.8435917 0 1 1 3.68714,0 z"
       id="path14"
       style="fill:#000000;fill-rule:evenodd;stroke-width:2.05997" />
    <path
       d="m 186.9595,-208.9473 a 1.8435917,1.8435917 0 0 1 -3.68714,0 1.8435917,1.8435917 0 1 1 3.68714,0 z"
       id="path16"
       style="fill:#000000;fill-rule:evenodd;stroke-width:2.05997" />
  </g>
</svg>
