<?xml version="1.0" encoding="UTF-8" standalone="no"?>
<svg
   xmlns:dc="http://purl.org/dc/elements/1.1/"
   xmlns:cc="http://creativecommons.org/ns#"
   xmlns:rdf="http://www.w3.org/1999/02/22-rdf-syntax-ns#"
   xmlns:svg="http://www.w3.org/2000/svg"
   xmlns="http://www.w3.org/2000/svg"
   width="30"
   height="30"
   viewBox="0 0 7.9374998 7.9375002"
   version="1.1"
   id="svg131">
  <defs
     id="defs125" />
  <metadata
     id="metadata128">
    <rdf:RDF>
      <cc:Work
         rdf:about="">
        <dc:format>image/svg+xml</dc:format>
        <dc:type
           rdf:resource="http://purl.org/dc/dcmitype/StillImage" />
        <dc:title></dc:title>
      </cc:Work>
    </rdf:RDF>
  </metadata>
  <path
     id="path82"
     d="M 2.3977864,1.3226385 V 1.4880031 L 2.1156329,1.4838756 C 1.34152,2.1815078 1.4076658,1.9499974 1.3973307,2.7695884 l 0.2098062,-0.00106 C 1.6381425,2.2807054 1.5802658,2.5018794 2.133203,1.9179369 H 2.2985676 V 2.3137783 C 2.0494871,2.3220333 1.8024739,2.4367672 1.7373617,2.9400965 V 6.6029212 H 3.5191651 L 3.552238,2.9400965 C 3.5553424,2.5711262 3.3351967,2.4222998 2.9848309,2.3117111 l 0.0062,-0.3617349 C 3.1274564,1.9272572 3.253547,1.9138024 3.3537994,1.884864 V 1.5872078 C 3.2215095,1.5417312 3.0757819,1.525193 2.9248869,1.5210619 V 1.3236545 Z M 5.8291015,2.082282 c -0.2304767,0.6562902 0.020669,1.3518586 0.701766,1.7146235 L 6.5060637,3.0837723 C 6.0647469,2.84606 6.060613,2.6259196 5.8291026,2.082282 Z M 4.9030599,2.3840728 c -0.040308,0 -0.083716,0.00318 -0.1302248,0.00723 0.3307292,0.202572 0.3028241,0.6273518 0.5229654,1.1089781 0.4661215,0.75964 0.8826336,0.7058978 1.2412681,0.6686905 C 6.2084063,3.9374628 6.1050535,3.8744179 5.9014484,3.5374869 5.5273112,2.9194378 5.509741,2.3840693 4.9030599,2.3840693 Z M 1.9688721,3.302879 H 3.2886879 V 4.1276348 H 1.9688721 Z m 2.9941323,0.1653646 c 0.010332,0.8226921 0.4640543,1.5533972 1.5771648,1.7807695 V 4.5048741 C 5.6689048,4.3529434 5.5820884,4.1348701 4.9630044,3.4682436 Z m -0.029972,1.215429 C 4.7821371,4.6826143 4.6085045,4.7291492 4.410067,4.8511078 4.9133955,4.9337885 5.0508545,5.2748539 5.3505782,5.5776785 5.6916423,5.8319254 6.1960045,5.8701667 6.5288009,5.573551 6.2931564,5.4795004 6.0905847,5.4939678 5.8084312,5.2676255 5.6472008,5.1291357 5.3877853,4.6888478 4.9330324,4.6836832 Z m 0.039274,0.9177761 c 0.1725994,0.8206211 0.6283854,1.040765 1.5626951,1.0107895 0,-0.2242751 -0.00103,-0.4547518 -0.024805,-0.6779932 C 5.9448567,6.0086602 5.7185142,6.1202789 4.9723064,5.6014487 Z m 0,0"
     style="fill:#ff0000;fill-opacity:1;fill-rule:nonzero;stroke:none;stroke-width:0.35277778" />
</svg>
