<?xml version="1.0" encoding="UTF-8" standalone="no"?>
<svg
   xmlns:dc="http://purl.org/dc/elements/1.1/"
   xmlns:cc="http://creativecommons.org/ns#"
   xmlns:rdf="http://www.w3.org/1999/02/22-rdf-syntax-ns#"
   xmlns:svg="http://www.w3.org/2000/svg"
   xmlns="http://www.w3.org/2000/svg"
   id="svg131"
   version="1.1"
   viewBox="0 0 7.9374998 7.9375002"
   height="30"
   width="30">
  <defs
     id="defs125" />
  <metadata
     id="metadata128">
    <rdf:RDF>
      <cc:Work
         rdf:about="">
        <dc:format>image/svg+xml</dc:format>
        <dc:type
           rdf:resource="http://purl.org/dc/dcmitype/StillImage" />
        <dc:title></dc:title>
      </cc:Work>
    </rdf:RDF>
  </metadata>
  <rect
     y="-3.5527137e-15"
     x="2.3841858e-07"
     height="7.9375"
     width="7.9374995"
     id="rect815"
     style="opacity:1;fill:#def6c0;fill-opacity:1;stroke:none;stroke-width:2.99999976;stroke-linecap:round;stroke-linejoin:miter;stroke-miterlimit:4;stroke-dasharray:none;stroke-dashoffset:0;stroke-opacity:1" />
  <g
     transform="translate(0,-289.06248)"
     id="layer1">
    <rect
       y="290.47339"
       x="0.74945831"
       height="5.1156669"
       width="6.4385834"
       id="rect1012"
       style="opacity:1;fill:#c7f5ab;fill-opacity:1;stroke:#7f7f7f;stroke-width:0.176;stroke-linecap:round;stroke-linejoin:round;stroke-miterlimit:4;stroke-dasharray:none;stroke-dashoffset:0;stroke-opacity:1" />
    <path
       id="path94"
       d="M 2.7243831,293.88081 H 2.5218147 v -1.18649 c 0,-0.10749 0.00212,-0.20463 0.00826,-0.29352 -0.02272,0.0227 -0.045477,0.0434 -0.07028,0.062 -0.077516,0.0661 -0.1633008,0.13849 -0.2563177,0.21497 l -0.1116187,-0.14055 0.4630208,-0.35554 h 0.169499 z m 1.6908571,-1.30225 c 0,0.10749 -0.031009,0.19741 -0.090953,0.26873 -0.060978,0.0692 -0.1477963,0.11472 -0.260449,0.13642 v 0.0124 c 0.1343591,0.0165 0.2356451,0.0599 0.3017909,0.12815 0.068213,0.0693 0.1033534,0.1602 0.1033534,0.27285 0,0.1633 -0.056843,0.28836 -0.1694992,0.37621 -0.1136896,0.0889 -0.2749198,0.13229 -0.4836935,0.13229 -0.09095,0 -0.1756977,-0.007 -0.2521797,-0.0207 -0.074411,-0.0134 -0.1467591,-0.0382 -0.2149724,-0.0744 v -0.1943 c 0.071314,0.0362 0.1488266,0.0641 0.2315104,0.0827 0.082681,0.0196 0.1622637,0.0289 0.2397797,0.0289 0.2862861,0 0.429948,-0.11162 0.429948,-0.33486 0,-0.2005 -0.1591665,-0.30179 -0.4754245,-0.30179 H 3.6090866 v -0.17777 h 0.1653646 c 0.1322916,0 0.2356447,-0.0269 0.3100599,-0.0827 0.076479,-0.0579 0.1157533,-0.13746 0.1157533,-0.23978 0,-0.0796 -0.027905,-0.14159 -0.08268,-0.18604 -0.055813,-0.0465 -0.1312617,-0.0703 -0.2273795,-0.0703 -0.074415,0 -0.1436616,0.0114 -0.2067065,0.0331 -0.064079,0.0196 -0.1384935,0.0558 -0.2232414,0.10749 L 3.3569073,292.3346 c 0.06821,-0.0548 0.1488263,-0.0971 0.239776,-0.12816 0.093017,-0.0331 0.1912019,-0.0496 0.2935216,-0.0496 0.1653646,0 0.2935253,0.0393 0.3844748,0.11576 0.093017,0.0744 0.1405609,0.17673 0.1405609,0.30592 z m 0.8640268,-0.42167 c 0.1570956,0 0.2811217,0.0362 0.3720714,0.10748 0.090949,0.0724 0.136426,0.17157 0.136426,0.29766 0,0.0858 -0.026882,0.1633 -0.078549,0.23151 -0.049608,0.0661 -0.1312579,0.12816 -0.2439104,0.18604 0.1374598,0.0661 0.2356414,0.13642 0.2935217,0.21084 0.057877,0.0723 0.086815,0.15502 0.086815,0.24804 0,0.14366 -0.051678,0.25839 -0.1529609,0.34313 -0.099219,0.0827 -0.2346113,0.12403 -0.405144,0.12403 -0.1819029,0 -0.3224601,-0.0393 -0.4216789,-0.11989 -0.099219,-0.0796 -0.14883,-0.19224 -0.14883,-0.339 0,-0.19224 0.1167908,-0.34416 0.3514021,-0.45475 -0.1054205,-0.06 -0.1808691,-0.12506 -0.2273794,-0.19431 -0.04754,-0.0682 -0.070277,-0.14676 -0.070277,-0.23564 0,-0.12402 0.046507,-0.22117 0.1405607,-0.29352 0.093017,-0.0744 0.2160058,-0.11162 0.3679327,-0.11162 z m -0.3555328,1.29397 c 0,0.0889 0.031009,0.15917 0.095084,0.21085 0.063045,0.0496 0.1508972,0.0744 0.2645834,0.0744 0.1095552,0 0.1963703,-0.0259 0.2604486,-0.0785 0.063045,-0.0517 0.095088,-0.12402 0.095088,-0.21497 0,-0.0744 -0.031009,-0.14056 -0.090953,-0.19844 -0.060978,-0.0579 -0.16123,-0.11266 -0.3017909,-0.16536 -0.1136896,0.0475 -0.1963701,0.10128 -0.248045,0.16122 -0.049611,0.0579 -0.074415,0.12816 -0.074415,0.21084 z m 0.3555328,-1.12448 c -0.090949,0 -0.1643308,0.0227 -0.2191067,0.0662 -0.055809,0.0413 -0.08268,0.10129 -0.08268,0.17777 0,0.0496 0.00931,0.0941 0.028928,0.13229 0.021696,0.0362 0.051678,0.0693 0.090953,0.0992 0.041339,0.0279 0.1054206,0.061 0.1943031,0.0992 0.1043869,-0.0434 0.1788017,-0.092 0.2232411,-0.1447 0.043409,-0.0548 0.066146,-0.11678 0.066146,-0.18603 0,-0.0765 -0.027905,-0.13643 -0.082681,-0.17777 -0.055813,-0.0434 -0.1281607,-0.0662 -0.2191102,-0.0662 z m 0,0"
       style="fill:#2e2e2e;fill-opacity:1;fill-rule:evenodd;stroke:none;stroke-width:0.35277778" />
  </g>
</svg>
