<?xml version="1.0" encoding="UTF-8" standalone="no"?>
<svg
   xmlns:dc="http://purl.org/dc/elements/1.1/"
   xmlns:cc="http://creativecommons.org/ns#"
   xmlns:rdf="http://www.w3.org/1999/02/22-rdf-syntax-ns#"
   xmlns:svg="http://www.w3.org/2000/svg"
   xmlns="http://www.w3.org/2000/svg"
   id="svg131"
   version="1.1"
   viewBox="0 0 7.9374998 7.9375002"
   height="30"
   width="30">
  <defs
     id="defs125" />
  <metadata
     id="metadata128">
    <rdf:RDF>
      <cc:Work
         rdf:about="">
        <dc:format>image/svg+xml</dc:format>
        <dc:type
           rdf:resource="http://purl.org/dc/dcmitype/StillImage" />
        <dc:title></dc:title>
      </cc:Work>
    </rdf:RDF>
  </metadata>
  <g
     transform="translate(0,-289.06248)"
     id="layer1">
    <path
       id="path80"
       d="m 5.2861595,291.28836 c -0.069243,-0.0868 -0.1943028,-0.10128 -0.2811179,-0.0331 l -0.6376882,0.50647 -0.3110901,-0.39377 c -0.021696,-0.0269 -0.067179,-0.032 -0.094051,-0.0103 l -0.6077162,0.48163 c -0.5157329,0.40927 -0.6604247,1.11104 -0.3834413,1.67948 l -1.0056213,0.79685 c -0.1302244,0.10232 -0.1508971,0.29042 -0.048577,0.42065 0.1033533,0.13022 0.2914545,0.15193 0.4216824,0.0486 l 1.0045881,-0.79692 c 0.4898955,0.39791 1.2061296,0.41755 1.7218591,0.008 l 0.6077162,-0.48163 c 0.027905,-0.0217 0.033055,-0.0661 0.011396,-0.094 L 5.371964,293.0276 6.0096522,292.52117 c 0.086815,-0.0682 0.1012825,-0.19326 0.032032,-0.28008 -0.06821,-0.0868 -0.1942994,-0.10129 -0.2811179,-0.0331 l -0.6366552,0.50643 -0.507464,-0.63975 0.6376882,-0.50643 c 0.086819,-0.0682 0.1012862,-0.19327 0.032032,-0.28009 z m 0,0"
       style="fill:#000000;fill-opacity:1;fill-rule:nonzero;stroke:none;stroke-width:0.35277778" />
  </g>
</svg>
