<?xml version="1.0" encoding="UTF-8" standalone="no"?>
<svg
   xmlns:dc="http://purl.org/dc/elements/1.1/"
   xmlns:cc="http://creativecommons.org/ns#"
   xmlns:rdf="http://www.w3.org/1999/02/22-rdf-syntax-ns#"
   xmlns:svg="http://www.w3.org/2000/svg"
   xmlns="http://www.w3.org/2000/svg"
   viewBox="0 0 30 30"
   version="1.1"
   id="svg6"
   width="30"
   height="30">
  <metadata
     id="metadata12">
    <rdf:RDF>
      <cc:Work
         rdf:about="">
        <dc:format>image/svg+xml</dc:format>
        <dc:type
           rdf:resource="http://purl.org/dc/dcmitype/StillImage" />
        <dc:title></dc:title>
      </cc:Work>
    </rdf:RDF>
  </metadata>
  <defs
     id="defs10" />
  <rect
     ry="1.9999999"
     style="fill:#ffffff;stroke:#000080;stroke-width:2;stroke-miterlimit:4;stroke-dasharray:none;stroke-opacity:1"
     id="rect2"
     y="3"
     x="3"
     width="24"
     rx="1.9999999"
     height="24" />
  <path
     style="fill:none;stroke:#000000;stroke-width:1.2;stroke-linecap:butt;stroke-miterlimit:4;stroke-dasharray:none;stroke-dashoffset:0;stroke-opacity:1;paint-order:stroke fill markers;stop-color:#000000"
     d="M 5.6000001,21.071477 V 14.744288 H 24.4 v 6.327189"
     id="rect81" />
  <path
     style="fill:#000000;stroke-width:0.999996"
     id="path4"
     d="m 18.055057,11.481746 c -0.850522,5.43e-4 -1.533171,0.709422 -1.533171,1.591516 v 3.753579 c -7.9e-5,0.731948 1.048225,0.731948 1.048225,0 v -3.442033 h 0.249934 v 9.534089 c -1.52e-4,0.979685 1.398876,0.949657 1.398876,0 v -5.59283 h 0.238742 v 5.59283 c 5.45e-4,0.949657 1.406341,0.979685 1.406341,0 v -9.534089 h 0.242473 v 3.442033 c -1.88e-4,0.739455 1.044496,0.739455 1.040765,0 v -3.742319 c 0.0013,-0.814525 -0.61924,-1.610283 -1.551822,-1.610283 l -2.540363,-0.0037 M 19.334564,11.0802 c 0.667728,1.16e-4 1.208626,-0.544268 1.212357,-1.2161601 -0.0018,-0.6718864 -0.544629,-1.2161603 -1.212357,-1.2161603 -0.667733,-6.103e-4 -1.208633,0.5442739 -1.208633,1.2161603 6.07e-4,0.6718921 0.5409,1.2161601 1.208633,1.2161601" />
  <path
     style="fill:#000000;stroke-width:0.999996"
     id="path4-5"
     d="M 9.3859191,9.191423 C 8.5353969,9.1919662 7.8527483,9.9008442 7.8527483,10.782938 v 2.510333 c -7.88e-5,0.731948 1.0482256,0.731948 1.0482256,0 V 11.094484 H 9.150907 v 4.119556 h 3.04396 v -4.119556 h 0.242473 v 2.198787 c -1.88e-4,0.739456 1.044496,0.739456 1.040765,0 v -2.499072 c 0.0012,-0.8145254 -0.61924,-1.610283 -1.551822,-1.610283 L 9.3859191,9.1802522 M 10.665426,8.7898773 c 0.667728,1.16e-4 1.208627,-0.5442679 1.212358,-1.2161604 C 11.87599,6.9018305 11.333154,6.3575566 10.665426,6.3575566 9.9976928,6.3569463 9.4567939,6.9018305 9.4567939,7.5737169 9.4574005,8.2456094 9.9976928,8.7898773 10.665426,8.7898773" />
  <path
     id="rect906"
     style="fill:#000000;stroke:none;stroke-width:0;stroke-miterlimit:4;stroke-dasharray:none;paint-order:stroke fill markers;stop-color:#000000"
     d="m 12.967195,18.35864 c -0.40755,0 -0.742468,0.337003 -0.742468,0.747092 v 0.512337 h -1.15985 c -0.290349,0 -0.524095,0.235202 -0.524095,0.52736 v 2.969656 c 0,0.292157 0.233746,0.527358 0.524095,0.527358 h 5.315588 c 0.29035,0 0.524094,-0.235201 0.524094,-0.527358 v -2.969656 c 0,-0.292158 -0.233744,-0.52736 -0.524094,-0.52736 H 15.29372 v -0.512337 c 0,-0.410089 -0.334919,-0.747094 -0.742468,-0.747092 z m 0,0.439465 h 1.584057 c 0.173147,0 0.305722,0.133401 0.305722,0.307627 v 0.512337 h -2.195501 v -0.512337 c 0,-0.174226 0.132575,-0.307627 0.305722,-0.307627 z" />
</svg>
