<?xml version="1.0" encoding="UTF-8" standalone="no"?>
<svg
   xmlns:dc="http://purl.org/dc/elements/1.1/"
   xmlns:cc="http://creativecommons.org/ns#"
   xmlns:rdf="http://www.w3.org/1999/02/22-rdf-syntax-ns#"
   xmlns:svg="http://www.w3.org/2000/svg"
   xmlns="http://www.w3.org/2000/svg"
   id="svg131"
   version="1.1"
   viewBox="0 0 7.9374998 7.9375002"
   height="30"
   width="30">
  <defs
     id="defs125" />
  <metadata
     id="metadata128">
    <rdf:RDF>
      <cc:Work
         rdf:about="">
        <dc:format>image/svg+xml</dc:format>
        <dc:type
           rdf:resource="http://purl.org/dc/dcmitype/StillImage" />
        <dc:title></dc:title>
      </cc:Work>
    </rdf:RDF>
  </metadata>
  <g
     transform="translate(0.25045149,0.80943732)"
     id="g703">
    <path
       id="path300"
       d="m 6.7984631,3.1593146 c 0,1.7016343 -1.3796116,3.0806707 -3.0806813,3.0806707 -1.7000398,0 -3.07964788,-1.3790364 -3.07964788,-3.0806707 0,-1.7016379 1.37960808,-3.08067455 3.07964788,-3.08067455 1.7010697,0 3.0806813,1.37903665 3.0806813,3.08067455"
       style="fill:#ff0000;fill-opacity:1;fill-rule:evenodd;stroke:none;stroke-width:0.35277778" />
    <path
       id="path302"
       d="m 3.2211659,1.4257256 c 0,-0.071113 0.010301,-0.1319247 0.032985,-0.1813983 0.02473,-0.05153 0.057697,-0.092759 0.098912,-0.1236804 0.043272,-0.032985 0.092728,-0.055654 0.1483677,-0.070086 0.057697,-0.016475 0.1205479,-0.02473 0.1895793,-0.02473 0.062848,0 0.1236382,0.00822 0.1813385,0.02473 0.057697,0.014428 0.1071526,0.037105 0.1483641,0.070086 0.043275,0.030903 0.078306,0.07215 0.1030324,0.1236804 0.026776,0.049474 0.041215,0.1102854 0.041215,0.1813983 0,0.065962 -0.014428,0.1257406 -0.041215,0.1772744 -0.024731,0.049474 -0.059757,0.090699 -0.1030324,0.1236804 -0.041211,0.032985 -0.090667,0.057718 -0.1483641,0.07421 -0.0577,0.016475 -0.118491,0.02473 -0.1813385,0.02473 -0.069031,0 -0.1318824,-0.00822 -0.1895793,-0.02473 C 3.4457901,1.784416 3.3963342,1.7596616 3.3530624,1.7266804 3.3118474,1.6936957 3.2788768,1.6524736 3.2541506,1.603 3.2315023,1.5514662 3.2211659,1.491688 3.2211659,1.4257256 Z M 2.9038246,4.9959674 c 0.041212,0 0.083457,-0.00212 0.127762,-0.00822 0.046362,-0.00822 0.088607,-0.024731 0.1277585,-0.049474 0.041211,-0.026811 0.074182,-0.063902 0.098912,-0.1113155 0.026776,-0.04638 0.041212,-0.1092483 0.041212,-0.1896427 V 2.9552634 c 0,-0.07421 -0.014428,-0.132955 -0.041212,-0.1772745 -0.02473,-0.043289 -0.0577,-0.078331 -0.098912,-0.1030676 -0.039151,-0.02473 -0.081396,-0.039165 -0.1277585,-0.045349 -0.047396,-0.00822 -0.089637,-0.012383 -0.127762,-0.012383 H 2.8378834 V 2.3203595 h 1.3023321 v 2.3169459 c 0,0.080391 0.012383,0.1432631 0.037095,0.1896427 0.026776,0.04741 0.059757,0.084519 0.098912,0.1113121 0.038121,0.024731 0.080366,0.041229 0.1277586,0.049473 0.046366,0.00617 0.088607,0.00822 0.127762,0.00822 h 0.065941 V 5.2927849 H 2.8378834 V 4.9959542 Z m 0,0"
       style="fill:#ffffff;fill-opacity:1;fill-rule:evenodd;stroke:none;stroke-width:0.35277778" />
  </g>
</svg>
