<?xml version="1.0" encoding="UTF-8" standalone="no"?>
<svg
   xmlns:dc="http://purl.org/dc/elements/1.1/"
   xmlns:cc="http://creativecommons.org/ns#"
   xmlns:rdf="http://www.w3.org/1999/02/22-rdf-syntax-ns#"
   xmlns:svg="http://www.w3.org/2000/svg"
   xmlns="http://www.w3.org/2000/svg"
   viewBox="0 0 30 30"
   version="1.1"
   id="svg6"
   width="30"
   height="30">
  <metadata
     id="metadata12">
    <rdf:RDF>
      <cc:Work
         rdf:about="">
        <dc:format>image/svg+xml</dc:format>
        <dc:type
           rdf:resource="http://purl.org/dc/dcmitype/StillImage" />
        <dc:title></dc:title>
      </cc:Work>
    </rdf:RDF>
  </metadata>
  <defs
     id="defs10" />
  <g
     id="g4491"
     transform="matrix(0.67631637,0,0,0.67631637,-117.85536,160.61048)"
     style="stroke-width:1.478598">
    <path
       d="m 209.74705,-220.77887 c 0,-0.78279 -0.83539,-1.57844 -1.56558,-1.56557 h -6.26229 v 3.13115 h 4.69671 v 14.09016 h -20.35245 v -14.09016 h 4.69671 v -3.13115 h -6.26229 c -0.81926,8e-5 -1.56542,0.74586 -1.56558,1.56557 v 17.22132 c 1.6e-4,0.81971 0.74632,1.56549 1.56558,1.56558 h 23.48361 c 0.81927,-9e-5 1.56542,-0.74587 1.56558,-1.56558 z m -6.2623,5.47952 c 0.0439,-0.45714 -0.34247,-0.78279 -0.78278,-0.78279 h -3.91395 v -10.17623 c 0,-1.29681 -1.05284,-2.34837 -2.34835,-2.34837 -1.29551,0 -2.34868,1.05156 -2.34836,2.34837 v 10.17623 h -3.91394 c -0.56079,0.008 -1.0004,0.75898 -0.68493,1.2231 l 6.31122,7.82787 c 0.27256,0.41324 0.96893,0.44002 1.27203,0.0489 l 6.21336,-7.82787 c 0.12227,-0.17751 0.18104,-0.33687 0.1957,-0.48924 z"
       id="path3826"
       style="fill:#000000;fill-opacity:1;stroke:none;stroke-width:2.18625188" />
  </g>
</svg>
