<?xml version="1.0" encoding="UTF-8" standalone="no"?>
<svg
   viewBox="0 0 30 30"
   version="1.1"
   id="svg6"
   width="30"
   height="30"
   xmlns="http://www.w3.org/2000/svg"
   xmlns:svg="http://www.w3.org/2000/svg"
   xmlns:rdf="http://www.w3.org/1999/02/22-rdf-syntax-ns#"
   xmlns:cc="http://creativecommons.org/ns#"
   xmlns:dc="http://purl.org/dc/elements/1.1/">
  <metadata
     id="metadata12">
    <rdf:RDF>
      <cc:Work
         rdf:about="">
        <dc:format>image/svg+xml</dc:format>
        <dc:type
           rdf:resource="http://purl.org/dc/dcmitype/StillImage" />
      </cc:Work>
    </rdf:RDF>
  </metadata>
  <defs
     id="defs10" />
  <path
     d="m 16.124998,9.3749991 c 0,-0.6222584 0.502733,-1.1249981 1.125005,-1.1249981 0.622258,0 1.124998,0.5027397 1.124998,1.1249981 0,0.6222652 0.502733,1.1249979 1.124998,1.1249979 0.622272,0 1.124998,-0.5027326 1.124998,-1.1249979 0,-1.8632786 -1.511716,-3.3750013 -3.374994,-3.3750013 -1.863286,0 -3.375009,1.5117227 -3.375009,3.3750013 v 6.7500029 h -2.249996 v -0.843746 c 0,-1.086326 -0.882417,-1.968757 -1.9687497,-1.968757 H 7.9687509 c -0.4675848,0 -0.843752,0.376174 -0.843752,0.843752 0,0.467578 0.3761672,0.843752 0.843752,0.843752 h 1.6874973 c 0.154687,0 0.2812529,0.126566 0.2812529,0.281253 v 0.843746 H 7.1249989 c -0.6222719,0 -1.1249982,0.502733 -1.1249982,1.125005 0,0.622265 0.5027263,1.124998 1.1249982,1.124998 h 7.8750001 7.875002 c 0.622265,0 1.124998,-0.502733 1.124998,-1.124998 0,-0.622272 -0.502733,-1.125005 -1.124998,-1.125005 h -2.812503 v -0.843746 c 0,-0.154687 0.126566,-0.281253 0.281253,-0.281253 h 1.96875 c 0.467579,0 0.843746,-0.376174 0.843746,-0.843752 0,-0.467578 -0.376167,-0.843752 -0.843746,-0.843752 h -1.96875 c -1.086333,0 -1.96875,0.882431 -1.96875,1.968757 v 0.843746 H 16.124998 Z M 22.875001,20.625001 V 19.500003 H 7.1249989 v 1.124998 c 0,1.863285 1.5117159,3.375001 3.3750011,3.375001 h 8.999999 c 1.863286,0 3.375002,-1.511716 3.375002,-3.375001 z"
     id="path889"
     style="stroke-width:1.4786" />
</svg>
