<?xml version="1.0" encoding="UTF-8" standalone="no"?>
<svg
   viewBox="0 0 30 30"
   version="1.1"
   id="svg6"
   width="30"
   height="30"
   xmlns="http://www.w3.org/2000/svg"
   xmlns:svg="http://www.w3.org/2000/svg"
   xmlns:rdf="http://www.w3.org/1999/02/22-rdf-syntax-ns#"
   xmlns:cc="http://creativecommons.org/ns#"
   xmlns:dc="http://purl.org/dc/elements/1.1/">
  <metadata
     id="metadata12">
    <rdf:RDF>
      <cc:Work
         rdf:about="">
        <dc:format>image/svg+xml</dc:format>
        <dc:type
           rdf:resource="http://purl.org/dc/dcmitype/StillImage" />
      </cc:Work>
    </rdf:RDF>
  </metadata>
  <defs
     id="defs10" />
  <g
     id="g4491"
     transform="matrix(0.67631637,0,0,0.67631637,-117.85536,160.61048)"
     style="stroke-width:1.478598">
    <path
       d="m 195.01388,-228.60674 v 26.61477 h 2.85157 v -26.61477 z m -7.12897,1.90106 c -1.57488,0 -2.85157,1.27669 -2.85157,2.85159 0,1.57488 1.27669,2.85157 2.85157,2.85157 1.5749,0 2.85159,-1.27669 2.85159,-2.85157 0,-1.5749 -1.27669,-2.85159 -2.85159,-2.85159 z m 17.10951,0 c -1.57489,0 -2.85159,1.27669 -2.85159,2.85159 0,1.57488 1.2767,2.85157 2.85159,2.85157 1.57488,0 2.85157,-1.27669 2.85157,-2.85157 0,-1.5749 -1.27669,-2.85159 -2.85157,-2.85159 z m -19.01055,7.60422 c -1.14011,0 -1.90106,1.08083 -1.90106,1.90105 0,1.00249 2.37632,2.84519 2.37632,3.80211 0,1.05694 -3.32685,1.90105 -3.32685,5.70317 h 3.32685 v 5.70316 h 2.85158 v -5.70316 h 3.32685 c 0,-3.80212 -3.32685,-4.69655 -3.32685,-5.70317 0,-1.00663 2.37632,-2.75406 2.37632,-3.80211 0,-0.77465 -0.80743,-1.90105 -1.90106,-1.90105 z m 16.15896,0 c -1.00248,0 -1.90106,0.91339 -1.90106,1.90105 0,1.90106 3.32685,7.63478 3.32685,9.50528 v 5.70316 h 2.85159 v -5.70316 c 0,-1.8335 3.32684,-7.60422 3.32684,-9.50528 0,-1.05201 -0.853,-1.90105 -1.90106,-1.90105 z"
       id="toilets"
       style="fill:#000000;stroke-width:2.18625" />
  </g>
</svg>
