<?xml version="1.0" encoding="UTF-8" standalone="no"?>
<svg
   xmlns:dc="http://purl.org/dc/elements/1.1/"
   xmlns:cc="http://creativecommons.org/ns#"
   xmlns:rdf="http://www.w3.org/1999/02/22-rdf-syntax-ns#"
   xmlns:svg="http://www.w3.org/2000/svg"
   xmlns="http://www.w3.org/2000/svg"
   xmlns:sodipodi="http://sodipodi.sourceforge.net/DTD/sodipodi-0.dtd"
   xmlns:inkscape="http://www.inkscape.org/namespaces/inkscape"
   viewBox="0 0 30 30"
   version="1.1"
   id="svg6"
   sodipodi:docname="no-toilet.svg"
   width="30"
   height="30"
   inkscape:version="0.92.1 r15371">
  <metadata
     id="metadata12">
    <rdf:RDF>
      <cc:Work
         rdf:about="">
        <dc:format>image/svg+xml</dc:format>
        <dc:type
           rdf:resource="http://purl.org/dc/dcmitype/StillImage" />
        <dc:title></dc:title>
      </cc:Work>
    </rdf:RDF>
  </metadata>
  <defs
     id="defs10" />
  <sodipodi:namedview
     pagecolor="#ffffff"
     bordercolor="#666666"
     borderopacity="1"
     objecttolerance="10"
     gridtolerance="10"
     guidetolerance="10"
     inkscape:pageopacity="0"
     inkscape:pageshadow="2"
     inkscape:window-width="1458"
     inkscape:window-height="1052"
     id="namedview8"
     showgrid="false"
     showguides="false"
     inkscape:zoom="27.8"
     inkscape:cx="15"
     inkscape:cy="15"
     inkscape:window-x="116"
     inkscape:window-y="27"
     inkscape:window-maximized="0"
     inkscape:current-layer="g4491" />
  <g
     id="g4491"
     transform="matrix(0.67631637,0,0,0.67631637,-117.85536,160.61048)"
     style="stroke-width:1.478598">
    <path
       inkscape:connector-curvature="0"
       style="fill:#000000;stroke-width:1.47859776"
       id="path4"
       d="m 197.6077,-227.37555 v 24.17008 h -2.27555 v -24.17008 h 2.27555 m -9.39742,3.76389 c 1.10088,1.9e-4 1.99265,-0.89177 1.99879,-1.99265 -0.003,-1.10087 -0.89791,-1.99265 -1.99879,-1.99265 -1.10088,-0.001 -1.99265,0.89178 -1.99265,1.99265 10e-4,1.10088 0.89177,1.99265 1.99265,1.99265 m -0.28291,12.6693 0.006,6.94967 c -0.003,1.25463 -1.88195,1.25463 -1.88195,0 v -6.94967 h -2.49082 l 2.66302,-9.22522 h -0.41821 l -1.56829,5.28298 c -0.37516,1.15008 -1.95575,0.67652 -1.59289,-0.55966 l 1.74049,-5.73809 c 0.18758,-0.65192 1.01478,-1.81429 2.44776,-1.81429 h 2.74297 c 1.42068,0.002 2.25095,1.17467 2.46621,1.81429 l 1.74049,5.73809 c 0.35056,1.23003 -1.21773,1.74049 -1.59289,0.54121 l -1.56829,-5.26453 h -0.45511 l 2.69377,9.22522 h -2.50311 v 7.01117 c 0.003,1.24233 -1.86965,1.23618 -1.86965,0 v -7.01117 h -0.55966 m 14.51448,-12.01123 c -1.40224,8.9e-4 -2.52771,1.16237 -2.52771,2.60766 v 6.15015 c -1.3e-4,1.19928 1.72819,1.19928 1.72819,0 v -5.63969 h 0.41206 v 15.62138 c -2.5e-4,1.60519 2.3063,1.55599 2.3063,0 v -9.16372 h 0.39361 v 9.16372 c 9e-4,1.55599 2.31861,1.60519 2.31861,0 v -15.62138 h 0.39976 v 5.63969 c -3.1e-4,1.21158 1.72204,1.21158 1.71589,0 v -6.1317 c 0.002,-1.33458 -1.02093,-2.63841 -2.55846,-2.63841 l -4.18825,-0.006 m 2.1095,-0.63962 c 1.10087,1.9e-4 1.99264,-0.89177 1.99879,-1.99265 -0.003,-1.10087 -0.89792,-1.99265 -1.99879,-1.99265 -1.10088,-0.001 -1.99265,0.89178 -1.99265,1.99265 0.001,1.10088 0.89177,1.99265 1.99265,1.99265" />
    <path
       style="color:#000000;font-style:normal;font-variant:normal;font-weight:normal;font-stretch:normal;font-size:medium;line-height:normal;font-family:sans-serif;font-variant-ligatures:normal;font-variant-position:normal;font-variant-caps:normal;font-variant-numeric:normal;font-variant-alternates:normal;font-feature-settings:normal;text-indent:0;text-align:start;text-decoration:none;text-decoration-line:none;text-decoration-style:solid;text-decoration-color:#000000;letter-spacing:normal;word-spacing:normal;text-transform:none;writing-mode:lr-tb;direction:ltr;text-orientation:mixed;dominant-baseline:auto;baseline-shift:baseline;text-anchor:start;white-space:normal;shape-padding:0;clip-rule:nonzero;display:inline;overflow:visible;visibility:visible;opacity:1;isolation:auto;mix-blend-mode:normal;color-interpolation:sRGB;color-interpolation-filters:linearRGB;solid-color:#000000;solid-opacity:1;vector-effect:none;fill:#ff0000;fill-opacity:1;fill-rule:evenodd;stroke:none;stroke-width:2.957196;stroke-linecap:butt;stroke-linejoin:miter;stroke-miterlimit:4;stroke-dasharray:none;stroke-dashoffset:0;stroke-opacity:1;color-rendering:auto;image-rendering:auto;shape-rendering:auto;text-rendering:auto;enable-background:accumulate"
       d="m 181.6543,-234.52148 c -2.43185,0 -4.43555,2.00369 -4.43555,4.43554 v 29.57227 c 0,2.43185 2.0037,4.43555 4.43555,4.43555 h 29.57226 c 2.43185,-10e-6 4.43555,-2.0037 4.43555,-4.43555 v -29.57227 c 0,-2.43185 -2.00369,-4.43554 -4.43555,-4.43554 z m 0.61132,2.95703 h 28.96094 c 0.84473,0 1.47852,0.63379 1.47852,1.47851 v 28.96094 z m -2.08984,2.09179 30.4375,30.4375 H 181.6543 c -0.84472,0 -1.47852,-0.63379 -1.47852,-1.47851 z"
       id="path4483"
       inkscape:connector-curvature="0" />
  </g>
</svg>
