<?xml version="1.0" encoding="UTF-8" standalone="no"?>
<svg
   xmlns:dc="http://purl.org/dc/elements/1.1/"
   xmlns:cc="http://creativecommons.org/ns#"
   xmlns:rdf="http://www.w3.org/1999/02/22-rdf-syntax-ns#"
   xmlns:svg="http://www.w3.org/2000/svg"
   xmlns="http://www.w3.org/2000/svg"
   xmlns:sodipodi="http://sodipodi.sourceforge.net/DTD/sodipodi-0.dtd"
   xmlns:inkscape="http://www.inkscape.org/namespaces/inkscape"
   viewBox="0 0 30 30"
   version="1.1"
   id="svg6"
   sodipodi:docname="nudist.svg"
   width="30"
   height="30"
   inkscape:version="0.92.1 r15371">
  <metadata
     id="metadata12">
    <rdf:RDF>
      <cc:Work
         rdf:about="">
        <dc:format>image/svg+xml</dc:format>
        <dc:type
           rdf:resource="http://purl.org/dc/dcmitype/StillImage" />
        <dc:title />
      </cc:Work>
    </rdf:RDF>
  </metadata>
  <defs
     id="defs10" />
  <sodipodi:namedview
     pagecolor="#ffffff"
     bordercolor="#666666"
     borderopacity="1"
     objecttolerance="10"
     gridtolerance="10"
     guidetolerance="10"
     inkscape:pageopacity="0"
     inkscape:pageshadow="2"
     inkscape:window-width="1484"
     inkscape:window-height="1108"
     id="namedview8"
     showgrid="false"
     showguides="false"
     inkscape:zoom="31.788344"
     inkscape:cx="10.912395"
     inkscape:cy="15.474588"
     inkscape:window-x="210"
     inkscape:window-y="10"
     inkscape:window-maximized="0"
     inkscape:current-layer="g4491" />
  <g
     id="g4491"
     transform="matrix(0.67631637,0,0,0.67631637,-117.85536,160.61048)"
     style="stroke-width:1.478598">
    <path
       style="opacity:1;fill:#000000;fill-opacity:1;stroke:none;stroke-width:0.25;stroke-linecap:round;stroke-linejoin:round;stroke-miterlimit:4;stroke-dasharray:none;stroke-dashoffset:0;stroke-opacity:1"
       d="M 11.337891 6 C 10.590182 6 9.9824219 6.6058073 9.9824219 7.3535156 C 9.9824219 8.1012172 10.590189 8.7070312 11.337891 8.7070312 C 12.085592 8.7070312 12.691406 8.1012172 12.691406 7.3535156 C 12.691406 6.6058073 12.085599 6 11.337891 6 z M 11.337891 8.8339844 C 10.058145 8.8003038 8.8873644 9.1353917 8.7714844 9.7949219 L 7.7773438 15.472656 C 7.6707428 16.291141 8.678903 16.363871 8.78125 15.640625 L 9.453125 11.792969 L 9.7011719 15.058594 L 9.1289062 23.220703 C 9.0391996 24.148021 10.372613 24.321571 10.53125 23.339844 L 11.337891 15.951172 L 12.146484 23.339844 C 12.305114 24.321571 13.634628 24.148021 13.544922 23.220703 L 12.972656 15.058594 L 13.222656 11.792969 L 13.894531 15.640625 C 13.996878 16.363871 15.003085 16.291141 14.896484 15.472656 L 13.904297 9.7949219 C 13.788417 9.1353917 12.61763 8.8003376 11.337891 8.8339844 z M 11.332031 14.310547 A 0.250025 0.250025 0 0 1 11.40625 14.320312 A 0.250025 0.250025 0 0 1 11.451172 14.339844 A 0.250025 0.250025 0 0 1 11.494141 14.367188 A 0.250025 0.250025 0 0 1 11.574219 14.490234 A 0.250025 0.250025 0 0 1 11.580078 14.513672 A 0.250025 0.250025 0 0 1 11.585938 14.564453 L 11.585938 15.314453 C 11.906376 15.38456 12.186495 15.413761 12.460938 15.308594 A 0.25009342 0.25009342 0 1 1 12.640625 15.775391 C 12.237209 15.92999 11.806863 15.941192 11.335938 15.808594 C 10.864261 15.941754 10.433254 15.92824 10.029297 15.773438 A 0.250025 0.250025 0 1 1 10.208984 15.308594 C 10.48342 15.414045 10.763546 15.382965 11.083984 15.3125 L 11.083984 14.564453 A 0.250025 0.250025 0 0 1 11.332031 14.310547 z "
       transform="matrix(1.478598,0,0,1.478598,174.26069,-237.47833)"
       id="path4713-6" />
    <path
       style="fill:#000000;fill-opacity:1;fill-rule:evenodd;stroke:none;stroke-width:1px;stroke-linecap:butt;stroke-linejoin:miter;stroke-opacity:1"
       d="M 18.664062 6 C 17.916354 6 17.310547 6.6058073 17.310547 7.3535156 C 17.310547 8.101224 17.916354 8.7070312 18.664062 8.7070312 C 19.411771 8.7070312 20.019531 8.101224 20.019531 7.3535156 C 20.019531 6.6058073 19.411771 6 18.664062 6 z M 18.664062 8.8339844 C 17.605113 8.8312791 16.733595 9.4911407 16.46875 10.488281 L 15.105469 15.472656 C 14.998868 16.291148 16.21016 16.363871 16.3125 15.640625 L 17.289062 11.792969 L 17.044922 13.839844 C 17.044922 13.839844 16.339921 15.387238 16.308594 16.728516 L 16.455078 23.220703 C 16.365365 24.148021 17.698792 24.321571 17.857422 23.339844 L 18.664062 15.951172 L 19.472656 23.339844 C 19.631286 24.321571 20.964713 24.148021 20.875 23.220703 L 21.019531 16.728516 C 20.988218 15.387238 20.283203 13.839844 20.283203 13.839844 L 20.039062 11.792969 L 21.017578 15.640625 C 21.119925 16.363871 22.33121 16.291148 22.224609 15.472656 L 20.861328 10.488281 C 20.596476 9.4911407 19.723005 8.8308868 18.664062 8.8339844 z M 18.662109 14.083984 A 0.250025 0.250025 0 0 1 18.671875 14.083984 A 0.250025 0.250025 0 0 1 18.931641 14.339844 L 18.925781 15.199219 C 19.189274 15.335375 19.412878 15.419817 19.544922 15.396484 C 19.702903 15.3686 19.85014 15.257886 20.039062 15.027344 A 0.250025 0.250025 0 1 1 20.425781 15.34375 C 20.204538 15.613729 19.95554 15.83105 19.628906 15.888672 C 19.341249 15.93945 19.022063 15.813598 18.673828 15.625 C 18.325518 15.813665 18.006455 15.939463 17.71875 15.888672 C 17.392116 15.831023 17.145071 15.613729 16.923828 15.34375 A 0.250025 0.250025 0 1 1 17.310547 15.027344 C 17.499469 15.257886 17.646707 15.36862 17.804688 15.396484 C 17.936732 15.41979 18.160342 15.335368 18.423828 15.199219 L 18.417969 14.339844 A 0.250025 0.250025 0 0 1 18.654297 14.085938 A 0.250025 0.250025 0 0 1 18.662109 14.083984 z "
       transform="matrix(1.478598,0,0,1.478598,174.26069,-237.47833)"
       id="path4531-6-7-6-7-9" />
    <rect
       ry="2.9571958"
       style="fill:none;stroke:#000000;stroke-width:2.957196;stroke-miterlimit:4;stroke-dasharray:none;stroke-opacity:1"
       id="rect2"
       y="-233.04253"
       x="178.69649"
       width="35.486351"
       rx="2.9571958"
       height="35.486351" />
  </g>
</svg>
