<?xml version="1.0" encoding="UTF-8" standalone="no"?>
<svg
   xmlns:dc="http://purl.org/dc/elements/1.1/"
   xmlns:cc="http://creativecommons.org/ns#"
   xmlns:rdf="http://www.w3.org/1999/02/22-rdf-syntax-ns#"
   xmlns:svg="http://www.w3.org/2000/svg"
   xmlns="http://www.w3.org/2000/svg"
   xmlns:sodipodi="http://sodipodi.sourceforge.net/DTD/sodipodi-0.dtd"
   xmlns:inkscape="http://www.inkscape.org/namespaces/inkscape"
   viewBox="0 0 30 30"
   version="1.1"
   id="svg6"
   sodipodi:docname="playground.svg"
   width="30"
   height="30"
   inkscape:version="0.92.1 r15371">
  <metadata
     id="metadata12">
    <rdf:RDF>
      <cc:Work
         rdf:about="">
        <dc:format>image/svg+xml</dc:format>
        <dc:type
           rdf:resource="http://purl.org/dc/dcmitype/StillImage" />
        <dc:title></dc:title>
      </cc:Work>
    </rdf:RDF>
  </metadata>
  <defs
     id="defs10" />
  <sodipodi:namedview
     pagecolor="#ffffff"
     bordercolor="#666666"
     borderopacity="1"
     objecttolerance="10"
     gridtolerance="10"
     guidetolerance="10"
     inkscape:pageopacity="0"
     inkscape:pageshadow="2"
     inkscape:window-width="1458"
     inkscape:window-height="1052"
     id="namedview8"
     showgrid="false"
     showguides="false"
     inkscape:zoom="27.066667"
     inkscape:cx="15"
     inkscape:cy="15"
     inkscape:window-x="260"
     inkscape:window-y="110"
     inkscape:window-maximized="0"
     inkscape:current-layer="g4491" />
  <g
     id="g4491"
     transform="matrix(0.67631637,0,0,0.67631637,-117.85536,160.61048)"
     style="stroke-width:1.478598">
    <rect
       ry="2.9571958"
       style="fill:none;stroke:#000000;stroke-width:2.957196;stroke-miterlimit:4;stroke-dasharray:none;stroke-opacity:1"
       id="rect2"
       y="-233.04253"
       x="178.69649"
       width="35.486351"
       rx="2.9571958"
       height="35.486351" />
    <rect
       width="20.700371"
       height="20.700371"
       x="186.5265"
       y="-229.36426"
       id="canvas"
       style="visibility:hidden;fill:none;stroke:none;stroke-width:2.18625188" />
    <path
       inkscape:connector-curvature="0"
       d="m 189.60775,-227.65381 c -1.43269,0.0897 -2.67616,1.41608 -2.67336,2.85158 5.4e-4,1.49274 1.35885,2.85053 2.85159,2.85053 1.49274,0 2.85103,-1.35779 2.85157,-2.85053 0.003,-1.55439 -1.47844,-2.94873 -3.0298,-2.85158 z m 15.20843,5.70315 c -1.43269,0.0897 -2.67616,1.4161 -2.67336,2.85159 5.5e-4,1.49274 1.35884,2.85054 2.85158,2.85054 1.49274,0 2.85103,-1.3578 2.85159,-2.85054 0.003,-1.55439 -1.47846,-2.94874 -3.02981,-2.85159 z m -15.98073,0.95053 c -2.79643,0 -3.54705,3.56145 -3.7427,5.46553 l -1.96047,-0.71289 v 1.90106 l 11.34693,4.03974 -1.84166,7.36657 h 7.60423 l -1.78225,-5.94078 11.28751,4.03974 v -1.90106 l -1.78224,-0.65349 c 0.31189,-1.63743 1.30698,-7.90125 -2.01987,-7.90125 -3.11481,0 -3.64091,4.26691 -3.7427,5.88138 l -11.28751,-4.03974 c 0.3636,-2.15051 0.98902,-7.54481 -2.07927,-7.54481 z"
       id="playground"
       style="stroke-width:2.18625188" />
  </g>
</svg>
