<?xml version="1.0" encoding="UTF-8" standalone="no"?>
<svg
   xmlns:dc="http://purl.org/dc/elements/1.1/"
   xmlns:cc="http://creativecommons.org/ns#"
   xmlns:rdf="http://www.w3.org/1999/02/22-rdf-syntax-ns#"
   xmlns:svg="http://www.w3.org/2000/svg"
   xmlns="http://www.w3.org/2000/svg"
   xmlns:sodipodi="http://sodipodi.sourceforge.net/DTD/sodipodi-0.dtd"
   xmlns:inkscape="http://www.inkscape.org/namespaces/inkscape"
   viewBox="0 0 30 30"
   version="1.1"
   id="svg6"
   sodipodi:docname="pub.svg"
   width="30"
   height="30"
   inkscape:version="0.92.1 r15371">
  <metadata
     id="metadata12">
    <rdf:RDF>
      <cc:Work
         rdf:about="">
        <dc:format>image/svg+xml</dc:format>
        <dc:type
           rdf:resource="http://purl.org/dc/dcmitype/StillImage" />
        <dc:title></dc:title>
      </cc:Work>
    </rdf:RDF>
  </metadata>
  <defs
     id="defs10" />
  <sodipodi:namedview
     pagecolor="#ffffff"
     bordercolor="#666666"
     borderopacity="1"
     objecttolerance="10"
     gridtolerance="10"
     guidetolerance="10"
     inkscape:pageopacity="0"
     inkscape:pageshadow="2"
     inkscape:window-width="1458"
     inkscape:window-height="1052"
     id="namedview8"
     showgrid="false"
     showguides="false"
     inkscape:zoom="27.8"
     inkscape:cx="15"
     inkscape:cy="15"
     inkscape:window-x="128"
     inkscape:window-y="73"
     inkscape:window-maximized="0"
     inkscape:current-layer="g4491" />
  <g
     id="g4491"
     transform="matrix(0.67631637,0,0,0.67631637,-117.85536,160.61048)"
     style="stroke-width:1.478598">
    <rect
       ry="2.9571958"
       style="fill:none;stroke:#000000;stroke-width:2.957196;stroke-miterlimit:4;stroke-dasharray:none;stroke-opacity:1"
       id="rect2"
       y="-233.04253"
       x="178.69649"
       width="35.486351"
       rx="2.9571958"
       height="35.486351" />
    <path
       inkscape:connector-curvature="0"
       d="m 207.12128,-227.92769 h -0.0148 c 0.017,-0.0147 0.0264,-0.0294 0.0264,-0.0442 0,-0.35062 -4.78748,-0.63485 -10.69321,-0.63485 -5.90569,0 -10.69322,0.28423 -10.69322,0.63485 0,0.0149 0.009,0.0295 0.0264,0.0442 h -0.0264 l 3.33736,25.44872 h 0.015 c -0.0295,0.0159 -0.0451,0.0321 -0.0451,0.0485 0,0.24224 3.30688,0.43849 7.38609,0.43849 4.07927,0 7.38609,-0.19625 7.38609,-0.43849 0,-0.0164 -0.0157,-0.0327 -0.0451,-0.0485 z m -5.48349,23.58815 c -0.17097,0.15821 -10.31115,0.0841 -10.48212,-0.0742 l -3.17023,-20.09385 c 5.61485,3.89208 9.30765,-0.5286 16.66312,-0.14828 z"
       style="fill:#000000;stroke-width:2.18625188"
       id="path2209"
       sodipodi:nodetypes="ccsssccccsssccccccc" />
  </g>
</svg>
