<?xml version="1.0" encoding="UTF-8" standalone="no"?>
<svg
   xmlns:dc="http://purl.org/dc/elements/1.1/"
   xmlns:cc="http://creativecommons.org/ns#"
   xmlns:rdf="http://www.w3.org/1999/02/22-rdf-syntax-ns#"
   xmlns:svg="http://www.w3.org/2000/svg"
   xmlns="http://www.w3.org/2000/svg"
   xmlns:sodipodi="http://sodipodi.sourceforge.net/DTD/sodipodi-0.dtd"
   xmlns:inkscape="http://www.inkscape.org/namespaces/inkscape"
   viewBox="0 0 30 30"
   version="1.1"
   id="svg6"
   sodipodi:docname="sanitary_dump_station.svg"
   width="30"
   height="30"
   inkscape:version="0.92.1 r15371">
  <metadata
     id="metadata12">
    <rdf:RDF>
      <cc:Work
         rdf:about="">
        <dc:format>image/svg+xml</dc:format>
        <dc:type
           rdf:resource="http://purl.org/dc/dcmitype/StillImage" />
        <dc:title></dc:title>
      </cc:Work>
    </rdf:RDF>
  </metadata>
  <defs
     id="defs10" />
  <sodipodi:namedview
     pagecolor="#ffffff"
     bordercolor="#666666"
     borderopacity="1"
     objecttolerance="10"
     gridtolerance="10"
     guidetolerance="10"
     inkscape:pageopacity="0"
     inkscape:pageshadow="2"
     inkscape:window-width="1458"
     inkscape:window-height="1052"
     id="namedview8"
     showgrid="false"
     showguides="false"
     inkscape:zoom="27.066667"
     inkscape:cx="15"
     inkscape:cy="15"
     inkscape:window-x="128"
     inkscape:window-y="73"
     inkscape:window-maximized="0"
     inkscape:current-layer="g4491" />
  <g
     id="g4491"
     transform="matrix(0.67631637,0,0,0.67631637,-117.85536,160.61048)"
     style="stroke-width:1.478598">
    <rect
       ry="2.9571958"
       style="fill:none;stroke:#000000;stroke-width:2.957196;stroke-miterlimit:4;stroke-dasharray:none;stroke-opacity:1"
       id="rect2"
       y="-233.04253"
       x="178.69649"
       width="35.486351"
       rx="2.9571958"
       height="35.486351" />
    <path
       inkscape:connector-curvature="0"
       d="m 209.74705,-220.77887 c 0,-0.78279 -0.83539,-1.57844 -1.56558,-1.56557 h -6.26229 v 3.13115 h 4.69671 v 14.09016 h -20.35245 v -14.09016 h 4.69671 v -3.13115 h -6.26229 c -0.81926,8e-5 -1.56542,0.74586 -1.56558,1.56557 v 17.22132 c 1.6e-4,0.81971 0.74632,1.56549 1.56558,1.56558 h 23.48361 c 0.81927,-9e-5 1.56542,-0.74587 1.56558,-1.56558 z m -6.2623,5.47952 c 0.0439,-0.45714 -0.34247,-0.78279 -0.78278,-0.78279 h -3.91395 v -10.17623 c 0,-1.29681 -1.05284,-2.34837 -2.34835,-2.34837 -1.29551,0 -2.34868,1.05156 -2.34836,2.34837 v 10.17623 h -3.91394 c -0.56079,0.008 -1.0004,0.75898 -0.68493,1.2231 l 6.31122,7.82787 c 0.27256,0.41324 0.96893,0.44002 1.27203,0.0489 l 6.21336,-7.82787 c 0.12227,-0.17751 0.18104,-0.33687 0.1957,-0.48924 z"
       id="path3826"
       style="fill:#000000;fill-opacity:1;stroke:none;stroke-width:2.18625188" />
  </g>
</svg>
