<?xml version="1.0" encoding="UTF-8" standalone="no"?>
<svg
   xmlns:dc="http://purl.org/dc/elements/1.1/"
   xmlns:cc="http://creativecommons.org/ns#"
   xmlns:rdf="http://www.w3.org/1999/02/22-rdf-syntax-ns#"
   xmlns:svg="http://www.w3.org/2000/svg"
   xmlns="http://www.w3.org/2000/svg"
   xmlns:sodipodi="http://sodipodi.sourceforge.net/DTD/sodipodi-0.dtd"
   xmlns:inkscape="http://www.inkscape.org/namespaces/inkscape"
   viewBox="0 0 30 30"
   version="1.1"
   id="svg6"
   sodipodi:docname="sport-soccer.svg"
   width="30"
   height="30"
   inkscape:version="0.92.1 r15371">
  <metadata
     id="metadata12">
    <rdf:RDF>
      <cc:Work
         rdf:about="">
        <dc:format>image/svg+xml</dc:format>
        <dc:type
           rdf:resource="http://purl.org/dc/dcmitype/StillImage" />
        <dc:title></dc:title>
      </cc:Work>
    </rdf:RDF>
  </metadata>
  <defs
     id="defs10" />
  <sodipodi:namedview
     pagecolor="#ffffff"
     bordercolor="#666666"
     borderopacity="1"
     objecttolerance="10"
     gridtolerance="10"
     guidetolerance="10"
     inkscape:pageopacity="0"
     inkscape:pageshadow="2"
     inkscape:window-width="1458"
     inkscape:window-height="1052"
     id="namedview8"
     showgrid="false"
     showguides="false"
     inkscape:zoom="28"
     inkscape:cx="15"
     inkscape:cy="15"
     inkscape:window-x="128"
     inkscape:window-y="74"
     inkscape:window-maximized="0"
     inkscape:current-layer="g4491" />
  <g
     id="g4491"
     transform="matrix(0.67631637,0,0,0.67631637,-117.85536,160.61048)"
     style="stroke-width:1.478598">
    <rect
       ry="2.9571958"
       style="fill:none;stroke:#000000;stroke-width:2.957196;stroke-miterlimit:4;stroke-dasharray:none;stroke-opacity:1"
       id="rect2"
       y="-233.04253"
       x="178.69649"
       width="35.486351"
       rx="2.9571958"
       height="35.486351" />
    <g
       transform="matrix(0.18410224,0,0,0.18410224,11.78441,-270.91723)"
       id="g6546">
      <path
         inkscape:connector-curvature="0"
         id="path37"
         d="m 989.76,240.56 -0.08,1.04 -0.4,1.92 -1.2,2.64 -2.8,2.64 -3.6,1.52 -2.08,0.16 -2.08,-0.16 -3.68,-1.52 -2.72,-2.64 -1.28,-2.64 -0.4,-1.92 v -1.04 -0.96 l 0.4,-2 1.28,-2.56 2.72,-2.72 3.68,-1.52 2.08,-0.16 2.08,0.16 3.6,1.52 2.8,2.72 1.2,2.56 0.4,2 z"
         style="fill:#000000;fill-opacity:1;fill-rule:nonzero;stroke:#000000;stroke-width:4.88000011px;stroke-linecap:round;stroke-linejoin:round;stroke-miterlimit:4;stroke-dasharray:none;stroke-opacity:1" />
      <path
         inkscape:connector-curvature="0"
         id="path39"
         d="m 1019.6,361.2 -0.08,1.04 -0.4,1.92 -1.2,2.64 -2.8,2.72 -3.6,1.44 -2.08,0.16 -2.08,-0.16 -3.68,-1.44 -2.72,-2.72 -1.28,-2.64 -0.4,-1.92 v -1.04 -0.96 l 0.4,-2 1.28,-2.56 2.72,-2.72 3.68,-1.52 2.08,-0.08 2.08,0.08 3.6,1.52 2.8,2.72 1.2,2.56 0.4,2 z"
         style="fill:#000000;fill-opacity:1;fill-rule:nonzero;stroke:#000000;stroke-width:4.88000011px;stroke-linecap:round;stroke-linejoin:round;stroke-miterlimit:4;stroke-dasharray:none;stroke-opacity:1" />
      <path
         inkscape:connector-curvature="0"
         id="path139"
         d="m 936.88,287.04 65.2,-30 28.72,7.04 13.44,29.36"
         style="fill:none;stroke:#000000;stroke-width:12.15999985px;stroke-linecap:round;stroke-linejoin:round;stroke-miterlimit:4;stroke-dasharray:none;stroke-opacity:1" />
      <path
         inkscape:connector-curvature="0"
         id="path141"
         d="m 987.04,369.84 1.6,-20.16 1.6,-17.92 12.08,-34.8 -14.96,-26.24 9.6,-4.8 34.16,56.32 38,2.56"
         style="fill:none;stroke:#000000;stroke-width:12.15999985px;stroke-linecap:round;stroke-linejoin:round;stroke-miterlimit:4;stroke-dasharray:none;stroke-opacity:1" />
    </g>
  </g>
</svg>
