<?xml version="1.0" encoding="UTF-8" standalone="no"?>
<svg
   xmlns:dc="http://purl.org/dc/elements/1.1/"
   xmlns:cc="http://creativecommons.org/ns#"
   xmlns:rdf="http://www.w3.org/1999/02/22-rdf-syntax-ns#"
   xmlns:svg="http://www.w3.org/2000/svg"
   xmlns="http://www.w3.org/2000/svg"
   xmlns:sodipodi="http://sodipodi.sourceforge.net/DTD/sodipodi-0.dtd"
   xmlns:inkscape="http://www.inkscape.org/namespaces/inkscape"
   viewBox="0 0 30 30"
   version="1.1"
   id="svg6"
   sodipodi:docname="satatic_caravans.svg"
   width="30"
   height="30"
   inkscape:version="0.92.1 r15371">
  <metadata
     id="metadata12">
    <rdf:RDF>
      <cc:Work
         rdf:about="">
        <dc:format>image/svg+xml</dc:format>
        <dc:type
           rdf:resource="http://purl.org/dc/dcmitype/StillImage" />
        <dc:title></dc:title>
      </cc:Work>
    </rdf:RDF>
  </metadata>
  <defs
     id="defs10" />
  <sodipodi:namedview
     pagecolor="#ffffff"
     bordercolor="#666666"
     borderopacity="1"
     objecttolerance="10"
     gridtolerance="10"
     guidetolerance="10"
     inkscape:pageopacity="0"
     inkscape:pageshadow="2"
     inkscape:window-width="1458"
     inkscape:window-height="1052"
     id="namedview8"
     showgrid="false"
     showguides="false"
     inkscape:zoom="23.184766"
     inkscape:cx="12.207218"
     inkscape:cy="15"
     inkscape:window-x="128"
     inkscape:window-y="73"
     inkscape:window-maximized="0"
     inkscape:current-layer="g4491" />
  <g
     id="g4491"
     transform="matrix(0.67631637,0,0,0.67631637,-117.85536,160.61048)"
     style="stroke-width:1.478598">
    <rect
       ry="2.9571958"
       style="fill:none;stroke:#000000;stroke-width:2.957196;stroke-miterlimit:4;stroke-dasharray:none;stroke-opacity:1"
       id="rect2"
       y="-233.04253"
       x="178.69649"
       width="35.486351"
       rx="2.9571958"
       height="35.486351" />
    <path
       d="m 185.87825,-223.74849 c -2.11228,0 -4.22457,2.11229 -4.22457,4.22458 v 8.44913 c 0,2.11227 2.11229,4.22456 4.22457,4.22456 h 2.2443 c 0.49242,-2.40634 2.59679,-4.22456 5.14869,-4.22456 2.5519,0 4.65628,1.81822 5.1487,4.22456 h 12.8057 c 0,0 0,-2.11229 -2.11228,-2.11229 h -3.16843 v -10.5614 c 0,-2.0292 -2.16368,-4.22458 -4.22456,-4.22458 z m 1.78224,4.22458 c 0.19802,-0.033 0.33005,0 0.33005,0 h 4.22455 c 0,0 2.11229,0 2.11229,2.11228 0,2.11229 -2.11229,2.11229 -2.11229,2.11229 h -4.22455 c 0,0 -2.11229,0 -2.11229,-2.11229 0,-1.58421 1.18816,-2.01327 1.78224,-2.11228 z m 10.89146,0 h 1.05614 c 0,0 2.11228,0 2.11228,2.11228 0,2.11229 -2.11228,2.11229 -2.11228,2.11229 h -1.05614 c 0,0 -2.11229,0 -2.11229,-2.11229 0,-2.11228 2.11229,-2.11228 2.11229,-2.11228 z"
       id="caravan"
       style="fill:#000000;fill-opacity:1;stroke:none;stroke-width:2.04992318"
       inkscape:connector-curvature="0"
       sodipodi:nodetypes="sssscsccscssscccsccscccsccsc" />
  </g>
</svg>
