<?xml version="1.0" encoding="UTF-8" standalone="no"?>
<svg
   xmlns:dc="http://purl.org/dc/elements/1.1/"
   xmlns:cc="http://creativecommons.org/ns#"
   xmlns:rdf="http://www.w3.org/1999/02/22-rdf-syntax-ns#"
   xmlns:svg="http://www.w3.org/2000/svg"
   xmlns="http://www.w3.org/2000/svg"
   xmlns:sodipodi="http://sodipodi.sourceforge.net/DTD/sodipodi-0.dtd"
   xmlns:inkscape="http://www.inkscape.org/namespaces/inkscape"
   viewBox="0 0 30 30"
   version="1.1"
   id="svg6"
   sodipodi:docname="wifi.svg"
   width="30"
   height="30"
   inkscape:version="0.92.1 r15371">
  <metadata
     id="metadata12">
    <rdf:RDF>
      <cc:Work
         rdf:about="">
        <dc:format>image/svg+xml</dc:format>
        <dc:type
           rdf:resource="http://purl.org/dc/dcmitype/StillImage" />
        <dc:title></dc:title>
      </cc:Work>
    </rdf:RDF>
  </metadata>
  <defs
     id="defs10" />
  <sodipodi:namedview
     pagecolor="#ffffff"
     bordercolor="#666666"
     borderopacity="1"
     objecttolerance="10"
     gridtolerance="10"
     guidetolerance="10"
     inkscape:pageopacity="0"
     inkscape:pageshadow="2"
     inkscape:window-width="1458"
     inkscape:window-height="1052"
     id="namedview8"
     showgrid="false"
     showguides="false"
     inkscape:zoom="20.472867"
     inkscape:cx="15.000001"
     inkscape:cy="15"
     inkscape:window-x="270"
     inkscape:window-y="70"
     inkscape:window-maximized="0"
     inkscape:current-layer="g4491" />
  <g
     id="g4491"
     transform="matrix(0.67631637,0,0,0.67631637,-117.85536,160.61048)"
     style="stroke-width:1.478598">
    <rect
       ry="2.9571958"
       style="fill:none;stroke:#000000;stroke-width:2.957196;stroke-miterlimit:4;stroke-dasharray:none;stroke-opacity:1"
       id="rect2"
       y="-233.04253"
       x="178.69649"
       width="35.486351"
       rx="2.9571958"
       height="35.486351" />
    <g
       id="g4499"
       transform="matrix(0.19689699,0,0,0.19689699,233.49888,-110.45543)"
       style="stroke-width:7.5095005">
      <path
         inkscape:connector-curvature="0"
         style="color:#000000;fill:#000000;stroke-width:11.10353088"
         sodipodi:nodetypes="cccccccccc"
         d="m -188.30156,-562.38039 c -17.70689,0.0667 -35.38429,6.69632 -48.92879,19.87018 l 12.3045,12.16694 c 20.30486,-19.72272 52.9873,-19.83959 73.43611,-0.25447 l 12.27699,-12.28403 c -13.65015,-13.0691 -31.38301,-19.56403 -49.08947,-19.49801 z m -36.62561,32.03668 -0.0275,0.0206 z"
         id="path4391" />
      <path
         inkscape:connector-curvature="0"
         style="color:#000000;fill:#000000;stroke-width:11.10353088"
         sodipodi:nodetypes="sccccsccc"
         d="m -188.32357,-588.35133 c -24.41927,0.092 -48.79894,9.23443 -67.4782,27.40154 l 12.20832,12.07076 c 30.57967,-29.61566 79.73076,-29.76533 110.49311,-0.30263 l 12.46957,-12.27698 c -18.82232,-18.02559 -43.27462,-26.98336 -67.6939,-26.89312 z m -55.26966,39.47142 -0.1238,0.11693 z"
         id="path4395" />
      <path
         inkscape:connector-curvature="0"
         style="color:#000000;fill:#000000;stroke-width:11.10353088"
         sodipodi:nodetypes="cccccccccc"
         d="m -188.33017,-536.51951 c -11.024,0.0415 -22.03567,4.17142 -30.46963,12.37339 l 11.76132,11.62354 c 10.38419,-10.08487 27.0956,-10.13923 37.5522,-0.12381 l 11.71311,-11.73357 c -8.49711,-8.13793 -19.53454,-12.18103 -30.55766,-12.13944 z m -18.70787,23.99671 -0.0139,0.0137 z"
         id="path4381" />
      <path
         sodipodi:start="2.3561945"
         sodipodi:end="2.3520582"
         sodipodi:cx="-188.19591"
         sodipodi:cy="-493.88708"
         d="m -200.41278,-481.67021 a 17.277273,17.277273 0 0 1 -0.0126,-24.42111 17.277273,17.277273 0 0 1 24.42109,-0.0379 17.277273,17.277273 0 0 1 0.0631,24.42103 17.277273,17.277273 0 0 1 -24.42096,0.0884 l 12.16624,-12.2673 z"
         sodipodi:type="arc"
         style="color:#000000;fill:#000000;stroke-width:11.10353088"
         sodipodi:ry="17.277273"
         sodipodi:rx="17.277273"
         id="path4411" />
    </g>
  </g>
</svg>
