<?xml version="1.0" encoding="UTF-8" standalone="no"?>
<svg
   viewBox="0 0 30 30"
   version="1.1"
   id="svg6"
   width="30"
   height="30"
   xmlns="http://www.w3.org/2000/svg"
   xmlns:svg="http://www.w3.org/2000/svg"
   xmlns:rdf="http://www.w3.org/1999/02/22-rdf-syntax-ns#"
   xmlns:cc="http://creativecommons.org/ns#"
   xmlns:dc="http://purl.org/dc/elements/1.1/">
  <metadata
     id="metadata12">
    <rdf:RDF>
      <cc:Work
         rdf:about="">
        <dc:format>image/svg+xml</dc:format>
        <dc:type
           rdf:resource="http://purl.org/dc/dcmitype/StillImage" />
      </cc:Work>
    </rdf:RDF>
  </metadata>
  <defs
     id="defs10" />
  <path
     d="m 11.382503,5.525692 q 0.600001,0 1.092008,0.1199988 0.503997,0.1199988 0.971995,0.3600032 l -0.575999,1.3560008 q -0.408001,-0.1800016 -0.755999,-0.2759979 -0.347999,-0.108001 -0.732005,-0.108001 -0.707995,0 -1.175999,0.4199992 Q 9.7385067,7.8056965 9.6065032,8.585699 H 11.970506 V 9.6176969 H 9.5225047 q 0,0.048018 -0.011971,0.1320034 0,0.071994 0,0.1799948 0,0.084005 0,0.1800019 0,0.084 0.011971,0.180001 h 2.0760003 v 1.044003 H 9.6185011 q 0.2880025,1.428001 1.8840079,1.428001 0.455999,0 0.851996,-0.084 0.408002,-0.096 0.756007,-0.252002 v 1.500002 q -0.336001,0.167997 -0.756007,0.252002 -0.408001,0.096 -0.959997,0.096 -1.4040059,0 -2.3400074,-0.756 -0.9360016,-0.768 -1.1879971,-2.184003 H 7.0624986 v -1.044003 h 0.696004 q -0.024009,-0.167997 -0.024009,-0.3600029 0,-0.095996 0,-0.1799948 0,-0.084005 0.011971,-0.1320034 H 7.0624648 V 8.585699 H 7.8424672 Q 7.9984664,7.6256949 8.4784684,6.9416956 8.9584704,6.2576895 9.7024725,5.8976931 10.446468,5.525692 11.382469,5.525692 Z"
     id="path960"
     style="font-weight:bold;font-size:17.7432px;line-height:90%;font-family:'Noto Sans';-inkscape-font-specification:'Noto Sans, Bold';font-variant-ligatures:none;text-align:center;letter-spacing:0px;word-spacing:0px;text-anchor:middle;stroke-width:1px" />
  <path
     d="M 19.69853,13.673701 Q 18.918527,13.649692 18.306522,13.5297 17.694523,13.397703 17.190526,13.169704 v -1.548001 q 0.491999,0.239998 1.187997,0.443995 0.696004,0.192 1.320007,0.228 v -1.812 Q 18.774526,10.121701 18.210526,9.7857006 17.658523,9.4376953 17.418525,9.017696 17.178521,8.5976968 17.178521,8.0096938 q 0,-0.9000012 0.696004,-1.4280014 0.708002,-0.5399981 1.824005,-0.6360012 V 5.04569 h 0.803998 v 0.8759988 q 1.332005,0.048018 2.424006,0.5400048 L 22.374531,7.8296922 Q 21.894529,7.6256949 21.402529,7.517694 20.922527,7.409693 20.502528,7.3736927 v 1.7280018 q 0.647999,0.2400044 1.236002,0.5280002 0.588003,0.2760047 0.947999,0.7080023 0.372002,0.432003 0.372002,1.140005 0,0.875999 -0.636002,1.464002 -0.636001,0.587996 -1.920001,0.708002 v 1.200001 H 19.69853 Z m 0,-6.2760059 q -0.756007,0.108001 -0.756007,0.6119987 0,0.2520023 0.180002,0.4199993 0.180001,0.1680037 0.576005,0.3480053 z m 0.803998,4.8600029 q 0.792,-0.143995 0.792,-0.695997 0,-0.239998 -0.203997,-0.408002 -0.191999,-0.180001 -0.588003,-0.360003 z"
     id="path962"
     style="font-weight:bold;font-size:17.7432px;line-height:90%;font-family:'Noto Sans';-inkscape-font-specification:'Noto Sans, Bold';font-variant-ligatures:none;text-align:center;letter-spacing:0px;word-spacing:0px;text-anchor:middle;stroke-width:1px" />
  <path
     d="m 10.098503,19.913714 1.548,-3.528004 h 1.836003 l -2.243997,4.38 h 1.139999 v 1.044003 h -1.44 v 0.804005 h 1.44 v 1.043996 h -1.44 v 1.296004 H 9.2585046 V 23.657714 H 7.8065007 V 22.613718 H 9.2585046 V 21.809713 H 7.8065007 V 20.76571 H 8.9225039 L 6.7145,16.38571 h 1.8480007 z"
     id="path964"
     style="font-weight:bold;font-size:17.7432px;line-height:90%;font-family:'Noto Sans';-inkscape-font-specification:'Noto Sans, Bold';font-variant-ligatures:none;text-align:center;letter-spacing:0px;word-spacing:0px;text-anchor:middle;stroke-width:1px" />
  <path
     d="m 20.766528,16.265704 q 0.647999,0 1.224004,0.144001 0.587996,0.132004 1.056001,0.336001 l -0.540005,1.344003 q -0.407995,-0.168004 -0.815996,-0.264 -0.408002,-0.108001 -0.780003,-0.108001 -0.383998,0 -0.672001,0.228 -0.275998,0.216002 -0.275998,0.780002 v 1.128001 h 2.195999 v 1.284 H 19.96253 v 0.840006 q 0,0.636001 -0.288003,0.959997 -0.288002,0.324003 -0.6,0.492 h 4.212003 v 1.524004 h -6.144009 v -1.452004 q 0.492006,-0.215995 0.768004,-0.515995 0.288003,-0.312005 0.288003,-0.996004 v -0.852004 h -1.044003 v -1.284 h 1.044003 v -1.139999 q 0,-0.888003 0.347998,-1.416003 0.347999,-0.540005 0.923997,-0.780003 0.588003,-0.252002 1.296005,-0.252002 z"
     id="path966"
     style="font-weight:bold;font-size:17.7432px;line-height:90%;font-family:'Noto Sans';-inkscape-font-specification:'Noto Sans, Bold';font-variant-ligatures:none;text-align:center;letter-spacing:0px;word-spacing:0px;text-anchor:middle;stroke-width:1px" />
  <rect
     ry="1.9999999"
     style="fill:none;stroke:#fd0000;stroke-width:2;stroke-miterlimit:4;stroke-dasharray:none;stroke-opacity:1"
     id="rect2"
     y="3.0000045"
     x="2.9999998"
     width="24"
     rx="1.9999999"
     height="24" />
</svg>
