<?xml version="1.0" encoding="UTF-8" standalone="no"?>
<svg
   viewBox="0 0 30 30"
   version="1.1"
   id="svg6"
   width="30"
   height="30"
   xmlns="http://www.w3.org/2000/svg"
   xmlns:svg="http://www.w3.org/2000/svg"
   xmlns:rdf="http://www.w3.org/1999/02/22-rdf-syntax-ns#"
   xmlns:cc="http://creativecommons.org/ns#"
   xmlns:dc="http://purl.org/dc/elements/1.1/">
  <metadata
     id="metadata12">
    <rdf:RDF>
      <cc:Work
         rdf:about="">
        <dc:format>image/svg+xml</dc:format>
        <dc:type
           rdf:resource="http://purl.org/dc/dcmitype/StillImage" />
      </cc:Work>
    </rdf:RDF>
  </metadata>
  <defs
     id="defs10" />
  <g
     id="g4491"
     transform="matrix(0.67631637,0,0,0.67631637,-117.85536,160.61048)"
     style="stroke-width:1.478598">
    <rect
       ry="2.9571958"
       style="fill:none;stroke:#000000;stroke-width:2.957196;stroke-miterlimit:4;stroke-dasharray:none;stroke-opacity:1"
       id="rect2"
       y="-233.04253"
       x="178.69649"
       width="35.486351"
       rx="2.9571958"
       height="35.486351" />
    <path
       style="fill:#000000;fill-opacity:1;fill-rule:nonzero;stroke:none;stroke-width:1.32019"
       d="m 185.32419,-223.82872 c -0.16937,0 -0.33357,0.0483 -0.47362,0.1415 l -3.03228,1.96376 c -0.10582,0.1072 -0.16461,0.25377 -0.16461,0.40431 v 0.66421 c 0,0.15144 0.0588,0.298 0.16461,0.4043 l 0.72198,0.71909 c 0.15973,0.15973 0.37741,0.25124 0.60356,0.25124 h 7.60669 v 0.56891 l -2.83301,0.50538 c -0.22358,0.0398 -0.4221,0.16748 -0.55159,0.35522 l -2.0966,3.0496 c -0.13398,0.19469 -0.32435,0.34264 -0.54581,0.42453 l -2.69729,0.98765 c -0.22407,0.0827 -0.37254,0.29488 -0.37254,0.53426 v 3.2431 c 0,0.31375 0.25515,0.56602 0.56891,0.56602 h 2.27566 c 0,-1.57 1.27178,-2.84168 2.84168,-2.84168 1.57135,0 2.84457,1.27168 2.84457,2.84168 h 10.80358 c 0,-1.57 1.27455,-2.84168 2.84457,-2.84168 1.56988,0 2.84168,1.27168 2.84168,2.84168 h 1.14072 l 3.41059,-1.13494 v -11.94141 c 0,-0.31498 -0.25517,-0.5718 -0.56892,-0.5718 h -7.39299 l -2.27565,-1.13494 z m 1.16381,1.13493 h 3.97951 c 0.15756,0 0.28301,0.1284 0.28301,0.2859 v 1.70675 c 0,0.15749 -0.12551,0.28301 -0.28301,0.28301 H 186.488 c -0.15756,0 -0.2859,-0.12553 -0.2859,-0.28301 v -1.70675 c 0,-0.15749 0.12832,-0.2859 0.2859,-0.2859 z m 8.52793,3.41349 h 4.55131 c 0.15884,0 0.28301,0.1255 0.28301,0.283 v 8.53082 c 0,0.1575 -0.12417,0.2859 -0.28301,0.2859 h -4.55131 c -0.15614,0 -0.28301,-0.1284 -0.28301,-0.2859 v -8.53082 c 0,-0.15749 0.12679,-0.283 0.28301,-0.283 z m 7.39587,0 h 3.97951 c 0.1563,0 0.28302,0.1255 0.28302,0.283 v 2.84458 c 0,0.15749 -0.12678,0.2859 -0.28302,0.2859 h -3.97951 c -0.15755,0 -0.2859,-0.12842 -0.2859,-0.2859 v -2.84458 c 0,-0.15749 0.12847,-0.283 0.2859,-0.283 z m -14.19973,1.59122 h 2.25544 c 0.15756,0 0.28301,0.1293 0.28301,0.2859 v 2.62798 c 0,0.15178 -0.11664,0.2773 -0.26857,0.28301 l -4.39825,0.19637 c -0.12601,0.006 -0.2341,-0.0919 -0.2397,-0.21658 -0.003,-0.0491 0.0129,-0.096 0.0404,-0.13574 l 1.85691,-2.78681 c 0.10504,-0.15839 0.28041,-0.25413 0.47072,-0.25413 z m -0.87214,6.37068 c -1.25625,0 -2.27566,1.01651 -2.27566,2.27276 0,1.25625 1.01941,2.27566 2.27566,2.27566 1.25625,0 2.27277,-1.01941 2.27277,-2.27566 0,-1.25625 -1.01652,-2.27276 -2.27277,-2.27276 z m 16.49272,0 c -1.25625,0 -2.27566,1.01651 -2.27566,2.27276 0,1.25625 1.01941,2.27566 2.27566,2.27566 1.25612,0 2.27276,-1.01941 2.27276,-2.27566 0,-1.25625 -1.01664,-2.27276 -2.27276,-2.27276 z"
       id="path5733" />
  </g>
</svg>
