<?xml version="1.0" encoding="UTF-8" standalone="no"?>
<svg
   xmlns:dc="http://purl.org/dc/elements/1.1/"
   xmlns:cc="http://creativecommons.org/ns#"
   xmlns:rdf="http://www.w3.org/1999/02/22-rdf-syntax-ns#"
   xmlns:svg="http://www.w3.org/2000/svg"
   xmlns="http://www.w3.org/2000/svg"
   xmlns:sodipodi="http://sodipodi.sourceforge.net/DTD/sodipodi-0.dtd"
   xmlns:inkscape="http://www.inkscape.org/namespaces/inkscape"
   viewBox="0 0 30 30"
   version="1.1"
   id="svg6"
   sodipodi:docname="no-caravan.svg"
   width="30"
   height="30"
   inkscape:version="0.92.1 r15371">
  <metadata
     id="metadata12">
    <rdf:RDF>
      <cc:Work
         rdf:about="">
        <dc:format>image/svg+xml</dc:format>
        <dc:type
           rdf:resource="http://purl.org/dc/dcmitype/StillImage" />
        <dc:title></dc:title>
      </cc:Work>
    </rdf:RDF>
  </metadata>
  <defs
     id="defs10" />
  <sodipodi:namedview
     pagecolor="#ffffff"
     bordercolor="#666666"
     borderopacity="1"
     objecttolerance="10"
     gridtolerance="10"
     guidetolerance="10"
     inkscape:pageopacity="0"
     inkscape:pageshadow="2"
     inkscape:window-width="1458"
     inkscape:window-height="1052"
     id="namedview8"
     showgrid="false"
     showguides="false"
     inkscape:zoom="27.8"
     inkscape:cx="15"
     inkscape:cy="15"
     inkscape:window-x="128"
     inkscape:window-y="73"
     inkscape:window-maximized="0"
     inkscape:current-layer="g4491" />
  <g
     id="g4491"
     transform="matrix(0.67631637,0,0,0.67631637,-117.85536,160.61048)"
     style="stroke-width:1.478598">
    <path
       d="m 185.87825,-225.86077 c -2.11228,0 -4.22457,2.11229 -4.22457,4.22458 v 8.44913 c 0,2.11227 2.11229,4.22456 4.22457,4.22456 h 2.2443 c 0.49242,-2.40634 2.59679,-4.22456 5.14869,-4.22456 2.5519,0 4.65628,1.81822 5.1487,4.22456 h 12.8057 c 0,0 0,-2.11229 -2.11228,-2.11229 h -3.16843 v -10.5614 c 0,-2.0292 -2.16368,-4.22458 -4.22456,-4.22458 z m 1.78224,4.22458 c 0.19802,-0.033 0.33005,0 0.33005,0 h 4.22455 c 0,0 2.11229,0 2.11229,2.11228 0,2.11229 -2.11229,2.11229 -2.11229,2.11229 h -4.22455 c 0,0 -2.11229,0 -2.11229,-2.11229 0,-1.58421 1.18816,-2.01327 1.78224,-2.11228 z m 10.89146,0 h 1.05614 c 0,0 2.11228,0 2.11228,2.11228 0,2.11229 -2.11228,2.11229 -2.11228,2.11229 h -1.05614 c 0,0 -2.11229,0 -2.11229,-2.11229 0,-2.11228 2.11229,-2.11228 2.11229,-2.11228 z m -5.28071,10.5614 c -1.74988,0 -3.16841,1.41855 -3.16841,3.16844 0,1.74985 1.41853,3.16841 3.16841,3.16841 1.74987,0 3.16842,-1.41856 3.16842,-3.16841 0,-1.74989 -1.41855,-3.16844 -3.16842,-3.16844 z"
       id="caravan"
       style="fill:#000000;fill-opacity:1;stroke:none;stroke-width:2.04992318"
       inkscape:connector-curvature="0" />
    <path
       style="color:#000000;font-style:normal;font-variant:normal;font-weight:normal;font-stretch:normal;font-size:medium;line-height:normal;font-family:sans-serif;font-variant-ligatures:normal;font-variant-position:normal;font-variant-caps:normal;font-variant-numeric:normal;font-variant-alternates:normal;font-feature-settings:normal;text-indent:0;text-align:start;text-decoration:none;text-decoration-line:none;text-decoration-style:solid;text-decoration-color:#000000;letter-spacing:normal;word-spacing:normal;text-transform:none;writing-mode:lr-tb;direction:ltr;text-orientation:mixed;dominant-baseline:auto;baseline-shift:baseline;text-anchor:start;white-space:normal;shape-padding:0;clip-rule:nonzero;display:inline;overflow:visible;visibility:visible;opacity:1;isolation:auto;mix-blend-mode:normal;color-interpolation:sRGB;color-interpolation-filters:linearRGB;solid-color:#000000;solid-opacity:1;vector-effect:none;fill:#ff0000;fill-opacity:1;fill-rule:evenodd;stroke:none;stroke-width:2.957196;stroke-linecap:butt;stroke-linejoin:miter;stroke-miterlimit:4;stroke-dasharray:none;stroke-dashoffset:0;stroke-opacity:1;color-rendering:auto;image-rendering:auto;shape-rendering:auto;text-rendering:auto;enable-background:accumulate"
       d="m 181.6543,-234.52148 c -2.43185,0 -4.43555,2.00369 -4.43555,4.43554 v 29.57227 c 0,2.43185 2.0037,4.43555 4.43555,4.43555 h 29.57226 c 2.43185,-10e-6 4.43555,-2.0037 4.43555,-4.43555 v -29.57227 c 0,-2.43185 -2.00369,-4.43554 -4.43555,-4.43554 z m 0.61132,2.95703 h 28.96094 c 0.84473,0 1.47852,0.63379 1.47852,1.47851 v 28.96094 z m -2.08984,2.09179 30.4375,30.4375 H 181.6543 c -0.84472,0 -1.47852,-0.63379 -1.47852,-1.47851 z"
       id="path4483"
       inkscape:connector-curvature="0" />
  </g>
</svg>
