<?xml version="1.0" encoding="UTF-8" standalone="no"?>
<svg
   xmlns:dc="http://purl.org/dc/elements/1.1/"
   xmlns:cc="http://creativecommons.org/ns#"
   xmlns:rdf="http://www.w3.org/1999/02/22-rdf-syntax-ns#"
   xmlns:svg="http://www.w3.org/2000/svg"
   xmlns="http://www.w3.org/2000/svg"
   xmlns:sodipodi="http://sodipodi.sourceforge.net/DTD/sodipodi-0.dtd"
   xmlns:inkscape="http://www.inkscape.org/namespaces/inkscape"
   viewBox="0 0 30 30"
   version="1.1"
   id="svg6"
   sodipodi:docname="no-drinking_water.svg"
   width="30"
   height="30"
   inkscape:version="0.92.1 r15371">
  <metadata
     id="metadata12">
    <rdf:RDF>
      <cc:Work
         rdf:about="">
        <dc:format>image/svg+xml</dc:format>
        <dc:type
           rdf:resource="http://purl.org/dc/dcmitype/StillImage" />
        <dc:title />
      </cc:Work>
    </rdf:RDF>
  </metadata>
  <defs
     id="defs10" />
  <sodipodi:namedview
     pagecolor="#ffffff"
     bordercolor="#666666"
     borderopacity="1"
     objecttolerance="10"
     gridtolerance="10"
     guidetolerance="10"
     inkscape:pageopacity="0"
     inkscape:pageshadow="2"
     inkscape:window-width="1458"
     inkscape:window-height="1052"
     id="namedview8"
     showgrid="false"
     showguides="false"
     inkscape:zoom="27.066667"
     inkscape:cx="15"
     inkscape:cy="15"
     inkscape:window-x="194"
     inkscape:window-y="17"
     inkscape:window-maximized="0"
     inkscape:current-layer="g5639" />
  <g
     id="g4491"
     transform="matrix(0.67631637,0,0,0.67631637,-117.85536,160.61048)"
     style="stroke-width:1.478598">
    <g
       id="g5639"
       transform="matrix(0.05569203,0,0,0.05569203,187.10203,-202.11814)"
       style="stroke-width:26.54953957">
      <g
         id="g4490"
         transform="translate(1.3855683e-5,-26.549535)">
        <path
           inkscape:connector-curvature="0"
           d="m 342.2554,-338.88862 -8.07167,6.31657 h -90.20039 v -73.56024 h -37.14977 v -45.83654 h 67.2762 V -475.6264 H 112.2033 v 23.65757 h 67.2762 v 45.83654 h -37.14977 v 73.56024 H 61.623419 v 0.0251 c -0.36965,-0.009 -0.73634,-0.0251 -1.10895,-0.0251 -20.9192,0 -38.03841,15.33602 -39.44751,34.74706 h -0.10498 v 111.63414 h 65.05831 v -59.4559 c -0.23362,-1.0291 -0.36965,-2.09813 -0.36965,-3.19969 0,-7.86022 6.28995,-14.2315 14.04668,-14.2315 0.1242,0 0.24544,0.0163 0.369651,0.0192 v -0.0192 h 237.64765 l 4.54225,3.55455 50.71,39.68261 v -79.36522 -79.36523 z"
           id="path42"
           style="stroke-width:39.25609207" />
        <path
           inkscape:connector-curvature="0"
           d="m 47.773389,-85.15529 c -19.9522,-2.62895 -36.01125,-16.85454 -32.89289,-39.30409 2.88327,-20.76395 28.21757,-31.52223 36.08666,-50.08751 l 1.04537,-0.18482 c 7.8691,18.56527 33.2034,29.32355 36.08666,50.0875 3.41557,24.58317 -16.16699,39.30409 -38.6742,39.73732 z"
           id="path44"
           style="stroke-width:39.25609207" />
        <polygon
           style="stroke-width:26.5488205"
           transform="matrix(1.4786781,0,0,1.478598,-206.01085,-555.23145)"
           points="118.917,412.833 230.44,412.833 231.43,412.956 249.692,266.25 228.277,266.25 212.53,392.75 137.536,392.75 121.758,266 100.343,266 118.605,412.706 118.917,412.667 "
           id="polygon46" />
      </g>
    </g>
    <path
       style="color:#000000;font-style:normal;font-variant:normal;font-weight:normal;font-stretch:normal;font-size:medium;line-height:normal;font-family:sans-serif;font-variant-ligatures:normal;font-variant-position:normal;font-variant-caps:normal;font-variant-numeric:normal;font-variant-alternates:normal;font-feature-settings:normal;text-indent:0;text-align:start;text-decoration:none;text-decoration-line:none;text-decoration-style:solid;text-decoration-color:#000000;letter-spacing:normal;word-spacing:normal;text-transform:none;writing-mode:lr-tb;direction:ltr;text-orientation:mixed;dominant-baseline:auto;baseline-shift:baseline;text-anchor:start;white-space:normal;shape-padding:0;clip-rule:nonzero;display:inline;overflow:visible;visibility:visible;opacity:1;isolation:auto;mix-blend-mode:normal;color-interpolation:sRGB;color-interpolation-filters:linearRGB;solid-color:#000000;solid-opacity:1;vector-effect:none;fill:#ff0000;fill-opacity:1;fill-rule:evenodd;stroke:none;stroke-width:2.957196;stroke-linecap:butt;stroke-linejoin:miter;stroke-miterlimit:4;stroke-dasharray:none;stroke-dashoffset:0;stroke-opacity:1;color-rendering:auto;image-rendering:auto;shape-rendering:auto;text-rendering:auto;enable-background:accumulate"
       d="m 181.6543,-234.52148 c -2.43185,0 -4.43555,2.00369 -4.43555,4.43554 v 29.57227 c 0,2.43185 2.0037,4.43555 4.43555,4.43555 h 29.57226 c 2.43185,-10e-6 4.43555,-2.0037 4.43555,-4.43555 v -29.57227 c 0,-2.43185 -2.00369,-4.43554 -4.43555,-4.43554 z m 0.61132,2.95703 h 28.96094 c 0.84473,0 1.47852,0.63379 1.47852,1.47851 v 28.96094 z m -2.08984,2.09179 30.4375,30.4375 H 181.6543 c -0.84472,0 -1.47852,-0.63379 -1.47852,-1.47851 z"
       id="path4483"
       inkscape:connector-curvature="0" />
  </g>
</svg>
