<?xml version="1.0" encoding="UTF-8" standalone="no"?>
<svg
   xmlns:dc="http://purl.org/dc/elements/1.1/"
   xmlns:cc="http://creativecommons.org/ns#"
   xmlns:rdf="http://www.w3.org/1999/02/22-rdf-syntax-ns#"
   xmlns:svg="http://www.w3.org/2000/svg"
   xmlns="http://www.w3.org/2000/svg"
   viewBox="0 0 30 30"
   version="1.1"
   id="svg6"
   width="30"
   height="30">
  <metadata
     id="metadata12">
    <rdf:RDF>
      <cc:Work
         rdf:about="">
        <dc:format>image/svg+xml</dc:format>
        <dc:type
           rdf:resource="http://purl.org/dc/dcmitype/StillImage" />
        <dc:title></dc:title>
      </cc:Work>
    </rdf:RDF>
  </metadata>
  <defs
     id="defs10" />
  <g
     id="g4491"
     transform="matrix(0.67631637,0,0,0.67631637,-117.85536,160.61048)"
     style="stroke-width:1.478598">
    <path
       style="fill:#231f20;stroke-width:0.42171967"
       d="m 198.78009,-226.7325 v 6.60007 l 4.84645,2.30568 v -0.90634 l 3.94622,-0.007 1.44837,-3.11286 z m -14.01178,6.80618 c -0.31532,0.0243 -0.61311,0.20083 -0.78156,0.49745 -0.26754,0.47232 -0.10475,1.07183 0.36988,1.34364 l 2.33299,1.33751 v 11.18359 c 0,0.94035 0.76202,1.69792 1.70239,1.69792 0.94034,0 1.70236,-0.75757 1.70236,-1.69792 l -0.005,-4.38131 3.08612,5.21021 c 0.47916,0.8066 1.522,1.07138 2.33744,0.58994 0.80003,-0.47917 1.06496,-1.53024 0.58379,-2.33911 l -2.86999,-4.83085 h 6.44411 v 5.75112 c 0,0.94035 0.75756,1.69792 1.69792,1.69792 0.94035,0 1.70683,-0.75757 1.70683,-1.69792 v -5.75112 c 0.50797,0 0.55707,-0.33424 0.55707,-0.72641 v -4.28771 l -5.38345,-2.63323 h -11.44206 l -1.47733,-0.83615 c -0.17712,-0.10193 -0.37289,-0.14216 -0.56207,-0.12757 z"
       id="polygon6" />
    <path
       style="color:#000000;font-style:normal;font-variant:normal;font-weight:normal;font-stretch:normal;font-size:medium;line-height:normal;font-family:sans-serif;font-variant-ligatures:normal;font-variant-position:normal;font-variant-caps:normal;font-variant-numeric:normal;font-variant-alternates:normal;font-feature-settings:normal;text-indent:0;text-align:start;text-decoration:none;text-decoration-line:none;text-decoration-style:solid;text-decoration-color:#000000;letter-spacing:normal;word-spacing:normal;text-transform:none;writing-mode:lr-tb;direction:ltr;text-orientation:mixed;dominant-baseline:auto;baseline-shift:baseline;text-anchor:start;white-space:normal;shape-padding:0;clip-rule:nonzero;display:inline;overflow:visible;visibility:visible;opacity:1;isolation:auto;mix-blend-mode:normal;color-interpolation:sRGB;color-interpolation-filters:linearRGB;solid-color:#000000;solid-opacity:1;vector-effect:none;fill:#ff0000;fill-opacity:1;fill-rule:evenodd;stroke:none;stroke-width:2.957196;stroke-linecap:butt;stroke-linejoin:miter;stroke-miterlimit:4;stroke-dasharray:none;stroke-dashoffset:0;stroke-opacity:1;color-rendering:auto;image-rendering:auto;shape-rendering:auto;text-rendering:auto;enable-background:accumulate"
       d="m 181.6543,-234.52148 c -2.43185,0 -4.43555,2.00369 -4.43555,4.43554 v 29.57227 c 0,2.43185 2.0037,4.43555 4.43555,4.43555 h 29.57226 c 2.43185,-10e-6 4.43555,-2.0037 4.43555,-4.43555 v -29.57227 c 0,-2.43185 -2.00369,-4.43554 -4.43555,-4.43554 z m 0.61132,2.95703 h 28.96094 c 0.84473,0 1.47852,0.63379 1.47852,1.47851 v 28.96094 z m -2.08984,2.09179 30.4375,30.4375 H 181.6543 c -0.84472,0 -1.47852,-0.63379 -1.47852,-1.47851 z"
       id="path4483" />
  </g>
</svg>
