<?xml version="1.0" encoding="UTF-8" standalone="no"?>
<svg
   xmlns:dc="http://purl.org/dc/elements/1.1/"
   xmlns:cc="http://creativecommons.org/ns#"
   xmlns:rdf="http://www.w3.org/1999/02/22-rdf-syntax-ns#"
   xmlns:svg="http://www.w3.org/2000/svg"
   xmlns="http://www.w3.org/2000/svg"
   xmlns:sodipodi="http://sodipodi.sourceforge.net/DTD/sodipodi-0.dtd"
   xmlns:inkscape="http://www.inkscape.org/namespaces/inkscape"
   viewBox="0 0 30 30"
   version="1.1"
   id="svg6"
   sodipodi:docname="no-firepit.svg"
   width="30"
   height="30"
   inkscape:version="0.92.1 r15371">
  <metadata
     id="metadata12">
    <rdf:RDF>
      <cc:Work
         rdf:about="">
        <dc:format>image/svg+xml</dc:format>
        <dc:type
           rdf:resource="http://purl.org/dc/dcmitype/StillImage" />
        <dc:title></dc:title>
      </cc:Work>
    </rdf:RDF>
  </metadata>
  <defs
     id="defs10" />
  <sodipodi:namedview
     pagecolor="#ffffff"
     bordercolor="#666666"
     borderopacity="1"
     objecttolerance="10"
     gridtolerance="10"
     guidetolerance="10"
     inkscape:pageopacity="0"
     inkscape:pageshadow="2"
     inkscape:window-width="1458"
     inkscape:window-height="1052"
     id="namedview8"
     showgrid="false"
     showguides="false"
     inkscape:zoom="27.8"
     inkscape:cx="8.9388489"
     inkscape:cy="15"
     inkscape:window-x="116"
     inkscape:window-y="28"
     inkscape:window-maximized="0"
     inkscape:current-layer="g4491" />
  <g
     id="g4491"
     transform="matrix(0.67631637,0,0,0.67631637,-117.85536,160.61048)"
     style="stroke-width:1.478598">
    <path
       inkscape:connector-curvature="0"
       id="path4157-6"
       d="m 194.28355,-228.60699 c 3.10277,6.36839 -13.17623,10.54147 0.9794,19.26524 l 0.61212,-0.22258 c -3.52457,-5.10061 10.77975,-11.07982 -1.59152,-19.04266 z m 6.43658,6.52563 c 1.9952,5.86495 -4.81714,7.54542 -2.6785,11.72683 l 3.20901,-1.1649 c 1.28744,-3.14067 4.58479,-5.67305 -0.53051,-10.56193 z m -14.7689,10.5879 a 0.94981582,0.94981582 0 0 0 -0.27453,1.8475 l 8.00585,2.91223 -8.00213,2.90853 a 0.93881903,0.93881903 0 0 0 0.63808,1.76588 l 10.10935,-3.67646 10.14271,3.68759 a 0.95054769,0.95054769 0 0 0 0.64551,-1.78815 l -8.00585,-2.91223 8.00214,-2.90851 a 0.93874336,0.93874336 0 0 0 -0.3005,-1.82525 0.93874336,0.93874336 0 0 0 -0.33758,0.0593 l -10.10935,3.67646 -10.14272,-3.68759 a 0.94981582,0.94981582 0 0 0 -0.37098,-0.0593 z"
       style="stroke-width:2.18625188" />
    <path
       style="color:#000000;font-style:normal;font-variant:normal;font-weight:normal;font-stretch:normal;font-size:medium;line-height:normal;font-family:sans-serif;font-variant-ligatures:normal;font-variant-position:normal;font-variant-caps:normal;font-variant-numeric:normal;font-variant-alternates:normal;font-feature-settings:normal;text-indent:0;text-align:start;text-decoration:none;text-decoration-line:none;text-decoration-style:solid;text-decoration-color:#000000;letter-spacing:normal;word-spacing:normal;text-transform:none;writing-mode:lr-tb;direction:ltr;text-orientation:mixed;dominant-baseline:auto;baseline-shift:baseline;text-anchor:start;white-space:normal;shape-padding:0;clip-rule:nonzero;display:inline;overflow:visible;visibility:visible;opacity:1;isolation:auto;mix-blend-mode:normal;color-interpolation:sRGB;color-interpolation-filters:linearRGB;solid-color:#000000;solid-opacity:1;vector-effect:none;fill:#ff0000;fill-opacity:1;fill-rule:evenodd;stroke:none;stroke-width:2.957196;stroke-linecap:butt;stroke-linejoin:miter;stroke-miterlimit:4;stroke-dasharray:none;stroke-dashoffset:0;stroke-opacity:1;color-rendering:auto;image-rendering:auto;shape-rendering:auto;text-rendering:auto;enable-background:accumulate"
       d="m 181.6543,-234.52148 c -2.43185,0 -4.43555,2.00369 -4.43555,4.43554 v 29.57227 c 0,2.43185 2.0037,4.43555 4.43555,4.43555 h 29.57226 c 2.43185,-10e-6 4.43555,-2.0037 4.43555,-4.43555 v -29.57227 c 0,-2.43185 -2.00369,-4.43554 -4.43555,-4.43554 z m 0.61132,2.95703 h 28.96094 c 0.84473,0 1.47852,0.63379 1.47852,1.47851 v 28.96094 z m -2.08984,2.09179 30.4375,30.4375 H 181.6543 c -0.84472,0 -1.47852,-0.63379 -1.47852,-1.47851 z"
       id="path4483"
       inkscape:connector-curvature="0" />
  </g>
</svg>
