<?xml version="1.0" encoding="UTF-8" standalone="no"?>
<svg
   xmlns:dc="http://purl.org/dc/elements/1.1/"
   xmlns:cc="http://creativecommons.org/ns#"
   xmlns:rdf="http://www.w3.org/1999/02/22-rdf-syntax-ns#"
   xmlns:svg="http://www.w3.org/2000/svg"
   xmlns="http://www.w3.org/2000/svg"
   viewBox="0 0 30 30"
   version="1.1"
   id="svg6"
   width="30"
   height="30">
  <metadata
     id="metadata12">
    <rdf:RDF>
      <cc:Work
         rdf:about="">
        <dc:format>image/svg+xml</dc:format>
        <dc:type
           rdf:resource="http://purl.org/dc/dcmitype/StillImage" />
        <dc:title></dc:title>
      </cc:Work>
    </rdf:RDF>
  </metadata>
  <defs
     id="defs10" />
  <g
     id="g4491"
     transform="matrix(0.67631637,0,0,0.67631637,-117.85536,160.61048)"
     style="stroke-width:1.478598">
    <g
       id="g4499"
       transform="matrix(0.19689699,0,0,0.19689699,233.49888,-110.45543)"
       style="stroke-width:7.5095005">
      <path
         style="color:#000000;fill:#000000;stroke-width:11.10353088"
         d="m -188.30156,-562.38039 c -17.70689,0.0667 -35.38429,6.69632 -48.92879,19.87018 l 12.3045,12.16694 c 20.30486,-19.72272 52.9873,-19.83959 73.43611,-0.25447 l 12.27699,-12.28403 c -13.65015,-13.0691 -31.38301,-19.56403 -49.08947,-19.49801 z m -36.62561,32.03668 -0.0275,0.0206 z"
         id="path4391" />
      <path
         style="color:#000000;fill:#000000;stroke-width:11.10353088"
         d="m -188.32357,-588.35133 c -24.41927,0.092 -48.79894,9.23443 -67.4782,27.40154 l 12.20832,12.07076 c 30.57967,-29.61566 79.73076,-29.76533 110.49311,-0.30263 l 12.46957,-12.27698 c -18.82232,-18.02559 -43.27462,-26.98336 -67.6939,-26.89312 z m -55.26966,39.47142 -0.1238,0.11693 z"
         id="path4395" />
      <path
         style="color:#000000;fill:#000000;stroke-width:11.10353088"
         d="m -188.33017,-536.51951 c -11.024,0.0415 -22.03567,4.17142 -30.46963,12.37339 l 11.76132,11.62354 c 10.38419,-10.08487 27.0956,-10.13923 37.5522,-0.12381 l 11.71311,-11.73357 c -8.49711,-8.13793 -19.53454,-12.18103 -30.55766,-12.13944 z m -18.70787,23.99671 -0.0139,0.0137 z"
         id="path4381" />
      <path
         d="m -200.41278,-481.67021 a 17.277273,17.277273 0 0 1 -0.0126,-24.42111 17.277273,17.277273 0 0 1 24.42109,-0.0379 17.277273,17.277273 0 0 1 0.0631,24.42103 17.277273,17.277273 0 0 1 -24.42096,0.0884 l 12.16624,-12.2673 z"
         style="color:#000000;fill:#000000;stroke-width:11.10353088"
         id="path4411" />
    </g>
    <path
       style="color:#000000;font-style:normal;font-variant:normal;font-weight:normal;font-stretch:normal;font-size:medium;line-height:normal;font-family:sans-serif;font-variant-ligatures:normal;font-variant-position:normal;font-variant-caps:normal;font-variant-numeric:normal;font-variant-alternates:normal;font-feature-settings:normal;text-indent:0;text-align:start;text-decoration:none;text-decoration-line:none;text-decoration-style:solid;text-decoration-color:#000000;letter-spacing:normal;word-spacing:normal;text-transform:none;writing-mode:lr-tb;direction:ltr;text-orientation:mixed;dominant-baseline:auto;baseline-shift:baseline;text-anchor:start;white-space:normal;shape-padding:0;clip-rule:nonzero;display:inline;overflow:visible;visibility:visible;isolation:auto;mix-blend-mode:normal;color-interpolation:sRGB;color-interpolation-filters:linearRGB;solid-color:#000000;solid-opacity:1;vector-effect:none;fill:#ff0000;fill-opacity:1;fill-rule:evenodd;stroke:none;stroke-width:2.9572;stroke-linecap:butt;stroke-linejoin:miter;stroke-miterlimit:4;stroke-dasharray:none;stroke-dashoffset:0;stroke-opacity:1;color-rendering:auto;image-rendering:auto;shape-rendering:auto;text-rendering:auto;enable-background:accumulate"
       d="m 181.6543,-234.52148 c -2.43185,0 -4.43555,2.00369 -4.43555,4.43554 v 29.57227 c 0,2.43185 2.0037,4.43555 4.43555,4.43555 h 29.57226 c 2.43185,-10e-6 4.43555,-2.0037 4.43555,-4.43555 v -29.57227 c 0,-2.43185 -2.00369,-4.43554 -4.43555,-4.43554 z m 0.61132,2.95703 h 28.96094 c 0.84473,0 1.47852,0.63379 1.47852,1.47851 v 28.96094 z m -2.08984,2.09179 30.4375,30.4375 H 181.6543 c -0.84472,0 -1.47852,-0.63379 -1.47852,-1.47851 z"
       id="path4483" />
  </g>
</svg>
