<?xml version="1.0" encoding="UTF-8" standalone="no"?>
<svg
   viewBox="0 0 30 30"
   version="1.1"
   id="svg6"
   width="30"
   height="30"
   xmlns="http://www.w3.org/2000/svg"
   xmlns:svg="http://www.w3.org/2000/svg"
   xmlns:rdf="http://www.w3.org/1999/02/22-rdf-syntax-ns#"
   xmlns:cc="http://creativecommons.org/ns#"
   xmlns:dc="http://purl.org/dc/elements/1.1/">
  <metadata
     id="metadata12">
    <rdf:RDF>
      <cc:Work
         rdf:about="">
        <dc:format>image/svg+xml</dc:format>
        <dc:type
           rdf:resource="http://purl.org/dc/dcmitype/StillImage" />
      </cc:Work>
    </rdf:RDF>
  </metadata>
  <defs
     id="defs10" />
  <g
     id="g4491"
     transform="matrix(0.67631637,0,0,0.67631637,-117.85536,160.61048)"
     style="stroke-width:1.478598">
    <rect
       ry="2.9571958"
       style="fill:none;stroke:#000000;stroke-width:2.957196;stroke-miterlimit:4;stroke-dasharray:none;stroke-opacity:1"
       id="rect2"
       y="-233.04253"
       x="178.69649"
       width="35.486351"
       rx="2.9571958"
       height="35.486351" />
    <path
       d="m 188.82104,-224.80748 c -2.51401,0 -2.51401,2.85242 0,2.85242 h 15.213 c 2.54644,0 2.54624,-2.85242 0,-2.85242 z m 1.90163,3.80324 -1.42623,5.70488 h -4.27864 c -2.51402,0 -2.51402,2.85243 0,2.85243 h 3.56554 l -1.66393,6.65569 h 2.85244 l 1.66392,-6.65569 h 9.98353 l 1.66393,6.65569 h 2.85244 l -1.66393,-6.65569 h 3.56555 c 2.54645,0 2.54624,-2.85243 0,-2.85243 h -4.27865 l -1.42622,-5.70488 h -2.85244 l 1.42622,5.70488 h -8.55731 l 1.42622,-5.70488 z"
       id="table"
       style="fill:#000000;fill-opacity:1;stroke:none;stroke-width:2.18625" />
  </g>
</svg>
