<?xml version="1.0" encoding="UTF-8" standalone="no"?>
<svg
   xmlns:dc="http://purl.org/dc/elements/1.1/"
   xmlns:cc="http://creativecommons.org/ns#"
   xmlns:rdf="http://www.w3.org/1999/02/22-rdf-syntax-ns#"
   xmlns:svg="http://www.w3.org/2000/svg"
   xmlns="http://www.w3.org/2000/svg"
   xmlns:sodipodi="http://sodipodi.sourceforge.net/DTD/sodipodi-0.dtd"
   xmlns:inkscape="http://www.inkscape.org/namespaces/inkscape"
   viewBox="0 0 30 30"
   version="1.1"
   id="svg6"
   sodipodi:docname="post_box.svg"
   width="30"
   height="30"
   inkscape:version="0.92.1 r15371">
  <metadata
     id="metadata12">
    <rdf:RDF>
      <cc:Work
         rdf:about="">
        <dc:format>image/svg+xml</dc:format>
        <dc:type
           rdf:resource="http://purl.org/dc/dcmitype/StillImage" />
        <dc:title></dc:title>
      </cc:Work>
    </rdf:RDF>
  </metadata>
  <defs
     id="defs10" />
  <sodipodi:namedview
     pagecolor="#ffffff"
     bordercolor="#666666"
     borderopacity="1"
     objecttolerance="10"
     gridtolerance="10"
     guidetolerance="10"
     inkscape:pageopacity="0"
     inkscape:pageshadow="2"
     inkscape:window-width="1458"
     inkscape:window-height="1052"
     id="namedview8"
     showgrid="false"
     showguides="false"
     inkscape:zoom="27.066667"
     inkscape:cx="15"
     inkscape:cy="15"
     inkscape:window-x="240"
     inkscape:window-y="230"
     inkscape:window-maximized="0"
     inkscape:current-layer="g4491" />
  <g
     id="g4491"
     transform="matrix(0.67631637,0,0,0.67631637,-117.85536,160.61048)"
     style="stroke-width:1.478598">
    <rect
       ry="2.9571958"
       style="fill:none;stroke:#000000;stroke-width:2.957196;stroke-miterlimit:4;stroke-dasharray:none;stroke-opacity:1"
       id="rect2"
       y="-233.04253"
       x="178.69649"
       width="35.486351"
       rx="2.9571958"
       height="35.486351" />
    <path
       inkscape:connector-curvature="0"
       d="m 185.35018,-228.60679 c -1.20293,0 -2.2179,1.01498 -2.2179,2.2179 v 2.2179 c 0,1.24051 1.0837,2.2179 2.2179,2.2179 v -4.4358 h 22.17896 v 4.4358 c 1.1342,0 2.2179,-1.07726 2.2179,-2.2179 v -2.2179 c 0,-1.20292 -1.09015,-2.2179 -2.2179,-2.2179 z m 14.4163,26.58767 -12.1984,0.0272 v -22.17896 l 12.14915,-0.027 -6.62905,11.10423 z m 5.54476,0.0272 -2.21793,-0.0345 -6.6783,-11.07469 6.62906,-11.10423 2.26717,0.0345 z"
       id="path4258"
       style="stroke-width:2.18625188" />
  </g>
</svg>
