<?xml version="1.0" encoding="UTF-8" standalone="no"?>
<svg
   viewBox="0 0 30 30"
   version="1.1"
   id="svg6"
   width="30"
   height="30"
   xmlns="http://www.w3.org/2000/svg"
   xmlns:svg="http://www.w3.org/2000/svg"
   xmlns:rdf="http://www.w3.org/1999/02/22-rdf-syntax-ns#"
   xmlns:cc="http://creativecommons.org/ns#"
   xmlns:dc="http://purl.org/dc/elements/1.1/">
  <metadata
     id="metadata12">
    <rdf:RDF>
      <cc:Work
         rdf:about="">
        <dc:format>image/svg+xml</dc:format>
        <dc:type
           rdf:resource="http://purl.org/dc/dcmitype/StillImage" />
      </cc:Work>
    </rdf:RDF>
  </metadata>
  <defs
     id="defs10" />
  <g
     id="g4491"
     transform="matrix(0.67631637,0,0,0.67631637,-117.85536,160.61048)"
     style="stroke-width:1.478598">
    <rect
       ry="2.9571958"
       style="fill:none;stroke:#000000;stroke-width:2.957196;stroke-miterlimit:4;stroke-dasharray:none;stroke-opacity:1"
       id="rect2"
       y="-233.04253"
       x="178.69649"
       width="35.486351"
       rx="2.9571958"
       height="35.486351" />
    <path
       d="m 198.10308,-223.61647 c 0,-0.92007 0.74334,-1.66342 1.66343,-1.66342 0.92007,0 1.66342,0.74335 1.66342,1.66342 0,0.92008 0.74334,1.66342 1.66342,1.66342 0.92009,0 1.66342,-0.74334 1.66342,-1.66342 0,-2.75504 -2.23522,-4.99027 -4.99026,-4.99027 -2.75505,0 -4.99028,2.23523 -4.99028,4.99027 v 9.98054 h -3.32684 v -1.24756 c 0,-1.60624 -1.30474,-2.911 -2.91099,-2.911 h -2.49513 c -0.69137,0 -1.24757,0.55621 -1.24757,1.24757 0,0.69136 0.5562,1.24757 1.24757,1.24757 h 2.49513 c 0.22872,0 0.41586,0.18714 0.41586,0.41586 v 1.24756 h -4.15856 c -0.92009,0 -1.66342,0.74334 -1.66342,1.66343 0,0.92008 0.74333,1.66342 1.66342,1.66342 h 11.64396 11.64396 c 0.92008,0 1.66342,-0.74334 1.66342,-1.66342 0,-0.92009 -0.74334,-1.66343 -1.66342,-1.66343 h -4.15856 v -1.24756 c 0,-0.22872 0.18714,-0.41586 0.41586,-0.41586 h 2.91099 c 0.69136,0 1.24756,-0.55621 1.24756,-1.24757 0,-0.69136 -0.5562,-1.24757 -1.24756,-1.24757 h -2.91099 c -1.60625,0 -2.91099,1.30476 -2.91099,2.911 v 1.24756 h -3.32685 z m 9.98054,16.63423 v -1.66342 H 184.7957 v 1.66342 c 0,2.75505 2.23522,4.99027 4.99027,4.99027 h 13.30738 c 2.75505,0 4.99027,-2.23522 4.99027,-4.99027 z"
       id="path889"
       style="stroke-width:2.18625" />
  </g>
</svg>
