<?xml version="1.0" encoding="UTF-8" standalone="no"?>
<svg
   xmlns:dc="http://purl.org/dc/elements/1.1/"
   xmlns:cc="http://creativecommons.org/ns#"
   xmlns:rdf="http://www.w3.org/1999/02/22-rdf-syntax-ns#"
   xmlns:svg="http://www.w3.org/2000/svg"
   xmlns="http://www.w3.org/2000/svg"
   height="30"
   width="30"
   id="svg6"
   version="1.1"
   viewBox="0 0 30 30">
  <metadata
     id="metadata12">
    <rdf:RDF>
      <cc:Work
         rdf:about="">
        <dc:format>image/svg+xml</dc:format>
        <dc:type
           rdf:resource="http://purl.org/dc/dcmitype/StillImage" />
        <dc:title></dc:title>
      </cc:Work>
    </rdf:RDF>
  </metadata>
  <defs
     id="defs10" />
  <g
     style="stroke-width:1.478598"
     transform="matrix(0.67631637,0,0,0.67631637,-117.85536,160.61048)"
     id="g4491">
    <rect
       height="35.486351"
       rx="2.9571958"
       width="35.486351"
       x="178.69649"
       y="-233.04253"
       id="rect2"
       style="fill:none;stroke:#000000;stroke-width:2.957196;stroke-miterlimit:4;stroke-dasharray:none;stroke-opacity:1"
       ry="2.9571958" />
    <path
       id="path3819"
       d="m 198.23605,-228.60694 c -1.43051,0 -2.61354,1.14554 -2.61354,2.56092 0,1.41538 1.18303,2.56092 2.61354,2.56092 1.4305,0 2.61353,-1.14554 2.61353,-2.56092 0,-1.41538 -1.18303,-2.56092 -2.61353,-2.56092 z m -0.18679,6.20348 a 1.0969377,1.0969377 0 0 0 -0.4262,0.0729 l -6.24294,2.40608 a 1.0969377,1.0969377 0 0 0 -0.60659,0.5878 l -1.23762,-0.75317 c 0.13999,-0.54633 0.1158,-0.99439 -0.0357,-1.33495 -0.15915,-0.35776 -0.44282,-0.59957 -0.75881,-0.74264 -0.31599,-0.14308 -0.66475,-0.19063 -0.97077,-0.16274 -0.30602,0.0279 -0.57375,0.12657 -0.72122,0.31156 -0.15527,0.19473 -0.19789,0.47495 -0.15673,0.76858 0.0412,0.29363 0.1681,0.60521 0.37659,0.86968 0.40897,0.51878 1.15154,0.8356 2.11593,0.4431 l 1.32707,0.79038 a 1.0969377,1.0969377 0 0 0 1.42966,1.27933 l 5.36124,-1.90735 0.24354,5.88929 -3.28702,3.16977 a 1.0969377,1.0969377 0 0 0 -0.23227,0.32471 l -2.34106,5.00759 a 1.0969377,1.0969377 0 1 0 1.98703,0.92906 l 2.25537,-4.82343 3.36256,-3.24268 1.19891,0.0376 4.01464,3.03936 2.42562,6.71799 a 1.0969377,1.0969377 0 1 0 2.06331,-0.74527 l -2.53611,-7.02355 a 1.0969377,1.0969377 0 0 0 -0.36945,-0.50174 l -4.48254,-3.39338 c -0.0276,-0.50239 -0.0786,-1.42683 -0.1571,-2.87963 -0.0488,-0.90195 -0.0973,-1.81188 -0.1338,-2.51168 -0.006,-0.12137 -0.01,-0.19235 -0.0154,-0.29992 0.27905,-0.006 0.4054,-0.003 0.57051,0 l 5.86072,4.44121 0.0199,0.0158 0.005,0.003 a 1.0969377,1.0969377 0 0 0 1.32932,-1.74461 l -0.005,-0.003 -6.1084,-4.67911 a 1.0969377,1.0969377 0 0 0 -0.63515,-0.2255 l -3.7944,-0.11012 a 1.0969377,1.0969377 0 0 0 -0.34539,-0.01 z m -3.83913,5.61005 c -0.25588,0 -0.46716,0.20496 -0.46716,0.45814 0,0.25317 0.21128,0.45776 0.46716,0.45776 0.25589,0 0.46791,-0.20459 0.46791,-0.45776 0,-0.25318 -0.21202,-0.45814 -0.46791,-0.45814 z"
       style="color:#000000;font-style:normal;font-variant:normal;font-weight:normal;font-stretch:normal;font-size:medium;line-height:normal;font-family:sans-serif;font-variant-ligatures:normal;font-variant-position:normal;font-variant-caps:normal;font-variant-numeric:normal;font-variant-alternates:normal;font-feature-settings:normal;text-indent:0;text-align:start;text-decoration:none;text-decoration-line:none;text-decoration-style:solid;text-decoration-color:#000000;letter-spacing:normal;word-spacing:normal;text-transform:none;writing-mode:lr-tb;direction:ltr;text-orientation:mixed;dominant-baseline:auto;baseline-shift:baseline;text-anchor:start;white-space:normal;shape-padding:0;clip-rule:nonzero;display:inline;overflow:visible;visibility:visible;opacity:1;isolation:auto;mix-blend-mode:normal;color-interpolation:sRGB;color-interpolation-filters:linearRGB;solid-color:#000000;solid-opacity:1;vector-effect:none;fill:#000000;fill-opacity:1;fill-rule:nonzero;stroke:none;stroke-width:1.01813543;stroke-linecap:round;stroke-linejoin:round;stroke-miterlimit:4;stroke-dasharray:none;stroke-dashoffset:0;stroke-opacity:1;color-rendering:auto;image-rendering:auto;shape-rendering:auto;text-rendering:auto;enable-background:accumulate" />
    <path
       id="path4546"
       d="m 193.09967,-213.82076 -13.24142,0.10561"
       style="fill:none;fill-rule:evenodd;stroke:#000000;stroke-width:1.89858758;stroke-linecap:round;stroke-linejoin:miter;stroke-miterlimit:4;stroke-dasharray:none;stroke-opacity:1" />
  </g>
</svg>
