<?xml version="1.0" encoding="UTF-8" standalone="no"?>
<svg
   xmlns:dc="http://purl.org/dc/elements/1.1/"
   xmlns:cc="http://creativecommons.org/ns#"
   xmlns:rdf="http://www.w3.org/1999/02/22-rdf-syntax-ns#"
   xmlns:svg="http://www.w3.org/2000/svg"
   xmlns="http://www.w3.org/2000/svg"
   height="30"
   width="30"
   id="svg6"
   version="1.1"
   viewBox="0 0 30 30">
  <metadata
     id="metadata12">
    <rdf:RDF>
      <cc:Work
         rdf:about="">
        <dc:format>image/svg+xml</dc:format>
        <dc:type
           rdf:resource="http://purl.org/dc/dcmitype/StillImage" />
        <dc:title></dc:title>
      </cc:Work>
    </rdf:RDF>
  </metadata>
  <defs
     id="defs10" />
  <g
     style="stroke-width:1.478598"
     transform="matrix(0.67631637,0,0,0.67631637,-117.85536,160.61048)"
     id="g4491">
    <rect
       height="35.486351"
       rx="2.9571958"
       width="35.486351"
       x="178.69649"
       y="-233.04253"
       id="rect2"
       style="fill:none;stroke:#000000;stroke-width:2.957196;stroke-miterlimit:4;stroke-dasharray:none;stroke-opacity:1"
       ry="2.9571958" />
    <g
       id="layer1"
       transform="matrix(0.06632963,0,0,0.06632963,182.51044,-227.23869)">
      <g
         id="g1892"
         transform="translate(2.930158,-2.251167)">
        <path
           id="path1882"
           style="fill:#000000;fill-opacity:1;fill-rule:evenodd;stroke:none;stroke-width:1px;stroke-linecap:butt;stroke-linejoin:miter;stroke-opacity:1"
           d="m 52.413594,38.866939 0.5,23.75 -46.4687498,52.531251 11.6249998,12.125 53.03125,-11.125 23.21875,39.90625 c -10.19625,24.39508 -1.45315,35.55975 4.0625,52.03125 l -57.59375,36.34375 v 80.3125 l 20.71875,-11.125 -0.5,-54.53125 47.968746,-26.28125 44.9375,102.03125 -3.9375,20.37503 20.625,0.3437 3.03125,-20.21873 -35.875,-104.03125 c 34.15614,9.64976 68.62547,11.43405 103.5625,0 l 33.8125,60.09375 -34.40625,63.71873 23.8125,0.5313 35.875,-66.25003 -7.59375,-50.53125 52.53125,41.4375 -11.625,70.18748 23.25,-6.06248 11.09375,-71.71875 -29.78125,-51 c 4.24708,-25.99813 -1.2403,-45.73275 -12.3125,-59.125 l 10.59375,-9.1875 c 17.82138,-6.1883 28.6233,0.32116 34.84375,15.125 l 6,36.71875 30.28125,-15.5625 -8.09375,-29.21875 c -10.02521,-26.21643 -40.11224,-44.06318 -73.8125,-20.125 0,0 -10.70234,10.90232 -11.96875,11.375 -17.86218,-11.73842 -42.45296,-13.4123 -65.59375,-4.84375 l -4.0625,0.0312 c 7.2997,-3.73313 7.70713,-13.16086 5.21875,-20.15625 L 213.53859,64.616939 c -13.74307,-16.06692 -46.65874,-1.31884 -40.40625,22.25 l 4.6875,8.6875 -31.625,14.875001 C 130.20815,82.201549 113.44726,54.451059 68.569844,54.523189 Z m 134.812496,74.718751 11.75,19.71875 -27.96875,13.90625 h -0.40625 c -4.97704,-5.38296 -9.29518,-11.43524 -13.3125,-17.8125 z" />
        <path
           id="path1884"
           style="opacity:1;fill:#000000;fill-opacity:1;fill-rule:nonzero;stroke:none;stroke-width:2;stroke-linecap:round;stroke-linejoin:round;stroke-miterlimit:4;stroke-dasharray:none;stroke-dashoffset:0;stroke-opacity:1"
           transform="translate(-40.44356,-589.0438)"
           d="m 241.42858,621.29077 a 23.39286,23.39286 0 1 1 -46.78572,0 23.39286,23.39286 0 1 1 46.78572,0 z" />
      </g>
    </g>
  </g>
</svg>
