<?xml version="1.0" encoding="UTF-8" standalone="no"?>
<svg
   xmlns:dc="http://purl.org/dc/elements/1.1/"
   xmlns:cc="http://creativecommons.org/ns#"
   xmlns:rdf="http://www.w3.org/1999/02/22-rdf-syntax-ns#"
   xmlns:svg="http://www.w3.org/2000/svg"
   xmlns="http://www.w3.org/2000/svg"
   height="30"
   width="30"
   id="svg6"
   version="1.1"
   viewBox="0 0 30 30">
  <metadata
     id="metadata12">
    <rdf:RDF>
      <cc:Work
         rdf:about="">
        <dc:format>image/svg+xml</dc:format>
        <dc:type
           rdf:resource="http://purl.org/dc/dcmitype/StillImage" />
        <dc:title></dc:title>
      </cc:Work>
    </rdf:RDF>
  </metadata>
  <defs
     id="defs10" />
  <g
     style="stroke-width:1.478598"
     transform="matrix(0.67631637,0,0,0.67631637,-117.85536,160.61048)"
     id="g4491">
    <rect
       height="35.486351"
       rx="2.9571958"
       width="35.486351"
       x="178.69649"
       y="-233.04253"
       id="rect2"
       style="fill:none;stroke:#000000;stroke-width:2.957196;stroke-miterlimit:4;stroke-dasharray:none;stroke-opacity:1"
       ry="2.9571958" />
    <g
       transform="matrix(0.14099039,0,0,0.14099039,163.47229,-188.10102)"
       id="g4720">
      <ellipse
         ry="13.723613"
         rx="14.0755"
         cy="-251.63443"
         cx="262.47281"
         id="path3771"
         style="fill:#000000;stroke:#000000;stroke-width:6.80972672;stroke-linecap:round;stroke-linejoin:round" />
      <ellipse
         ry="7.6994195"
         rx="7.8968406"
         cy="-199.59567"
         cx="314.31793"
         id="path3777"
         style="fill:#000000;stroke:#000000;stroke-width:3.82049131;stroke-linecap:round;stroke-linejoin:round" />
      <path
         id="path3847"
         style="fill:none;stroke:#000000;stroke-width:16.85601616;stroke-linecap:round;stroke-linejoin:round"
         d="m 202.03407,-227.93064 7.08839,22.59446 31.01212,-17.721 -3.10121,55.82003 -38.9862,19.05026 11.07544,36.77125" />
      <path
         id="path3849"
         style="fill:none;stroke:#000000;stroke-width:16.85601616;stroke-linecap:round;stroke-linejoin:round"
         d="m 312.78105,-106.98724 c -4.43018,-1.32905 -68.66757,-61.57917 -68.66757,-61.57917 l 3.31768,0.94941 1.77713,-36.16947 14.39814,-12.18305 -23.03655,-7.08825 -31.23243,16.61352" />
      <path
         id="path3851"
         style="fill:#000000;stroke:#000000;stroke-width:1.478598px"
         d="m 200.25975,-228.37274 -46.07312,-55.37793 c -6.36359,-7.64849 -12.95044,2.30602 -8.41736,6.64526 l 51.83373,49.61879 z" />
    </g>
  </g>
</svg>
