<?xml version="1.0" encoding="UTF-8" standalone="no"?>
<svg
   xmlns:dc="http://purl.org/dc/elements/1.1/"
   xmlns:cc="http://creativecommons.org/ns#"
   xmlns:rdf="http://www.w3.org/1999/02/22-rdf-syntax-ns#"
   xmlns:svg="http://www.w3.org/2000/svg"
   xmlns="http://www.w3.org/2000/svg"
   xmlns:sodipodi="http://sodipodi.sourceforge.net/DTD/sodipodi-0.dtd"
   xmlns:inkscape="http://www.inkscape.org/namespaces/inkscape"
   viewBox="0 0 30 30"
   version="1.1"
   id="svg6"
   sodipodi:docname="sport-tennis.svg"
   width="30"
   height="30"
   inkscape:version="0.92.1 r15371">
  <metadata
     id="metadata12">
    <rdf:RDF>
      <cc:Work
         rdf:about="">
        <dc:format>image/svg+xml</dc:format>
        <dc:type
           rdf:resource="http://purl.org/dc/dcmitype/StillImage" />
        <dc:title></dc:title>
      </cc:Work>
    </rdf:RDF>
  </metadata>
  <defs
     id="defs10" />
  <sodipodi:namedview
     pagecolor="#ffffff"
     bordercolor="#666666"
     borderopacity="1"
     objecttolerance="10"
     gridtolerance="10"
     guidetolerance="10"
     inkscape:pageopacity="0"
     inkscape:pageshadow="2"
     inkscape:window-width="1458"
     inkscape:window-height="1052"
     id="namedview8"
     showgrid="false"
     showguides="false"
     inkscape:zoom="28"
     inkscape:cx="15"
     inkscape:cy="15"
     inkscape:window-x="170"
     inkscape:window-y="100"
     inkscape:window-maximized="0"
     inkscape:current-layer="g4491" />
  <g
     id="g4491"
     transform="matrix(0.67631637,0,0,0.67631637,-117.85536,160.61048)"
     style="stroke-width:1.478598">
    <rect
       ry="2.9571958"
       style="fill:none;stroke:#000000;stroke-width:2.957196;stroke-miterlimit:4;stroke-dasharray:none;stroke-opacity:1"
       id="rect2"
       y="-233.04253"
       x="178.69649"
       width="35.486351"
       rx="2.9571958"
       height="35.486351" />
    <g
       transform="matrix(0.1940225,0,0,0.1940225,46.718942,-408.44799)"
       id="g5275">
      <path
         inkscape:connector-curvature="0"
         id="path71"
         d="m 804.64,942.96 v 1.12 l -0.48,2.24 -0.88,2.08 -1.28,1.76 -1.6,1.6 -1.84,1.2 -2.08,0.88 -2.32,0.48 h -1.2 -1.2 l -2.24,-0.48 -2.08,-0.88 -1.92,-1.2 -1.52,-1.6 -1.28,-1.76 -0.88,-2.08 -0.48,-2.24 v -1.12 -1.2 l 0.48,-2.16 0.88,-2.08 1.28,-1.84 1.52,-1.52 1.92,-1.2 2.08,-0.88 2.24,-0.48 h 1.2 1.2 l 2.32,0.48 2.08,0.88 1.84,1.2 1.6,1.52 1.28,1.84 0.88,2.08 0.48,2.16 z"
         style="fill:#000000;fill-opacity:1;fill-rule:nonzero;stroke:#000000;stroke-width:5.67999983px;stroke-linecap:round;stroke-linejoin:round;stroke-miterlimit:4;stroke-dasharray:none;stroke-opacity:1" />
      <path
         inkscape:connector-curvature="0"
         id="path229"
         d="m 749.12,982.88 27.76,-15.12 h 29.2 l 28.16,22.64 -28.16,-22.64 h -9.68 l 0.72,37.44 21.2,15.92 13.04,34.24 -13.76,-33.92 -21.6,-16.24 -0.32,-36 -9.44,-0.4 0.4,37.52 -33.2,49.76"
         style="fill:none;stroke:#000000;stroke-width:12.15999985px;stroke-linecap:round;stroke-linejoin:round;stroke-miterlimit:4;stroke-dasharray:none;stroke-opacity:1" />
      <path
         inkscape:connector-curvature="0"
         id="path231"
         d="m 745.92,980.72 -17.36,-15.84 0.88,-2.08 0.96,-3.84 0.16,-3.44 -0.4,-3.12 -0.96,-2.72 -1.44,-2.48 -2.8,-3.12 -4.56,-2.88 -4.8,-1.76 -4.32,-0.48 -2.48,0.4 -1.12,0.56 -0.32,0.4 -0.88,1.2 -1.12,2.56 -0.64,2.48 -0.16,2.56 0.32,2.56 0.72,2.48 1.68,3.44 3.52,4 4.48,2.88 3.92,1.12 2.72,0.32 2.8,-0.16 2.8,-0.72 1.44,-0.56 z"
         style="fill:#000000;fill-opacity:1;fill-rule:nonzero;stroke:#000000;stroke-width:2.96000004px;stroke-linecap:round;stroke-linejoin:round;stroke-miterlimit:4;stroke-dasharray:none;stroke-opacity:1" />
      <path
         inkscape:connector-curvature="0"
         id="path233"
         d="m 837.04,1005.92 -0.08,0.8 -0.64,1.52 -1.2,1.12 -1.52,0.64 h -0.88 -0.8 l -1.6,-0.64 -1.12,-1.12 -0.64,-1.52 -0.08,-0.8 0.08,-0.88 0.64,-1.52 1.12,-1.12 1.6,-0.64 h 0.8 0.88 l 1.52,0.64 1.2,1.12 0.64,1.52 z"
         style="fill:#000000;fill-opacity:1;fill-rule:nonzero;stroke:#000000;stroke-width:2.07999992px;stroke-linecap:round;stroke-linejoin:round;stroke-miterlimit:4;stroke-dasharray:none;stroke-opacity:1" />
    </g>
  </g>
</svg>
