<?xml version="1.0" encoding="UTF-8" standalone="no"?>
<svg
   xmlns:dc="http://purl.org/dc/elements/1.1/"
   xmlns:cc="http://creativecommons.org/ns#"
   xmlns:rdf="http://www.w3.org/1999/02/22-rdf-syntax-ns#"
   xmlns:svg="http://www.w3.org/2000/svg"
   xmlns="http://www.w3.org/2000/svg"
   xmlns:sodipodi="http://sodipodi.sourceforge.net/DTD/sodipodi-0.dtd"
   xmlns:inkscape="http://www.inkscape.org/namespaces/inkscape"
   viewBox="0 0 30 30"
   version="1.1"
   id="svg6"
   sodipodi:docname="sport-golf.svg"
   width="30"
   height="30"
   inkscape:version="0.92.1 r15371">
  <metadata
     id="metadata12">
    <rdf:RDF>
      <cc:Work
         rdf:about="">
        <dc:format>image/svg+xml</dc:format>
        <dc:type
           rdf:resource="http://purl.org/dc/dcmitype/StillImage" />
        <dc:title></dc:title>
      </cc:Work>
    </rdf:RDF>
  </metadata>
  <defs
     id="defs10" />
  <sodipodi:namedview
     pagecolor="#ffffff"
     bordercolor="#666666"
     borderopacity="1"
     objecttolerance="10"
     gridtolerance="10"
     guidetolerance="10"
     inkscape:pageopacity="0"
     inkscape:pageshadow="2"
     inkscape:window-width="1458"
     inkscape:window-height="1052"
     id="namedview8"
     showgrid="false"
     showguides="false"
     inkscape:zoom="33.1"
     inkscape:cx="15"
     inkscape:cy="15"
     inkscape:window-x="128"
     inkscape:window-y="74"
     inkscape:window-maximized="0"
     inkscape:current-layer="g4491" />
  <g
     id="g4491"
     transform="matrix(0.67631637,0,0,0.67631637,-117.85536,160.61048)"
     style="stroke-width:1.478598">
    <rect
       ry="2.9571958"
       style="fill:none;stroke:#000000;stroke-width:2.957196;stroke-miterlimit:4;stroke-dasharray:none;stroke-opacity:1"
       id="rect2"
       y="-233.04253"
       x="178.69649"
       width="35.486351"
       rx="2.9571958"
       height="35.486351" />
    <path
       inkscape:connector-curvature="0"
       style="color:#000000;font-style:normal;font-variant:normal;font-weight:normal;font-stretch:normal;font-size:medium;line-height:normal;font-family:sans-serif;font-variant-ligatures:normal;font-variant-position:normal;font-variant-caps:normal;font-variant-numeric:normal;font-variant-alternates:normal;font-feature-settings:normal;text-indent:0;text-align:start;text-decoration:none;text-decoration-line:none;text-decoration-style:solid;text-decoration-color:#000000;letter-spacing:normal;word-spacing:normal;text-transform:none;writing-mode:lr-tb;direction:ltr;text-orientation:mixed;dominant-baseline:auto;baseline-shift:baseline;text-anchor:start;white-space:normal;shape-padding:0;clip-rule:nonzero;display:inline;overflow:visible;visibility:visible;opacity:1;isolation:auto;mix-blend-mode:normal;color-interpolation:sRGB;color-interpolation-filters:linearRGB;solid-color:#000000;solid-opacity:1;vector-effect:none;fill:#000000;fill-opacity:1;fill-rule:nonzero;stroke:none;stroke-width:1.09214997;stroke-linecap:square;stroke-linejoin:miter;stroke-miterlimit:4;stroke-dasharray:none;stroke-dashoffset:0;stroke-opacity:1;color-rendering:auto;image-rendering:auto;shape-rendering:auto;text-rendering:auto;enable-background:accumulate"
       d="m 196.82802,-228.60674 -1.06107,1.54588 c -0.26274,0.36389 -0.20196,0.6771 0.18227,0.9398 0.36324,0.22204 0.67625,0.16136 0.93898,-0.18217 l 0.60681,-0.90935 9.45722,6.21472 -7.72915,1.39406 c -0.28309,0.0605 -0.51052,0.20692 -0.68227,0.4394 -0.17176,0.23252 -0.21715,0.48015 -0.13635,0.74286 l 1.66697,6.51727 -5.45619,8.15459 c -0.10114,0.18132 -0.15173,0.37316 -0.15173,0.57545 0,0.32316 0.11626,0.60097 0.34878,0.83348 0.2325,0.2325 0.51031,0.34877 0.83348,0.34877 0.4243,0 0.7679,-0.20194 1.03063,-0.60589 l 5.69844,-8.57934 0.30346,1.18236 -0.84825,6.42653 c -0.0408,0.32316 0.0299,0.61117 0.2118,0.86404 0.18192,0.25284 0.43445,0.4095 0.75762,0.46994 0.32377,0.0605 0.62198,-0.006 0.89459,-0.19704 0.27257,-0.19181 0.42922,-0.44963 0.46994,-0.7734 l 0.87881,-6.57734 c 0.0203,-0.22264 3.5e-4,-0.45517 -0.0601,-0.69755 l -1.94089,-7.72996 5.06302,-0.90935 c 0.26271,-0.0401 0.47484,-0.17643 0.63645,-0.40895 0.16156,-0.23249 0.22203,-0.48012 0.18136,-0.74286 -0.0605,-0.26271 -0.21192,-0.48504 -0.45428,-0.66698 z m -12.88361,0.60894 v 0.54602 24.9206 h 1.70699 v -18.2396 l 8.43494,-3.43373 -8.43494,-3.13882 v -0.65447 z m 14.91422,3.8768 c -0.5452,2e-5 -1.00986,0.18706 -1.39406,0.56108 -0.38423,0.37407 -0.57638,0.83402 -0.57637,1.37981 -1e-5,0.5452 0.19214,1.00476 0.57637,1.37879 0.3842,0.37405 0.84886,0.5611 1.39406,0.56108 0.54578,2e-5 1.01574,-0.18703 1.40984,-0.56108 0.39408,-0.37403 0.59111,-0.83359 0.59113,-1.37879 -2e-5,-0.54579 -0.19705,-1.00574 -0.59113,-1.37981 -0.3941,-0.37402 -0.86406,-0.56106 -1.40984,-0.56108 z"
       id="rect2996" />
  </g>
</svg>
