<?xml version="1.0" encoding="UTF-8" standalone="no"?>
<svg
   xmlns:i="http://ns.adobe.com/AdobeIllustrator/10.0/"
   xmlns:dc="http://purl.org/dc/elements/1.1/"
   xmlns:cc="http://creativecommons.org/ns#"
   xmlns:rdf="http://www.w3.org/1999/02/22-rdf-syntax-ns#"
   xmlns:svg="http://www.w3.org/2000/svg"
   xmlns="http://www.w3.org/2000/svg"
   xmlns:sodipodi="http://sodipodi.sourceforge.net/DTD/sodipodi-0.dtd"
   xmlns:inkscape="http://www.inkscape.org/namespaces/inkscape"
   viewBox="0 0 30 30"
   version="1.1"
   id="svg6"
   sodipodi:docname="swimming_pool.svg"
   width="30"
   height="30"
   inkscape:version="0.92.1 r15371">
  <metadata
     id="metadata12">
    <rdf:RDF>
      <cc:Work
         rdf:about="">
        <dc:format>image/svg+xml</dc:format>
        <dc:type
           rdf:resource="http://purl.org/dc/dcmitype/StillImage" />
        <dc:title></dc:title>
      </cc:Work>
    </rdf:RDF>
  </metadata>
  <defs
     id="defs10" />
  <sodipodi:namedview
     pagecolor="#ffffff"
     bordercolor="#666666"
     borderopacity="1"
     objecttolerance="10"
     gridtolerance="10"
     guidetolerance="10"
     inkscape:pageopacity="0"
     inkscape:pageshadow="2"
     inkscape:window-width="1458"
     inkscape:window-height="1052"
     id="namedview8"
     showgrid="false"
     showguides="false"
     inkscape:zoom="18.420787"
     inkscape:cx="21.341239"
     inkscape:cy="21.591992"
     inkscape:window-x="390"
     inkscape:window-y="60"
     inkscape:window-maximized="0"
     inkscape:current-layer="g4491" />
  <g
     id="g4491"
     transform="matrix(0.67631637,0,0,0.67631637,-117.85536,160.61048)"
     style="stroke-width:1.478598">
    <rect
       ry="2.9571958"
       style="fill:none;stroke:#000000;stroke-width:2.957196;stroke-miterlimit:4;stroke-dasharray:none;stroke-opacity:1"
       id="rect2"
       y="-233.04253"
       x="178.69649"
       width="35.486351"
       rx="2.9571958"
       height="35.486351" />
    <path
       inkscape:connector-curvature="0"
       d="m 211.18789,-213.26593 c -0.25573,0.0781 -0.58599,0.0631 -1.01921,-0.0295 -0.44029,-0.10022 -0.84163,-0.5674 -1.57315,-0.54156 -0.74931,0.026 -1.80763,0.69723 -2.83022,0.69723 -1.03707,-0.022 -2.20181,-0.72693 -3.26005,-0.72693 -1.0547,0.007 -2.01353,0.73796 -3.02557,0.76026 -1.02983,0.004 -2.05611,-0.68226 -3.06461,-0.69707 -1.02275,-0.0259 -1.9922,0.60828 -2.9475,0.60072 -0.94104,-0.0184 -1.77559,-0.69353 -2.70955,-0.66391 -0.95884,0.0373 -2.00999,0.77885 -2.9475,0.82336 -0.94458,0.0149 -1.80047,-0.68966 -2.63494,-0.69723 -0.84155,-0.0148 -1.78622,0.51548 -2.35442,0.63421 -0.5682,0.1077 -0.92688,0.1188 -1.06178,0.0334 v 1.96556 c 0.1349,0.0852 0.49358,0.0742 1.06178,-0.0334 0.5682,-0.11873 1.51279,-0.64902 2.35442,-0.63421 0.83456,0.007 1.69036,0.71204 2.63494,0.69707 0.93751,-0.037 1.98866,-0.79728 2.9475,-0.82328 0.93396,-0.037 1.76843,0.65272 2.70955,0.66753 0.9553,0.008 1.92475,-0.62286 2.9475,-0.60434 1.0085,0.0147 2.03478,0.70069 3.06461,0.69715 1.01204,-0.0223 1.97087,-0.75294 3.02557,-0.76034 1.05824,-0.004 2.22298,0.71212 3.26005,0.7308 1.02259,0 2.08099,-0.67148 2.83022,-0.69732 0.73152,-0.0335 1.13286,0.44127 1.57315,0.5377 0.43322,0.0927 0.76348,0.10753 1.01921,0.0296 z"
       i:knockout="Off"
       id="path113"
       style="clip-rule:evenodd;fill:#000000;fill-opacity:1;fill-rule:evenodd;stroke-width:2.18625212" />
    <path
       inkscape:connector-curvature="0"
       d="m 194.35888,-214.31154 8.12497,-4.33519 c -0.63903,-1.40187 -1.09012,-2.45866 -1.35293,-3.21151 -0.26997,-0.74915 -0.38354,-0.91601 -0.23085,-1.27203 0.15624,-0.36713 -0.0604,-0.42275 1.12932,-0.90853 1.18953,-0.50437 4.7478,-1.95067 5.90899,-2.0211 1.1364,-0.0593 1.09028,1.19412 0.90209,1.61695 -0.20606,0.41156 -1.26431,0.51539 -2.06682,0.84179 -0.8133,0.31151 -1.70814,0.66005 -2.74151,1.04577 l 3.71797,8.18083 c -0.47934,0.41156 -1.11507,0.57118 -1.97441,0.50799 -0.8736,-0.0851 -2.03841,-0.91577 -3.12499,-0.91971 -1.08311,0.004 -2.31892,0.93098 -3.30963,0.94941 -0.99433,-0.004 -1.78268,-0.80469 -2.61369,-0.88615 -0.83439,-0.0819 -1.6192,0.0553 -2.36851,0.41148 z"
       i:knockout="Off"
       id="path115"
       style="clip-rule:evenodd;fill:#000000;fill-opacity:1;fill-rule:evenodd;stroke-width:2.18625212" />
    <path
       inkscape:connector-curvature="0"
       d="m 208.95654,-221.39058 c 1.25263,0 2.2691,1.06155 2.2691,2.36964 0,1.30809 -1.01655,2.36963 -2.2691,2.36963 -1.25255,0 -2.26918,-1.06154 -2.26918,-2.36963 0,-1.30809 1.01655,-2.36964 2.26918,-2.36964"
       i:knockout="Off"
       id="path117"
       style="clip-rule:evenodd;fill:#000000;fill-opacity:1;fill-rule:evenodd;stroke-width:2.18625212" />
    <path
       inkscape:connector-curvature="0"
       d="m 188.87594,-214.15216 c -0.96238,-0.17805 -1.94246,-0.45221 -3.00778,-0.82336 -1.07249,-0.39289 -2.9013,-0.91964 -3.33459,-1.43511 -0.43321,-0.53029 -0.1172,-1.59087 0.75647,-1.63908 0.87706,-0.0482 2.61716,0.73055 4.42471,1.37586 1.79684,0.63799 3.85296,1.43528 6.27845,2.43283 -0.2983,0.16316 -0.69248,0.21507 -1.19677,0.14086 -0.51137,-0.0854 -1.15765,-0.55637 -1.81463,-0.5711 -0.66053,-0.0112 -1.35301,0.16686 -2.10586,0.5191 z"
       i:knockout="Off"
       id="path119"
       style="clip-rule:evenodd;fill:#000000;fill-opacity:1;fill-rule:evenodd;stroke-width:2.18625212" />
    <path
       inkscape:connector-curvature="0"
       d="m 211.18789,-209.97634 c -0.25573,0.0703 -0.58599,0.0593 -1.01921,-0.0334 -0.44029,-0.0964 -0.84163,-0.57125 -1.57315,-0.53785 -0.74931,0.0259 -1.80763,0.69715 -2.83022,0.69715 -1.03707,-0.0221 -2.20181,-0.72677 -3.26005,-0.72677 -1.0547,0.007 -2.01353,0.73804 -3.02557,0.76017 -1.02983,0.004 -2.05611,-0.68225 -3.06461,-0.69715 -1.02275,-0.026 -1.9922,0.60821 -2.9475,0.6008 -0.94104,-0.0185 -1.77559,-0.69352 -2.70955,-0.66382 -0.95884,0.037 -2.00999,0.77869 -2.9475,0.82336 -0.94458,0.0147 -1.80047,-0.6899 -2.63494,-0.69731 -0.84155,-0.0147 -1.78622,0.51548 -2.35442,0.63421 -0.5682,0.1151 -0.92688,0.11124 -1.06178,0.0297 v 1.96548 c 0.1349,0.0815 0.49358,0.0854 1.06178,-0.0297 0.5682,-0.11881 1.51279,-0.64894 2.35442,-0.63421 0.83456,0.007 1.69036,0.71204 2.63494,0.69731 0.93751,-0.0447 1.98866,-0.78634 2.9475,-0.82336 0.93396,-0.0297 1.76843,0.64531 2.70955,0.66382 0.9553,0.007 1.92475,-0.6268 2.9475,-0.6008 1.0085,0.0149 2.03478,0.70094 3.06461,0.69715 1.01204,-0.0221 1.97087,-0.75293 3.02557,-0.76017 1.05824,0 2.22298,0.70463 3.26005,0.72677 1.02259,0 2.08099,-0.67123 2.83022,-0.69715 0.73152,-0.026 1.13286,0.44118 1.57315,0.54148 0.43322,0.0927 0.76348,0.10761 1.01921,0.0298 z"
       i:knockout="Off"
       id="path121"
       style="clip-rule:evenodd;fill:#000000;fill-opacity:1;fill-rule:evenodd;stroke-width:2.18625212" />
    <path
       inkscape:connector-curvature="0"
       d="m 211.08218,-206.75056 c -0.25573,0.0704 -0.58599,0.0593 -1.0192,-0.0334 -0.4403,-0.0964 -0.84164,-0.57126 -1.57316,-0.53786 -0.74931,0.0259 -1.80763,0.69715 -2.83022,0.69715 -1.03707,-0.0221 -2.2018,-0.72677 -3.26004,-0.72677 -1.0547,0.007 -2.01354,0.73804 -3.02558,0.76018 -1.02983,0.004 -2.05611,-0.68226 -3.06461,-0.69715 -1.02274,-0.026 -1.9922,0.6082 -2.94749,0.6008 -0.94105,-0.0185 -1.7756,-0.69353 -2.70956,-0.66383 -0.95883,0.037 -2.00999,0.77869 -2.94749,0.82337 -0.94459,0.0147 -1.80047,-0.68991 -2.63494,-0.69732 -0.84156,-0.0147 -1.78622,0.51548 -2.35443,0.63421 -0.5682,0.1151 -0.92687,0.11124 -1.06178,0.0297 v 1.96548 c 0.13491,0.0815 0.49358,0.0854 1.06178,-0.0297 0.56821,-0.11881 1.51279,-0.64894 2.35443,-0.63421 0.83455,0.007 1.69035,0.71205 2.63494,0.69731 0.9375,-0.0447 1.98866,-0.78633 2.94749,-0.82336 0.93396,-0.0297 1.76843,0.64531 2.70956,0.66383 0.95529,0.007 1.92475,-0.6268 2.94749,-0.6008 1.0085,0.0149 2.03478,0.70093 3.06461,0.69715 1.01204,-0.0221 1.97088,-0.75293 3.02558,-0.76018 1.05824,0 2.22297,0.70464 3.26004,0.72677 1.02259,0 2.08099,-0.67123 2.83022,-0.69715 0.73152,-0.026 1.13286,0.44119 1.57316,0.54148 0.43321,0.0927 0.76347,0.10762 1.0192,0.0298 z"
       i:knockout="Off"
       id="path4736"
       style="clip-rule:evenodd;fill:#000000;fill-opacity:1;fill-rule:evenodd;stroke-width:2.18625212" />
  </g>
</svg>
