<?xml version="1.0" encoding="UTF-8" standalone="no"?>
<svg
   xmlns:dc="http://purl.org/dc/elements/1.1/"
   xmlns:cc="http://creativecommons.org/ns#"
   xmlns:rdf="http://www.w3.org/1999/02/22-rdf-syntax-ns#"
   xmlns:svg="http://www.w3.org/2000/svg"
   xmlns="http://www.w3.org/2000/svg"
   xmlns:sodipodi="http://sodipodi.sourceforge.net/DTD/sodipodi-0.dtd"
   xmlns:inkscape="http://www.inkscape.org/namespaces/inkscape"
   viewBox="0 0 30 30"
   version="1.1"
   id="svg6"
   sodipodi:docname="telephone.svg"
   width="30"
   height="30"
   inkscape:version="0.92.1 r15371">
  <metadata
     id="metadata12">
    <rdf:RDF>
      <cc:Work
         rdf:about="">
        <dc:format>image/svg+xml</dc:format>
        <dc:type
           rdf:resource="http://purl.org/dc/dcmitype/StillImage" />
        <dc:title></dc:title>
      </cc:Work>
    </rdf:RDF>
  </metadata>
  <defs
     id="defs10" />
  <sodipodi:namedview
     pagecolor="#ffffff"
     bordercolor="#666666"
     borderopacity="1"
     objecttolerance="10"
     gridtolerance="10"
     guidetolerance="10"
     inkscape:pageopacity="0"
     inkscape:pageshadow="2"
     inkscape:window-width="1458"
     inkscape:window-height="1052"
     id="namedview8"
     showgrid="false"
     showguides="false"
     inkscape:zoom="27.066667"
     inkscape:cx="15"
     inkscape:cy="15"
     inkscape:window-x="240"
     inkscape:window-y="230"
     inkscape:window-maximized="0"
     inkscape:current-layer="g4491" />
  <g
     id="g4491"
     transform="matrix(0.67631637,0,0,0.67631637,-117.85536,160.61048)"
     style="stroke-width:1.478598">
    <rect
       ry="2.9571958"
       style="fill:none;stroke:#000000;stroke-width:2.957196;stroke-miterlimit:4;stroke-dasharray:none;stroke-opacity:1"
       id="rect2"
       y="-233.04253"
       x="178.69649"
       width="35.486351"
       rx="2.9571958"
       height="35.486351" />
    <path
       inkscape:connector-curvature="0"
       d="m 185.39605,-212.94412 c -2.2107,2.21071 -3.22139,5.75746 -1.00956,7.94853 l 1.00956,1.00008 6.71145,-6.71145 v -3.35573 l 5.59289,-5.59288 h 3.35571 l 6.71147,-6.71146 -1.14227,-1.09013 c -2.18242,-2.08281 -5.61223,-1.10398 -7.80633,1.09013 z m 1.21958,10.1512 0.75791,0.78947 c 0,0 1.90196,0.16982 2.88352,-0.79681 l 3.11792,-3.07046 c 0.85431,-0.8993 0.68751,-2.9185 0.68751,-2.9185 l -0.75792,-0.78947 z m 15.67773,-15.69859 0.75792,0.78945 c 0,0 1.94573,0.35245 2.82854,-0.51694 l 3.11791,-3.07046 c 0.88342,-0.86999 0.7207,-3.15075 0.7207,-3.15075 l -0.75792,-0.78947 z"
       id="telephone"
       style="stroke-width:2.18625188" />
  </g>
</svg>
