<?xml version="1.0" encoding="UTF-8" standalone="no"?>
<!-- Created with Inkscape (http://www.inkscape.org/) -->

<svg
   xmlns:dc="http://purl.org/dc/elements/1.1/"
   xmlns:cc="http://creativecommons.org/ns#"
   xmlns:rdf="http://www.w3.org/1999/02/22-rdf-syntax-ns#"
   xmlns:svg="http://www.w3.org/2000/svg"
   xmlns="http://www.w3.org/2000/svg"
   xmlns:sodipodi="http://sodipodi.sourceforge.net/DTD/sodipodi-0.dtd"
   xmlns:inkscape="http://www.inkscape.org/namespaces/inkscape"
   version="1.1"
   width="32"
   height="32"
   viewBox="0 0 30 30"
   id="svg2"
   inkscape:version="0.92.1 r15371"
   sodipodi:docname="l_backcountry.svg"
   inkscape:export-filename="/home/sven/osm/campsite-map/icons/marker-cc.svg.png"
   inkscape:export-xdpi="96"
   inkscape:export-ydpi="96">
  <metadata
     id="metadata10">
    <rdf:RDF>
      <cc:Work
         rdf:about="">
        <dc:format>image/svg+xml</dc:format>
        <dc:type
           rdf:resource="http://purl.org/dc/dcmitype/StillImage" />
        <dc:title></dc:title>
      </cc:Work>
    </rdf:RDF>
  </metadata>
  <defs
     id="defs8" />
  <sodipodi:namedview
     pagecolor="#ffffff"
     bordercolor="#666666"
     borderopacity="1"
     objecttolerance="10"
     gridtolerance="10"
     guidetolerance="10"
     inkscape:pageopacity="0"
     inkscape:pageshadow="2"
     inkscape:window-width="1686"
     inkscape:window-height="1108"
     id="namedview6"
     showgrid="false"
     inkscape:zoom="27.8125"
     inkscape:cx="16"
     inkscape:cy="16"
     inkscape:window-x="118"
     inkscape:window-y="17"
     inkscape:window-maximized="0"
     inkscape:current-layer="svg2"
     fit-margin-top="0"
     fit-margin-left="0"
     fit-margin-right="0"
     fit-margin-bottom="0" />
  <rect
     width="14"
     height="14"
     x="0"
     y="23.5"
     id="canvas"
     style="visibility:hidden;fill:none;stroke:none" />
  <path
     style="opacity:1;fill:#225500;fill-opacity:1;stroke:none;stroke-width:0;stroke-linecap:butt;stroke-linejoin:miter;stroke-miterlimit:4;stroke-dasharray:none;stroke-dashoffset:0;stroke-opacity:1"
     d="M 4.6875,0 C 2.090625,0 0,2.090625 0,4.6875 v 20.625 C 0,27.909375 2.090625,30 4.6875,30 h 20.625 C 27.909375,30 30,27.909375 30,25.3125 V 4.6875 C 30,2.090625 27.909375,0 25.3125,0 Z"
     id="rect5129"
     inkscape:connector-curvature="0"
     sodipodi:nodetypes="sssccssss" />
  <g
     id="g4554"
     transform="matrix(0.99109137,0,0,1.0091113,0.00835185,-2.7970999)"
     style="stroke-width:0.99993932" />
  <rect
     width="13.125"
     height="13.125"
     x="0.81637341"
     y="17.322683"
     id="canvas-5"
     style="visibility:hidden;fill:none;stroke:none;stroke-width:0.9375" />
  <g
     id="g5857"
     transform="matrix(1.1904762,0,0,1.1904762,-1.6532906,-2.5060205)"
     style="stroke-width:0.84000003">
    <path
       inkscape:connector-curvature="0"
       id="path2496"
       d="m 20.197522,5.9490886 -1.500886,4.5802934 h 0.750443 l -1.500887,4.580293 h 0.750444 L 16.45234,20.25177 h 3.369958 v 2.300881 h 0.750448 V 20.25177 h 3.250357 l 0.0094,-0.06794 -2.134075,-5.07411 h 0.750444 l -1.500886,-4.580296 h 0.750444 z"
       style="fill:#ffffff;fill-rule:evenodd;stroke:none;stroke-width:0.09216756px;stroke-linecap:butt;stroke-linejoin:miter;stroke-opacity:1" />
    <path
       style="fill:#ffffff;stroke-width:1.37700164"
       id="camping"
       d="m 17.270025,24.548807 -5.624999,-10.312501 0.9375,-2.812499 h -0.9375 l -0.9375,1.874999 -0.9375006,-1.874999 H 8.832525 L 9.7700254,14.236306 4.145025,24.548807 Z m -6.5625,-6.562501 2.812501,5.625002 H 7.8950252 Z"
       inkscape:connector-curvature="0" />
    <path
       inkscape:connector-curvature="0"
       id="path2496-6"
       d="m 15.632511,4.8613066 -0.808619,2.467679 h 0.404309 l -0.808619,2.46768 h 0.40431 l -1.209137,2.7703574 h 1.8156 v 1.239623 h 0.404311 v -1.239623 h 1.751163 l 0.0052,-0.03661 -1.149824,-2.7337284 h 0.40431 L 16.03683,7.3290036 h 0.404309 z"
       style="fill:#ffffff;fill-rule:evenodd;stroke:none;stroke-width:0.04965623px;stroke-linecap:butt;stroke-linejoin:miter;stroke-opacity:1" />
  </g>
</svg>
