<?xml version="1.0" encoding="UTF-8" standalone="no"?>
<!-- Created with Inkscape (http://www.inkscape.org/) -->

<svg
   xmlns:dc="http://purl.org/dc/elements/1.1/"
   xmlns:cc="http://creativecommons.org/ns#"
   xmlns:rdf="http://www.w3.org/1999/02/22-rdf-syntax-ns#"
   xmlns:svg="http://www.w3.org/2000/svg"
   xmlns="http://www.w3.org/2000/svg"
   xmlns:sodipodi="http://sodipodi.sourceforge.net/DTD/sodipodi-0.dtd"
   xmlns:inkscape="http://www.inkscape.org/namespaces/inkscape"
   version="1.1"
   width="32"
   height="32"
   viewBox="0 0 30 30"
   id="svg2"
   inkscape:version="0.92.1 r15371"
   sodipodi:docname="l_caravan.svg"
   inkscape:export-filename="/home/sven/osm/campsite-map/icons/marker-cc.svg.png"
   inkscape:export-xdpi="96"
   inkscape:export-ydpi="96">
  <metadata
     id="metadata10">
    <rdf:RDF>
      <cc:Work
         rdf:about="">
        <dc:format>image/svg+xml</dc:format>
        <dc:type
           rdf:resource="http://purl.org/dc/dcmitype/StillImage" />
        <dc:title />
      </cc:Work>
    </rdf:RDF>
  </metadata>
  <defs
     id="defs8" />
  <sodipodi:namedview
     pagecolor="#ffffff"
     bordercolor="#666666"
     borderopacity="1"
     objecttolerance="10"
     gridtolerance="10"
     guidetolerance="10"
     inkscape:pageopacity="0"
     inkscape:pageshadow="2"
     inkscape:window-width="1686"
     inkscape:window-height="1108"
     id="namedview6"
     showgrid="false"
     inkscape:zoom="17.476983"
     inkscape:cx="13.380259"
     inkscape:cy="16"
     inkscape:window-x="170"
     inkscape:window-y="63"
     inkscape:window-maximized="0"
     inkscape:current-layer="g4554"
     fit-margin-top="0"
     fit-margin-left="0"
     fit-margin-right="0"
     fit-margin-bottom="0" />
  <rect
     width="14"
     height="14"
     x="0"
     y="23.5"
     id="canvas"
     style="visibility:hidden;fill:none;stroke:none" />
  <path
     style="opacity:1;fill:#000080;fill-opacity:1;stroke:none;stroke-width:0;stroke-linecap:butt;stroke-linejoin:miter;stroke-miterlimit:4;stroke-dasharray:none;stroke-dashoffset:0;stroke-opacity:1"
     d="M 4.6875,0 C 2.090625,0 0,2.090625 0,4.6875 v 20.625 C 0,27.909375 2.090625,30 4.6875,30 h 20.625 C 27.909375,30 30,27.909375 30,25.3125 V 4.6875 C 30,2.090625 27.909375,0 25.3125,0 Z"
     id="rect5129"
     inkscape:connector-curvature="0"
     sodipodi:nodetypes="sssccssss" />
  <g
     id="g4554"
     transform="matrix(1.261389,0,0,1.2843235,0.69244804,-12.780195)"
     style="stroke-width:0.78566658">
    <path
       style="fill:#ffffff;fill-opacity:1;fill-rule:nonzero;stroke:none;stroke-width:0.92070299"
       d="m 3.520508,15.735108 c -0.1191908,0 -0.2347324,0.03339 -0.3332904,0.0978 L 1.0533388,17.19017 c -0.0744735,0.07409 -0.11583901,0.17539 -0.11583901,0.279437 v 0.459073 c 0,0.104668 0.0413655,0.205967 0.11583901,0.279438 l 0.5080666,0.496997 c 0.1124094,0.110401 0.2655972,0.173651 0.4247428,0.173651 h 5.3529857 v 0.393205 l -1.993651,0.349296 c -0.1573388,0.02748 -0.2970415,0.11575 -0.3881632,0.245504 L 3.481895,21.974521 C 3.38761,22.109077 3.2536477,22.211333 3.0977973,22.26793 l -1.8981365,0.682622 c -0.1576806,0.05714 -0.26216101,0.20381 -0.26216101,0.369255 v 2.24148 c 0,0.216853 0.17955431,0.391212 0.40035641,0.391212 H 2.939281 c 0,-1.085115 0.8949778,-1.96404 1.9997488,-1.96404 1.1057922,0 2.0017798,0.878925 2.0017798,1.96404 h 7.6027024 c 0,-1.085115 0.896933,-1.96404 2.001781,-1.96404 1.104761,0 1.99975,0.878925 1.99975,1.96404 h 0.802745 l 2.400104,-0.784419 v -8.253354 c 0,-0.217704 -0.179565,-0.395203 -0.400355,-0.395203 h -5.202601 l -1.601424,-0.784418 z m 0.8190039,0.784417 h 2.8004606 c 0.1108778,0 0.1991614,0.08874 0.1991614,0.197602 v 1.179621 c 0,0.108854 -0.088325,0.195605 -0.1991614,0.195605 H 4.3395119 c -0.1108778,0 -0.2011949,-0.08676 -0.2011949,-0.195605 v -1.179621 c 0,-0.108855 0.0903,-0.197602 0.2011949,-0.197602 z m 6.0012771,2.359242 h 3.202848 c 0.111778,0 0.199163,0.08675 0.199163,0.195605 v 5.896109 c 0,0.108854 -0.08738,0.1976 -0.199163,0.1976 h -3.202848 c -0.109879,0 -0.199162,-0.08874 -0.199162,-0.1976 v -5.896109 c 0,-0.108854 0.08922,-0.195605 0.199162,-0.195605 z m 5.20463,0 h 2.80046 c 0.109991,0 0.199164,0.08675 0.199164,0.195605 v 1.966035 c 0,0.108855 -0.08921,0.197601 -0.199164,0.197601 h -2.80046 c -0.110878,0 -0.201194,-0.08875 -0.201194,-0.197601 v -1.966035 c 0,-0.108854 0.0904,-0.195605 0.201194,-0.195605 z m -9.9926457,1.099782 h 1.5871992 c 0.1108778,0 0.1991614,0.08936 0.1991614,0.197601 v 1.816337 c 0,0.104908 -0.082087,0.191656 -0.1890003,0.195605 l -3.0951393,0.135727 c -0.08868,0.0039 -0.1647383,-0.06353 -0.1686785,-0.149699 -0.00222,-0.03391 0.0091,-0.06632 0.028458,-0.09381 L 5.2215199,20.154195 C 5.2954389,20.044724 5.4188491,19.97855 5.5527792,19.97855 Z m -0.6137435,4.403118 c -0.8840477,0 -1.6014257,0.702572 -1.6014257,1.570833 0,0.868262 0.717378,1.572828 1.6014257,1.572828 0.8840477,0 1.5993925,-0.704566 1.5993925,-1.572828 0,-0.868261 -0.7153448,-1.570833 -1.5993925,-1.570833 z m 11.6062632,0 c -0.884047,0 -1.601425,0.702572 -1.601425,1.570833 0,0.868262 0.717378,1.572828 1.601425,1.572828 0.88396,0 1.599394,-0.704566 1.599394,-1.572828 0,-0.868261 -0.715434,-1.570833 -1.599394,-1.570833 z"
       id="path5733"
       inkscape:connector-curvature="0" />
  </g>
</svg>
