<?xml version="1.0" encoding="UTF-8" standalone="no"?>
<svg
   id="svg2"
   viewBox="0 0 30 30"
   height="32"
   width="32"
   version="1.1"
   sodipodi:docname="l_caravan.svg"
   inkscape:version="1.2.2 (b0a8486541, 2022-12-01)"
   xmlns:inkscape="http://www.inkscape.org/namespaces/inkscape"
   xmlns:sodipodi="http://sodipodi.sourceforge.net/DTD/sodipodi-0.dtd"
   xmlns="http://www.w3.org/2000/svg"
   xmlns:svg="http://www.w3.org/2000/svg"
   xmlns:rdf="http://www.w3.org/1999/02/22-rdf-syntax-ns#"
   xmlns:cc="http://creativecommons.org/ns#"
   xmlns:dc="http://purl.org/dc/elements/1.1/">
  <sodipodi:namedview
     id="namedview3786"
     pagecolor="#ffffff"
     bordercolor="#666666"
     borderopacity="1.0"
     inkscape:showpageshadow="2"
     inkscape:pageopacity="0.0"
     inkscape:pagecheckerboard="0"
     inkscape:deskcolor="#d1d1d1"
     showgrid="false"
     inkscape:zoom="7.375"
     inkscape:cx="15.864407"
     inkscape:cy="16.067797"
     inkscape:window-width="1155"
     inkscape:window-height="698"
     inkscape:window-x="625"
     inkscape:window-y="81"
     inkscape:window-maximized="0"
     inkscape:current-layer="g1397" />
  <metadata
     id="metadata10">
    <rdf:RDF>
      <cc:Work
         rdf:about="">
        <dc:format>image/svg+xml</dc:format>
        <dc:type
           rdf:resource="http://purl.org/dc/dcmitype/StillImage" />
      </cc:Work>
    </rdf:RDF>
  </metadata>
  <defs
     id="defs8" />
  <circle
     style="fill:#000080;fill-opacity:1;stroke:none;stroke-width:0;stroke-linecap:square;stroke-dasharray:none;paint-order:stroke fill markers;stop-color:#000000"
     id="path961"
     cx="15"
     cy="15"
     r="15" />
  <rect
     style="visibility:hidden;fill:none;stroke:none"
     id="canvas"
     y="23.5"
     x="0"
     height="14"
     width="14" />
  <g
     id="g3125"
     transform="translate(38.068739,28.927412)">
    <rect
       style="visibility:hidden;fill:none;stroke:none"
       id="canvas-1-6"
       y="-15.302778"
       x="-28.193739"
       height="14"
       width="14" />
    <circle
       style="fill:#ffffff;fill-opacity:1;stroke:none;stroke-width:0;stroke-linejoin:round;stroke-dasharray:none;paint-order:stroke fill markers;stop-color:#000000"
       id="path1449-5-0-9-2-5-2-0"
       cx="-23.068739"
       cy="-13.927412"
       r="12.65625" />
    <g
       id="g1397"
       transform="matrix(0.83333333,0,0,0.83333333,-22.801261,-9.0932865)"
       style="stroke-width:1.2">
      <path
         style="fill:#000080;fill-opacity:1;fill-rule:nonzero;stroke:none;stroke-width:1.20536"
         d="m -10.469703,-13.588496 c -0.154642,0 -0.30455,0.04411 -0.432422,0.129197 l -2.768556,1.792968 c -0.09662,0.09787 -0.150292,0.231695 -0.150292,0.369143 v 0.606444 c 0,0.138266 0.05366,0.272084 0.150292,0.369142 l 0.659181,0.6565432 c 0.145843,0.1458384 0.344593,0.2293932 0.551073,0.2293932 h 6.945118 v 0.519432 l -2.5866204,0.4614276 c -0.2041356,0.0363 -0.3853896,0.1529076 -0.5036136,0.3243156 l -1.914259,2.7843744 c -0.122327,0.1777524 -0.296134,0.3128352 -0.498339,0.3875988 l -2.462697,0.901758 c -0.204579,0.075492 -0.340135,0.2692356 -0.340135,0.4877928 v 2.961036 c 0,0.2864652 0.232959,0.5167968 0.519434,0.5167968 h 2.077734 c 0,-1.4334564 1.16117,-2.594532 2.594532,-2.594532 1.4346864,0 2.597166,1.1610756 2.597166,2.594532 h 9.8639652 c 0,-1.4334564 1.163706,-2.594532 2.5971684,-2.594532 1.4333472,0 2.594532,1.1610756 2.594532,2.594532 h 1.0415054 l 3.113964,-1.03623 V -12.030198 c 0,-0.28759 -0.232974,-0.52207 -0.519433,-0.52207 H 5.9095934 l -2.0777352,-1.036229 z m 1.0625984,1.03623 h 3.6333984 c 0.1438548,0 0.2583972,0.11724 0.2583972,0.261036 v 1.5583 c 0,0.143799 -0.1146,0.258398 -0.2583972,0.258398 h -3.6333984 c -0.143856,0 -0.261036,-0.114612 -0.261036,-0.258398 v -1.5583 c 0,-0.1438 0.117156,-0.261036 0.261036,-0.261036 z m 7.7862288,3.1166016 h 4.155468 c 0.1450224,0 0.2583984,0.1146 0.2583984,0.2583984 v 7.7888664 c 0,0.1437996 -0.113376,0.261036 -0.2583984,0.261036 h -4.155468 c -0.1425588,0 -0.2583984,-0.11724 -0.2583984,-0.261036 V -9.177266 c 0,-0.1437984 0.115764,-0.2583984 0.2583984,-0.2583984 z m 6.7526364,0 H 8.765159 c 0.1427028,0 0.2583996,0.1146 0.2583996,0.2583984 v 2.5971684 c 0,0.1437996 -0.115752,0.2610336 -0.2583996,0.2610336 H 5.1317606 c -0.1438548,0 -0.261036,-0.117252 -0.261036,-0.2610336 V -9.177266 c 0,-0.1437984 0.117288,-0.2583984 0.261036,-0.2583984 z M -7.8329842,-7.982834 h 2.059278 c 0.1438548,0 0.2583972,0.118056 0.2583972,0.2610372 v 2.3994144 c 0,0.1385844 -0.1065,0.2531808 -0.2452152,0.2583972 l -4.015722,0.1792968 c -0.115056,0.00516 -0.2137368,-0.083928 -0.2188488,-0.197754 -0.00288,-0.044784 0.01176,-0.087624 0.036924,-0.1239276 l 1.6954104,-2.5444308 c 0.095904,-0.1446144 0.25602,-0.2320332 0.4297848,-0.2320332 z m -0.7962888,5.8166016 c -1.1469888,0 -2.077735,0.92811 -2.077735,2.0751 0,1.1469888 0.9307462,2.0777352 2.077735,2.0777352 1.1469888,0 2.0750976,-0.9307464 2.0750976,-2.0777352 0,-1.14699 -0.9281088,-2.0751 -2.0750976,-2.0751 z m 15.0582996,0 c -1.1469888,0 -2.077734,0.92811 -2.077734,2.0751 0,1.1469888 0.9307452,2.0777352 2.077734,2.0777352 1.1468736,0 2.0750988,-0.9307464 2.0750988,-2.0777352 0,-1.14699 -0.9282252,-2.0751 -2.0750988,-2.0751 z"
         id="path5733" />
    </g>
  </g>
</svg>
