<?xml version="1.0" encoding="UTF-8" standalone="no"?>
<svg
   xmlns:dc="http://purl.org/dc/elements/1.1/"
   xmlns:cc="http://creativecommons.org/ns#"
   xmlns:rdf="http://www.w3.org/1999/02/22-rdf-syntax-ns#"
   xmlns:svg="http://www.w3.org/2000/svg"
   xmlns="http://www.w3.org/2000/svg"
   version="1.1"
   width="32"
   height="32"
   viewBox="0 0 30 30"
   id="svg2">
  <metadata
     id="metadata10">
    <rdf:RDF>
      <cc:Work
         rdf:about="">
        <dc:format>image/svg+xml</dc:format>
        <dc:type
           rdf:resource="http://purl.org/dc/dcmitype/StillImage" />
        <dc:title></dc:title>
      </cc:Work>
    </rdf:RDF>
  </metadata>
  <defs
     id="defs8" />
  <rect
     width="14"
     height="14"
     x="0"
     y="16"
     id="canvas"
     style="visibility:hidden;fill:none;stroke:none" />
  <path
     style="opacity:1;fill:#68228b;fill-opacity:1;stroke:none;stroke-width:0;stroke-linecap:butt;stroke-linejoin:miter;stroke-miterlimit:4;stroke-dasharray:none;stroke-dashoffset:0;stroke-opacity:1"
     d="M 4.6875,0 C 2.090625,0 0,2.090625 0,4.6875 v 20.625 C 0,27.909375 2.090625,30 4.6875,30 h 20.625 C 27.909375,30 30,27.909375 30,25.3125 V 4.6875 C 30,2.090625 27.909375,0 25.3125,0 Z"
     id="rect5129" />
  <path
     d="M 13.499193,15.177951 7.9484458,5.0015762 8.8735711,2.2262027 H 7.9484458 L 7.0233215,4.0764513 6.0981957,2.2262027 H 5.1730705 L 6.0981957,5.0015762 0.5474473,15.177951 Z M 7.0233206,8.7020762 9.7986945,14.252826 H 4.2479462 Z"
     id="camping-5"
     style="fill:#cc9ae6;stroke-width:2.09659457;fill-opacity:1" />
  <path
     style="fill:#cc9ae6;stroke-width:2.09659481;fill-opacity:1"
     d="M 25.41687,8.9227295 26.341552,11.698609 20.789795,21.87561 H 30 V 20.949097 H 24.490357 L 27.266235,15.39917 30,20.864868 v -5.85022 L 28.190917,11.698609 29.117432,8.9227295 H 28.190917 L 27.266235,10.773926 26.341552,8.9227295 Z"
     id="camping-5-6" />
  <path
     style="opacity:1;fill:#ffffff;fill-opacity:1;stroke:none;stroke-width:0.23437499;stroke-linecap:round;stroke-linejoin:round;stroke-miterlimit:4;stroke-dasharray:none;stroke-dashoffset:0;stroke-opacity:1"
     d="m 11.370635,3.3831363 c -0.97356,0 -1.7648991,0.7887961 -1.7648991,1.7623557 0,0.9735508 0.7913471,1.7623557 1.7648991,1.7623557 0.97355,0 1.762354,-0.7888049 1.762354,-1.7623557 0,-0.9735596 -0.788795,-1.7623557 -1.762354,-1.7623557 z m 0,3.6900119 C 9.7043312,7.0292935 8.1799068,7.4655979 8.029025,8.3243445 L 6.7345961,15.717084 C 6.5957932,16.782798 7.9084787,16.877497 8.04174,15.935789 L 8.9165605,10.925917 9.2395319,15.177951 8.494409,25.80549 c -0.1168033,1.207422 1.619378,1.433394 1.825932,0.155129 l 1.050294,-9.620479 1.052835,9.620479 c 0.206546,1.278265 1.93765,1.052293 1.820848,-0.155129 l -0.745125,-10.627539 0.325515,-4.252034 0.87482,5.009872 c 0.133262,0.941708 1.443401,0.847009 1.304601,-0.218705 L 14.712245,8.3243445 C 14.561361,7.4655979 13.036929,7.0293381 11.370635,7.0731482 Z"
     id="path4713-6" />
  <path
     style="opacity:1;fill:#00ff00;fill-opacity:0.66666667;stroke:none;stroke-width:1.40625;stroke-linecap:round;stroke-linejoin:round;stroke-miterlimit:4;stroke-dasharray:none;stroke-dashoffset:0;stroke-opacity:1"
     d="m 46.263427,1.1938477 c -0.0031,5.665e-4 -0.0061,0.00118 -0.0092,0.00183 -0.175051,0.00962 -0.311045,0.156139 -0.307617,0.3314209 l 0.0073,1.1187749 c -0.343073,0.17727 -0.633736,0.2866968 -0.805664,0.2563471 -0.205699,-0.036281 -0.398544,-0.1795575 -0.644531,-0.4797365 -0.271982,-0.3600459 -0.802598,0.0741 -0.50354,0.4119881 0.288073,0.3515297 0.60917,0.6335494 1.034546,0.7086178 C 45.409329,3.609221 45.82632,3.446336 46.279838,3.2006822 46.733263,3.44625 47.148579,3.60921 47.523124,3.54309 47.948445,3.46806 48.271427,3.186 48.559526,2.8344703 48.858585,2.4965784 48.327968,2.0624362 48.055987,2.4224822 47.809999,2.7226612 47.618986,2.8659187 47.413286,2.9022187 47.241357,2.9325938 46.950705,2.82315 46.607622,2.6458716 l 0.0073,-1.1187749 c 0.0046,-0.1881046 -0.150741,-0.3409366 -0.338745,-0.3332519 -0.0043,-8.41e-5 -0.0085,-8.41e-5 -0.01282,0 z"
     id="rect5704" />
  <path
     style="opacity:1;fill:#000000;fill-opacity:1;stroke:none;stroke-width:1.40625;stroke-linecap:round;stroke-linejoin:round;stroke-miterlimit:4;stroke-dasharray:none;stroke-dashoffset:0;stroke-opacity:1"
     d="m 11.369371,14.215576 c -0.180777,0.0014 -0.326897,0.150661 -0.324096,0.331421 v 0.97229 c -0.41723,0.09172 -0.781584,0.133678 -1.1389163,-0.0037 -0.4241428,-0.205407 -0.6864,0.470968 -0.234375,0.604248 0.5243383,0.200937 1.0854683,0.219259 1.6973873,0.04761 0.611919,0.17165 1.173049,0.15333 1.697388,-0.04761 0.452025,-0.13328 0.189768,-0.809655 -0.234375,-0.604248 -0.357333,0.137378 -0.721687,0.09538 -1.138916,0.0037 v -0.97229 c 0.0028,-0.18076 -0.14332,-0.330021 -0.324097,-0.331421 z"
     id="rect5730" />
  <path
     style="fill:#ffffff;fill-opacity:1;fill-rule:evenodd;stroke:none;stroke-width:0.93749994px;stroke-linecap:butt;stroke-linejoin:miter;stroke-opacity:1"
     d="m 20.909735,3.3831366 c -0.97356,0 -1.762356,0.7887961 -1.762356,1.7623557 0,0.9735598 0.788796,1.7623558 1.762356,1.7623558 0.97356,0 1.764899,-0.788796 1.764899,-1.7623558 0,-0.9735596 -0.791339,-1.7623557 -1.764899,-1.7623557 z m 0,3.690012 c -1.378814,-0.00353 -2.51358,0.8556555 -2.858424,2.1539899 l -1.775072,6.4899465 c -0.138803,1.065724 1.438372,1.160413 1.571625,0.218705 l 1.271541,-5.009873 -0.317885,2.665151 c 0,0 -0.917952,2.014797 -0.958742,3.761219 l 0.190731,8.453204 c -0.116803,1.207423 1.619388,1.433395 1.825932,0.155129 l 1.050292,-9.620479 1.052837,9.620479 c 0.206546,1.278266 1.942745,1.052294 1.825934,-0.155129 l 0.188188,-8.453204 c -0.04076,-1.746422 -0.958743,-3.761219 -0.958743,-3.761219 l -0.317885,-2.665151 1.274085,5.009873 c 0.133261,0.941708 1.710425,0.847019 1.571623,-0.218705 L 23.770701,9.2271385 C 23.42585,7.9288041 22.28854,7.0691153 20.909735,7.0731486 Z"
     id="path4531-6-7-6-7-9" />
  <path
     style="opacity:1;fill:#000000;fill-opacity:1;stroke:none;stroke-width:1.40625;stroke-linecap:round;stroke-linejoin:round;stroke-miterlimit:4;stroke-dasharray:none;stroke-dashoffset:0;stroke-opacity:1"
     d="m 20.906982,13.908692 c -0.0031,0.0012 -0.0061,0.0024 -0.0092,0.0037 -0.17433,0.0096 -0.310049,0.155012 -0.307617,0.329589 l 0.0073,1.118775 c -0.343073,0.177271 -0.635567,0.286697 -0.807495,0.256348 -0.2057,-0.03628 -0.396713,-0.179559 -0.6427,-0.479737 -0.271982,-0.360046 -0.802599,0.0741 -0.50354,0.411988 0.288072,0.351529 0.609248,0.633548 1.034545,0.708618 0.374608,0.06613 0.789769,-0.09676 1.243287,-0.342408 0.453424,0.245568 0.870571,0.408528 1.245117,0.342408 0.425296,-0.07503 0.748278,-0.357089 1.036377,-0.708618 0.04015,-0.0455 0.06679,-0.101305 0.0769,-0.161134 V 15.27099 c -0.05322,-0.277799 -0.411026,-0.360196 -0.580416,-0.133667 -0.245988,0.300178 -0.437,0.443437 -0.6427,0.479737 -0.171929,0.03038 -0.462581,-0.07907 -0.805664,-0.256347 l 0.0073,-1.118776 c 0.0046,-0.188104 -0.150741,-0.340935 -0.338745,-0.333251 -0.0043,-8.4e-5 -0.0085,-8.4e-5 -0.01281,0 z"
     id="rect6401" />
</svg>
