<?xml version="1.0" encoding="UTF-8" standalone="no"?>
<!-- Created with Inkscape (http://www.inkscape.org/) -->

<svg
   version="1.1"
   width="32"
   height="32"
   viewBox="0 0 30 30"
   id="svg2"
   xmlns="http://www.w3.org/2000/svg"
   xmlns:svg="http://www.w3.org/2000/svg"
   xmlns:rdf="http://www.w3.org/1999/02/22-rdf-syntax-ns#"
   xmlns:cc="http://creativecommons.org/ns#"
   xmlns:dc="http://purl.org/dc/elements/1.1/">
  <metadata
     id="metadata10">
    <rdf:RDF>
      <cc:Work
         rdf:about="">
        <dc:format>image/svg+xml</dc:format>
        <dc:type
           rdf:resource="http://purl.org/dc/dcmitype/StillImage" />
      </cc:Work>
    </rdf:RDF>
  </metadata>
  <defs
     id="defs8" />
  <rect
     width="14"
     height="14"
     x="0"
     y="16"
     id="canvas"
     style="visibility:hidden;fill:none;stroke:none" />
  <path
     style="opacity:1;fill:#666666;fill-opacity:1;stroke:none;stroke-width:0;stroke-linecap:butt;stroke-linejoin:miter;stroke-miterlimit:4;stroke-dasharray:none;stroke-dashoffset:0;stroke-opacity:1"
     d="M 4.6875,0 C 2.090625,0 0,2.090625 0,4.6875 v 20.625 C 0,27.909375 2.090625,30 4.6875,30 h 20.625 C 27.909375,30 30,27.909375 30,25.3125 V 4.6875 C 30,2.090625 27.909375,0 25.3125,0 Z"
     id="rect5129" />
  <path
     style="opacity:1;fill:#00ff00;fill-opacity:0.66666667;stroke:none;stroke-width:1.40625;stroke-linecap:round;stroke-linejoin:round;stroke-miterlimit:4;stroke-dasharray:none;stroke-dashoffset:0;stroke-opacity:1"
     d="m 46.263427,1.1938477 c -0.0031,5.665e-4 -0.0061,0.00118 -0.0092,0.00183 -0.175051,0.00962 -0.311045,0.156139 -0.307617,0.3314209 l 0.0073,1.1187749 c -0.343073,0.17727 -0.633736,0.2866968 -0.805664,0.2563471 -0.205699,-0.036281 -0.398544,-0.1795575 -0.644531,-0.4797365 -0.271982,-0.3600459 -0.802598,0.0741 -0.50354,0.4119881 0.288073,0.3515297 0.60917,0.6335494 1.034546,0.7086178 C 45.409329,3.609221 45.82632,3.446336 46.279838,3.2006822 46.733263,3.44625 47.148579,3.60921 47.523124,3.54309 47.948445,3.46806 48.271427,3.186 48.559526,2.8344703 48.858585,2.4965784 48.327968,2.0624362 48.055987,2.4224822 47.809999,2.7226612 47.618986,2.8659187 47.413286,2.9022187 47.241357,2.9325938 46.950705,2.82315 46.607622,2.6458716 l 0.0073,-1.1187749 c 0.0046,-0.1881046 -0.150741,-0.3409366 -0.338745,-0.3332519 -0.0043,-8.41e-5 -0.0085,-8.41e-5 -0.01282,0 z"
     id="rect5704" />
  <g
     id="g1389"
     transform="translate(0.00183108,-0.134649)">
    <g
       id="g1630"
       style="fill:#ffffff;stroke-width:1.00031;stroke-dasharray:none"
       transform="translate(0.50192635,0.86428028)">
      <path
         id="path4784-9-4"
         d="m 9.3702385,3.9546342 a 0.45301987,0.45301987 0 0 0 -0.193861,0.8472652 l 1.2445575,0.72041 a 0.45361178,0.45361178 0 1 0 0.45474,-0.7850262 L 9.6311179,4.0192626 A 0.45301987,0.45301987 0 0 0 9.3702385,3.9546832 Z"
         style="color:#000000;font-style:normal;font-variant:normal;font-weight:normal;font-stretch:normal;font-size:medium;line-height:normal;font-family:sans-serif;font-variant-ligatures:normal;font-variant-position:normal;font-variant-caps:normal;font-variant-numeric:normal;font-variant-alternates:normal;font-feature-settings:normal;text-indent:0;text-align:start;text-decoration:none;text-decoration-line:none;text-decoration-style:solid;text-decoration-color:#000000;letter-spacing:normal;word-spacing:normal;text-transform:none;writing-mode:lr-tb;direction:ltr;text-orientation:mixed;dominant-baseline:auto;baseline-shift:baseline;text-anchor:start;white-space:normal;shape-padding:0;clip-rule:nonzero;display:inline;overflow:visible;visibility:visible;isolation:auto;mix-blend-mode:normal;color-interpolation:sRGB;color-interpolation-filters:linearRGB;solid-color:#000000;solid-opacity:1;fill:#ffffff;fill-opacity:1;fill-rule:evenodd;stroke:none;stroke-width:1.00031;stroke-linecap:round;stroke-linejoin:miter;stroke-miterlimit:4;stroke-dasharray:none;stroke-dashoffset:0;stroke-opacity:1;color-rendering:auto;image-rendering:auto;shape-rendering:auto;text-rendering:auto;enable-background:accumulate" />
      <path
         id="path4784"
         d="m 14.4921,11.338259 a 0.45301987,0.45301987 0 0 0 -0.447572,0.459531 v 1.436029 a 0.4535515,0.4535515 0 1 0 0.907103,0 V 11.79779 A 0.45301987,0.45301987 0 0 0 14.4921,11.338259 Z"
         style="color:#000000;font-style:normal;font-variant:normal;font-weight:normal;font-stretch:normal;font-size:medium;line-height:normal;font-family:sans-serif;font-variant-ligatures:normal;font-variant-position:normal;font-variant-caps:normal;font-variant-numeric:normal;font-variant-alternates:normal;font-feature-settings:normal;text-indent:0;text-align:start;text-decoration:none;text-decoration-line:none;text-decoration-style:solid;text-decoration-color:#000000;letter-spacing:normal;word-spacing:normal;text-transform:none;writing-mode:lr-tb;direction:ltr;text-orientation:mixed;dominant-baseline:auto;baseline-shift:baseline;text-anchor:start;white-space:normal;shape-padding:0;clip-rule:nonzero;display:inline;overflow:visible;visibility:visible;isolation:auto;mix-blend-mode:normal;color-interpolation:sRGB;color-interpolation-filters:linearRGB;solid-color:#000000;solid-opacity:1;fill:#ffffff;fill-opacity:1;fill-rule:evenodd;stroke:none;stroke-width:1.00031;stroke-linecap:round;stroke-linejoin:miter;stroke-miterlimit:4;stroke-dasharray:none;stroke-dashoffset:0;stroke-opacity:1;color-rendering:auto;image-rendering:auto;shape-rendering:auto;text-rendering:auto;enable-background:accumulate" />
      <path
         id="path4784-9"
         d="m 14.4921,1.0107672 a 0.45301987,0.45301987 0 0 0 -0.447572,0.4595312 v 1.436041 a 0.4535515,0.4535515 0 1 0 0.907103,0 V 1.4702984 A 0.45301987,0.45301987 0 0 0 14.4921,1.0107672 Z"
         style="color:#000000;font-style:normal;font-variant:normal;font-weight:normal;font-stretch:normal;font-size:medium;line-height:normal;font-family:sans-serif;font-variant-ligatures:normal;font-variant-position:normal;font-variant-caps:normal;font-variant-numeric:normal;font-variant-alternates:normal;font-feature-settings:normal;text-indent:0;text-align:start;text-decoration:none;text-decoration-line:none;text-decoration-style:solid;text-decoration-color:#000000;letter-spacing:normal;word-spacing:normal;text-transform:none;writing-mode:lr-tb;direction:ltr;text-orientation:mixed;dominant-baseline:auto;baseline-shift:baseline;text-anchor:start;white-space:normal;shape-padding:0;clip-rule:nonzero;display:inline;overflow:visible;visibility:visible;isolation:auto;mix-blend-mode:normal;color-interpolation:sRGB;color-interpolation-filters:linearRGB;solid-color:#000000;solid-opacity:1;fill:#ffffff;fill-opacity:1;fill-rule:evenodd;stroke:none;stroke-width:1.00031;stroke-linecap:round;stroke-linejoin:miter;stroke-miterlimit:4;stroke-dasharray:none;stroke-dashoffset:0;stroke-opacity:1;color-rendering:auto;image-rendering:auto;shape-rendering:auto;text-rendering:auto;enable-background:accumulate" />
      <path
         id="path4801"
         d="m 14.497063,4.6342133 c -1.49431,0 -2.716823,1.2225124 -2.716823,2.716822 0,1.4943098 1.222513,2.7188677 2.716823,2.7188677 1.494309,0 2.718868,-1.2245579 2.718868,-2.7188677 0,-1.4943096 -1.224559,-2.716822 -2.718868,-2.716822 z"
         style="color:#000000;font-style:normal;font-variant:normal;font-weight:normal;font-stretch:normal;font-size:medium;line-height:normal;font-family:sans-serif;font-variant-ligatures:normal;font-variant-position:normal;font-variant-caps:normal;font-variant-numeric:normal;font-variant-alternates:normal;font-feature-settings:normal;text-indent:0;text-align:start;text-decoration:none;text-decoration-line:none;text-decoration-style:solid;text-decoration-color:#000000;letter-spacing:normal;word-spacing:normal;text-transform:none;writing-mode:lr-tb;direction:ltr;text-orientation:mixed;dominant-baseline:auto;baseline-shift:baseline;text-anchor:start;white-space:normal;shape-padding:0;clip-rule:nonzero;display:inline;overflow:visible;visibility:visible;isolation:auto;mix-blend-mode:normal;color-interpolation:sRGB;color-interpolation-filters:linearRGB;solid-color:#000000;solid-opacity:1;fill:#ffffff;fill-opacity:1;fill-rule:nonzero;stroke:none;stroke-width:1.00031;stroke-linecap:round;stroke-linejoin:miter;stroke-miterlimit:4;stroke-dasharray:none;stroke-dashoffset:0;stroke-opacity:1;color-rendering:auto;image-rendering:auto;shape-rendering:auto;text-rendering:auto;enable-background:accumulate" />
      <path
         id="path4784-5"
         d="m 18.943804,6.8985135 a 0.45354502,0.45354502 0 1 0 0,0.90709 h 1.43603 a 0.45354502,0.45354502 0 1 0 0,-0.90709 z"
         style="color:#000000;font-style:normal;font-variant:normal;font-weight:normal;font-stretch:normal;font-size:medium;line-height:normal;font-family:sans-serif;font-variant-ligatures:normal;font-variant-position:normal;font-variant-caps:normal;font-variant-numeric:normal;font-variant-alternates:normal;font-feature-settings:normal;text-indent:0;text-align:start;text-decoration:none;text-decoration-line:none;text-decoration-style:solid;text-decoration-color:#000000;letter-spacing:normal;word-spacing:normal;text-transform:none;writing-mode:lr-tb;direction:ltr;text-orientation:mixed;dominant-baseline:auto;baseline-shift:baseline;text-anchor:start;white-space:normal;shape-padding:0;clip-rule:nonzero;display:inline;overflow:visible;visibility:visible;isolation:auto;mix-blend-mode:normal;color-interpolation:sRGB;color-interpolation-filters:linearRGB;solid-color:#000000;solid-opacity:1;fill:#ffffff;fill-opacity:1;fill-rule:evenodd;stroke:none;stroke-width:1.00031;stroke-linecap:round;stroke-linejoin:miter;stroke-miterlimit:4;stroke-dasharray:none;stroke-dashoffset:0;stroke-opacity:1;color-rendering:auto;image-rendering:auto;shape-rendering:auto;text-rendering:auto;enable-background:accumulate" />
      <path
         id="path4784-9-7"
         d="m 8.6163133,6.8985135 a 0.45354502,0.45354502 0 1 0 0,0.90709 h 1.4360407 a 0.45354502,0.45354502 0 1 0 0,-0.90709 z"
         style="color:#000000;font-style:normal;font-variant:normal;font-weight:normal;font-stretch:normal;font-size:medium;line-height:normal;font-family:sans-serif;font-variant-ligatures:normal;font-variant-position:normal;font-variant-caps:normal;font-variant-numeric:normal;font-variant-alternates:normal;font-feature-settings:normal;text-indent:0;text-align:start;text-decoration:none;text-decoration-line:none;text-decoration-style:solid;text-decoration-color:#000000;letter-spacing:normal;word-spacing:normal;text-transform:none;writing-mode:lr-tb;direction:ltr;text-orientation:mixed;dominant-baseline:auto;baseline-shift:baseline;text-anchor:start;white-space:normal;shape-padding:0;clip-rule:nonzero;display:inline;overflow:visible;visibility:visible;isolation:auto;mix-blend-mode:normal;color-interpolation:sRGB;color-interpolation-filters:linearRGB;solid-color:#000000;solid-opacity:1;fill:#ffffff;fill-opacity:1;fill-rule:evenodd;stroke:none;stroke-width:1.00031;stroke-linecap:round;stroke-linejoin:miter;stroke-miterlimit:4;stroke-dasharray:none;stroke-dashoffset:0;stroke-opacity:1;color-rendering:auto;image-rendering:auto;shape-rendering:auto;text-rendering:auto;enable-background:accumulate" />
      <path
         id="path4784-96"
         d="m 11.536259,1.7981953 a 0.45301987,0.45301987 0 0 0 -0.370982,0.6869072 l 0.71802,1.2445575 a 0.45361768,0.45361768 0 1 0 0.78504,-0.4547397 L 11.947915,2.0303504 A 0.45301987,0.45301987 0 0 0 11.536259,1.7981953 Z"
         style="color:#000000;font-style:normal;font-variant:normal;font-weight:normal;font-stretch:normal;font-size:medium;line-height:normal;font-family:sans-serif;font-variant-ligatures:normal;font-variant-position:normal;font-variant-caps:normal;font-variant-numeric:normal;font-variant-alternates:normal;font-feature-settings:normal;text-indent:0;text-align:start;text-decoration:none;text-decoration-line:none;text-decoration-style:solid;text-decoration-color:#000000;letter-spacing:normal;word-spacing:normal;text-transform:none;writing-mode:lr-tb;direction:ltr;text-orientation:mixed;dominant-baseline:auto;baseline-shift:baseline;text-anchor:start;white-space:normal;shape-padding:0;clip-rule:nonzero;display:inline;overflow:visible;visibility:visible;isolation:auto;mix-blend-mode:normal;color-interpolation:sRGB;color-interpolation-filters:linearRGB;solid-color:#000000;solid-opacity:1;fill:#ffffff;fill-opacity:1;fill-rule:evenodd;stroke:none;stroke-width:1.00031;stroke-linecap:round;stroke-linejoin:miter;stroke-miterlimit:4;stroke-dasharray:none;stroke-dashoffset:0;stroke-opacity:1;color-rendering:auto;image-rendering:auto;shape-rendering:auto;text-rendering:auto;enable-background:accumulate" />
      <path
         id="path4784-9-2"
         d="m 16.698805,10.742302 a 0.45301987,0.45301987 0 0 0 -0.370982,0.684505 l 0.71802,1.24457 a 0.45301987,0.45301987 0 1 0 0.785038,-0.45235 l -0.71802,-1.24457 a 0.45301987,0.45301987 0 0 0 -0.414056,-0.232155 z"
         style="color:#000000;font-style:normal;font-variant:normal;font-weight:normal;font-stretch:normal;font-size:medium;line-height:normal;font-family:sans-serif;font-variant-ligatures:normal;font-variant-position:normal;font-variant-caps:normal;font-variant-numeric:normal;font-variant-alternates:normal;font-feature-settings:normal;text-indent:0;text-align:start;text-decoration:none;text-decoration-line:none;text-decoration-style:solid;text-decoration-color:#000000;letter-spacing:normal;word-spacing:normal;text-transform:none;writing-mode:lr-tb;direction:ltr;text-orientation:mixed;dominant-baseline:auto;baseline-shift:baseline;text-anchor:start;white-space:normal;shape-padding:0;clip-rule:nonzero;display:inline;overflow:visible;visibility:visible;isolation:auto;mix-blend-mode:normal;color-interpolation:sRGB;color-interpolation-filters:linearRGB;solid-color:#000000;solid-opacity:1;fill:#ffffff;fill-opacity:1;fill-rule:evenodd;stroke:none;stroke-width:1.00031;stroke-linecap:round;stroke-linejoin:miter;stroke-miterlimit:4;stroke-dasharray:none;stroke-dashoffset:0;stroke-opacity:1;color-rendering:auto;image-rendering:auto;shape-rendering:auto;text-rendering:auto;enable-background:accumulate" />
      <path
         id="path4784-0"
         d="m 18.35982,9.1171911 a 0.45301987,0.45301987 0 0 0 -0.239348,0.849655 l 1.24457,0.7180079 a 0.45361178,0.45361178 0 1 0 0.454739,-0.7850259 l -1.246959,-0.718021 a 0.45301987,0.45301987 0 0 0 -0.213002,-0.06458 z"
         style="color:#000000;font-style:normal;font-variant:normal;font-weight:normal;font-stretch:normal;font-size:medium;line-height:normal;font-family:sans-serif;font-variant-ligatures:normal;font-variant-position:normal;font-variant-caps:normal;font-variant-numeric:normal;font-variant-alternates:normal;font-feature-settings:normal;text-indent:0;text-align:start;text-decoration:none;text-decoration-line:none;text-decoration-style:solid;text-decoration-color:#000000;letter-spacing:normal;word-spacing:normal;text-transform:none;writing-mode:lr-tb;direction:ltr;text-orientation:mixed;dominant-baseline:auto;baseline-shift:baseline;text-anchor:start;white-space:normal;shape-padding:0;clip-rule:nonzero;display:inline;overflow:visible;visibility:visible;isolation:auto;mix-blend-mode:normal;color-interpolation:sRGB;color-interpolation-filters:linearRGB;solid-color:#000000;solid-opacity:1;fill:#ffffff;fill-opacity:1;fill-rule:evenodd;stroke:none;stroke-width:1.00031;stroke-linecap:round;stroke-linejoin:miter;stroke-miterlimit:4;stroke-dasharray:none;stroke-dashoffset:0;stroke-opacity:1;color-rendering:auto;image-rendering:auto;shape-rendering:auto;text-rendering:auto;enable-background:accumulate" />
      <path
         id="path4784-4"
         d="m 12.282991,10.742302 a 0.45301987,0.45301987 0 0 0 -0.399694,0.232155 l -0.71802,1.24457 a 0.45301987,0.45301987 0 1 0 0.782638,0.45235 l 0.720422,-1.24457 a 0.45301987,0.45301987 0 0 0 -0.385346,-0.684505 z"
         style="color:#000000;font-style:normal;font-variant:normal;font-weight:normal;font-stretch:normal;font-size:medium;line-height:normal;font-family:sans-serif;font-variant-ligatures:normal;font-variant-position:normal;font-variant-caps:normal;font-variant-numeric:normal;font-variant-alternates:normal;font-feature-settings:normal;text-indent:0;text-align:start;text-decoration:none;text-decoration-line:none;text-decoration-style:solid;text-decoration-color:#000000;letter-spacing:normal;word-spacing:normal;text-transform:none;writing-mode:lr-tb;direction:ltr;text-orientation:mixed;dominant-baseline:auto;baseline-shift:baseline;text-anchor:start;white-space:normal;shape-padding:0;clip-rule:nonzero;display:inline;overflow:visible;visibility:visible;isolation:auto;mix-blend-mode:normal;color-interpolation:sRGB;color-interpolation-filters:linearRGB;solid-color:#000000;solid-opacity:1;fill:#ffffff;fill-opacity:1;fill-rule:evenodd;stroke:none;stroke-width:1.00031;stroke-linecap:round;stroke-linejoin:miter;stroke-miterlimit:4;stroke-dasharray:none;stroke-dashoffset:0;stroke-opacity:1;color-rendering:auto;image-rendering:auto;shape-rendering:auto;text-rendering:auto;enable-background:accumulate" />
      <path
         id="path4784-9-1"
         d="m 17.445537,1.7981953 a 0.45301987,0.45301987 0 0 0 -0.399694,0.2321551 l -0.71802,1.2445699 A 0.45361709,0.45361709 0 1 0 17.112861,3.72966 l 0.71802,-1.2445575 A 0.45301987,0.45301987 0 0 0 17.445537,1.7981953 Z"
         style="color:#000000;font-style:normal;font-variant:normal;font-weight:normal;font-stretch:normal;font-size:medium;line-height:normal;font-family:sans-serif;font-variant-ligatures:normal;font-variant-position:normal;font-variant-caps:normal;font-variant-numeric:normal;font-variant-alternates:normal;font-feature-settings:normal;text-indent:0;text-align:start;text-decoration:none;text-decoration-line:none;text-decoration-style:solid;text-decoration-color:#000000;letter-spacing:normal;word-spacing:normal;text-transform:none;writing-mode:lr-tb;direction:ltr;text-orientation:mixed;dominant-baseline:auto;baseline-shift:baseline;text-anchor:start;white-space:normal;shape-padding:0;clip-rule:nonzero;display:inline;overflow:visible;visibility:visible;isolation:auto;mix-blend-mode:normal;color-interpolation:sRGB;color-interpolation-filters:linearRGB;solid-color:#000000;solid-opacity:1;fill:#ffffff;fill-opacity:1;fill-rule:evenodd;stroke:none;stroke-width:1.00031;stroke-linecap:round;stroke-linejoin:miter;stroke-miterlimit:4;stroke-dasharray:none;stroke-dashoffset:0;stroke-opacity:1;color-rendering:auto;image-rendering:auto;shape-rendering:auto;text-rendering:auto;enable-background:accumulate" />
      <path
         id="path4784-91"
         d="m 19.566084,3.9546342 a 0.45301987,0.45301987 0 0 0 -0.201042,0.064579 l -1.24457,0.7180204 a 0.45301987,0.45301987 0 1 0 0.45235,0.7850264 l 1.246959,-0.7204096 a 0.45301987,0.45301987 0 0 0 -0.253697,-0.847265 z"
         style="color:#000000;font-style:normal;font-variant:normal;font-weight:normal;font-stretch:normal;font-size:medium;line-height:normal;font-family:sans-serif;font-variant-ligatures:normal;font-variant-position:normal;font-variant-caps:normal;font-variant-numeric:normal;font-variant-alternates:normal;font-feature-settings:normal;text-indent:0;text-align:start;text-decoration:none;text-decoration-line:none;text-decoration-style:solid;text-decoration-color:#000000;letter-spacing:normal;word-spacing:normal;text-transform:none;writing-mode:lr-tb;direction:ltr;text-orientation:mixed;dominant-baseline:auto;baseline-shift:baseline;text-anchor:start;white-space:normal;shape-padding:0;clip-rule:nonzero;display:inline;overflow:visible;visibility:visible;isolation:auto;mix-blend-mode:normal;color-interpolation:sRGB;color-interpolation-filters:linearRGB;solid-color:#000000;solid-opacity:1;fill:#ffffff;fill-opacity:1;fill-rule:evenodd;stroke:none;stroke-width:1.00031;stroke-linecap:round;stroke-linejoin:miter;stroke-miterlimit:4;stroke-dasharray:none;stroke-dashoffset:0;stroke-opacity:1;color-rendering:auto;image-rendering:auto;shape-rendering:auto;text-rendering:auto;enable-background:accumulate" />
      <path
         id="path4784-9-04"
         d="m 10.667453,9.1171911 a 0.45301987,0.45301987 0 0 0 -0.246518,0.06458 l -1.2445575,0.71802 A 0.4536118,0.4536118 0 1 0 9.6311179,10.684817 L 10.875675,9.9668091 a 0.45301987,0.45301987 0 0 0 -0.208222,-0.849655 z"
         style="color:#000000;font-style:normal;font-variant:normal;font-weight:normal;font-stretch:normal;font-size:medium;line-height:normal;font-family:sans-serif;font-variant-ligatures:normal;font-variant-position:normal;font-variant-caps:normal;font-variant-numeric:normal;font-variant-alternates:normal;font-feature-settings:normal;text-indent:0;text-align:start;text-decoration:none;text-decoration-line:none;text-decoration-style:solid;text-decoration-color:#000000;letter-spacing:normal;word-spacing:normal;text-transform:none;writing-mode:lr-tb;direction:ltr;text-orientation:mixed;dominant-baseline:auto;baseline-shift:baseline;text-anchor:start;white-space:normal;shape-padding:0;clip-rule:nonzero;display:inline;overflow:visible;visibility:visible;isolation:auto;mix-blend-mode:normal;color-interpolation:sRGB;color-interpolation-filters:linearRGB;solid-color:#000000;solid-opacity:1;fill:#ffffff;fill-opacity:1;fill-rule:evenodd;stroke:none;stroke-width:1.00031;stroke-linecap:round;stroke-linejoin:miter;stroke-miterlimit:4;stroke-dasharray:none;stroke-dashoffset:0;stroke-opacity:1;color-rendering:auto;image-rendering:auto;shape-rendering:auto;text-rendering:auto;enable-background:accumulate" />
    </g>
    <g
       id="g6"
       style="fill:#000000;stroke-width:5.38372"
       transform="matrix(0.1741363,0,0,0.1741363,3.7500001,18.081333)">
      <path
         id="path4"
         style="clip-rule:evenodd;fill:#000000;fill-rule:evenodd;stroke-width:5.38372"
         class="st0"
         d="m 127.7896,0.00267055 c -0.0421,0 -0.0841,-1.5343e-4 -0.12618,0.01051506 L 63.321727,0.11833627 101.79635,26.437546 c 7.03386,-3.068371 15.70046,-5.083242 26.08788,-5.993587 0.74657,-0.06401 1.30387,-0.69377 1.30387,-1.440564 V 1.4432346 0.81233063 h -0.12618 C 128.83059,0.33224856 128.3469,0.00267055 127.7896,0.00267055 Z M 15.762083,0.19194173 1.4195333,0.21297187 c -0.5572979,0 -1.04099172,0.32957801 -1.27232295,0.80966003 H -5.742628e-7 v 0.630904 18.4118801 c 0,0.800138 0.6414198142628,1.440565 1.4195338742628,1.440565 h 0.06309 c 14.4056267,0.512087 26.0142817,3.531572 34.3106607,9.484589 8.212258,5.889007 13.21744,14.734692 14.542336,26.950114 0.08412,0.736125 0.693995,1.282838 1.409019,1.282838 h 25.478005 c 0.778114,0 1.409019,-0.630065 1.419534,-1.419534 0.437249,-4.552804 1.471559,-8.713712 3.11246,-12.470868 z" />
    </g>
    <g
       id="path695-7"
       style="fill:#000000;stroke-width:1.15687"
       transform="matrix(0.86440416,0,0,0.86440416,0.69922086,2.3121208)">
      <path
         style="color:#000000;fill:#000000;fill-rule:evenodd;stroke-width:2.16912;stroke-linecap:round;-inkscape-stroke:none"
         d="m 6.09375,14.53125 17.8125,12.1875"
         id="path1338" />
      <path
         style="color:#000000;fill:#000000;fill-rule:evenodd;stroke-width:1.15687;stroke-linecap:round;-inkscape-stroke:none"
         d="m 5.921875,13.609375 a 0.9375,0.9375 0 0 0 -0.6015625,0.392578 0.9375,0.9375 0 0 0 0.2441406,1.302735 L 23.376953,27.492187 a 0.9375,0.9375 0 0 0 1.302734,-0.24414 0.9375,0.9375 0 0 0 -0.24414,-1.302735 L 6.6230469,13.757813 A 0.9375,0.9375 0 0 0 5.921875,13.609375 Z"
         id="path1340" />
    </g>
  </g>
</svg>
