<?xml version="1.0" encoding="UTF-8" standalone="no"?>
<!-- Created with Inkscape (http://www.inkscape.org/) -->

<svg
   xmlns:dc="http://purl.org/dc/elements/1.1/"
   xmlns:cc="http://creativecommons.org/ns#"
   xmlns:rdf="http://www.w3.org/1999/02/22-rdf-syntax-ns#"
   xmlns:svg="http://www.w3.org/2000/svg"
   xmlns="http://www.w3.org/2000/svg"
   xmlns:sodipodi="http://sodipodi.sourceforge.net/DTD/sodipodi-0.dtd"
   xmlns:inkscape="http://www.inkscape.org/namespaces/inkscape"
   version="1.1"
   width="32"
   height="32"
   viewBox="0 0 30 30"
   id="svg2"
   inkscape:version="0.92.1 r15371"
   sodipodi:docname="l_private_caravan.svg"
   inkscape:export-filename="/home/sven/osm/campsite-map/icons/marker-cc.svg.png"
   inkscape:export-xdpi="96"
   inkscape:export-ydpi="96">
  <metadata
     id="metadata10">
    <rdf:RDF>
      <cc:Work
         rdf:about="">
        <dc:format>image/svg+xml</dc:format>
        <dc:type
           rdf:resource="http://purl.org/dc/dcmitype/StillImage" />
        <dc:title />
      </cc:Work>
    </rdf:RDF>
  </metadata>
  <defs
     id="defs8" />
  <sodipodi:namedview
     pagecolor="#ffffff"
     bordercolor="#666666"
     borderopacity="1"
     objecttolerance="10"
     gridtolerance="10"
     guidetolerance="10"
     inkscape:pageopacity="0"
     inkscape:pageshadow="2"
     inkscape:window-width="1686"
     inkscape:window-height="1108"
     id="namedview6"
     showgrid="false"
     inkscape:zoom="19.666407"
     inkscape:cx="15.14699"
     inkscape:cy="18.485314"
     inkscape:window-x="110"
     inkscape:window-y="20"
     inkscape:window-maximized="0"
     inkscape:current-layer="svg2"
     fit-margin-top="0"
     fit-margin-left="0"
     fit-margin-right="0"
     fit-margin-bottom="0" />
  <rect
     width="14"
     height="14"
     x="0"
     y="23.5"
     id="canvas"
     style="visibility:hidden;fill:none;stroke:none" />
  <path
     style="opacity:1;fill:#666666;fill-opacity:1;stroke:none;stroke-width:0;stroke-linecap:butt;stroke-linejoin:miter;stroke-miterlimit:4;stroke-dasharray:none;stroke-dashoffset:0;stroke-opacity:1"
     d="M 4.6875,0 C 2.090625,0 0,2.090625 0,4.6875 v 20.625 C 0,27.909375 2.090625,30 4.6875,30 h 20.625 C 27.909375,30 30,27.909375 30,25.3125 V 4.6875 C 30,2.090625 27.909375,0 25.3125,0 Z"
     id="rect5129"
     inkscape:connector-curvature="0"
     sodipodi:nodetypes="sssccssss" />
  <path
     style="fill:#ffffff;fill-opacity:1;fill-rule:nonzero;stroke:none;stroke-width:1.171875"
     d="m 5.133178,7.4287732 c -0.1503459,0 -0.2960888,0.042884 -0.4204088,0.1256068 L 2.021118,9.2975435 C 1.927178,9.3926991 1.875,9.522801 1.875,9.656431 v 0.589598 c 0,0.134428 0.052178,0.264529 0.146118,0.358889 l 0.6408696,0.638305 c 0.141792,0.141791 0.3350214,0.223024 0.5357658,0.223024 h 6.7521973 v 0.505003 l -2.5147694,0.448609 c -0.1984654,0.03529 -0.3746849,0.14866 -0.4896248,0.315306 L 5.084472,15.442198 c -0.11893,0.172814 -0.2879086,0.304144 -0.4844965,0.376833 L 2.205687,16.695738 C 2.0067904,16.769128 1.875,16.957496 1.875,17.169981 v 2.878786 c 0,0.27851 0.2264878,0.502443 0.5050051,0.502443 h 2.0200196 c 0,-1.393639 1.1289151,-2.522463 2.5224611,-2.522463 1.3948342,0 2.5250231,1.128824 2.5250231,2.522463 h 9.5899651 c 0,-1.393639 1.131382,-2.522463 2.525025,-2.522463 1.393533,0 2.522462,1.128824 2.522462,2.522463 h 1.012574 L 28.125,19.543762 V 8.9437843 c 0,-0.2796023 -0.226502,-0.5075685 -0.505003,-0.5075685 H 21.057493 L 19.037474,7.4287693 Z m 1.0330826,1.0074451 h 3.5324701 c 0.13986,0 0.25122,0.113971 0.25122,0.2537849 v 1.5150148 c 0,0.139804 -0.1114122,0.25122 -0.25122,0.25122 H 6.1662606 c -0.13986,0 -0.253785,-0.111427 -0.253785,-0.25122 V 8.6900032 c 0,-0.1398049 0.1139033,-0.2537849 0.253785,-0.2537849 z m 7.5699454,3.0300297 h 4.040037 c 0.140995,0 0.251222,0.111416 0.251222,0.251221 v 7.572512 c 0,0.139803 -0.11022,0.253782 -0.251222,0.253782 h -4.040037 c -0.138601,0 -0.251221,-0.113971 -0.251221,-0.253782 v -7.572512 c 0,-0.139804 0.112541,-0.251221 0.251221,-0.251221 z m 6.565063,0 h 3.532469 c 0.138742,0 0.251223,0.111416 0.251223,0.251221 v 2.525025 c 0,0.139805 -0.112528,0.253783 -0.251223,0.253783 h -3.532469 c -0.139861,0 -0.253784,-0.113983 -0.253784,-0.253783 v -2.525025 c 0,-0.139804 0.114029,-0.251221 0.253784,-0.251221 z M 7.6966551,12.878724 h 2.0020756 c 0.13986,0 0.25122,0.114767 0.25122,0.253784 v 2.332765 c 0,0.134735 -0.1035436,0.246148 -0.2384028,0.25122 L 5.8073732,15.89081 c -0.11186,0.005 -0.2077991,-0.08159 -0.2127692,-0.192262 -0.0028,-0.04355 0.011479,-0.08518 0.035897,-0.120482 l 1.6483147,-2.473755 c 0.093241,-0.140597 0.2489089,-0.225585 0.4178469,-0.225585 z m -0.7741693,5.655029 c -1.115128,0 -2.0200207,0.90233 -2.0200207,2.017458 0,1.115129 0.9048927,2.02002 2.0200207,2.02002 1.1151281,0 2.0174562,-0.904891 2.0174562,-2.02002 0,-1.115128 -0.9023281,-2.017458 -2.0174562,-2.017458 z m 14.6400132,0 c -1.115127,0 -2.02002,0.90233 -2.02002,2.017458 0,1.115129 0.904893,2.02002 2.02002,2.02002 1.115017,0 2.017458,-0.904891 2.017458,-2.02002 0,-1.115128 -0.902441,-2.017458 -2.017458,-2.017458 z"
     id="path5733"
     inkscape:connector-curvature="0" />
</svg>
