<?xml version="1.0" encoding="UTF-8" standalone="no"?>
<svg
   id="svg2"
   viewBox="0 0 30 30"
   height="32"
   width="32"
   version="1.1"
   xmlns="http://www.w3.org/2000/svg"
   xmlns:svg="http://www.w3.org/2000/svg"
   xmlns:rdf="http://www.w3.org/1999/02/22-rdf-syntax-ns#"
   xmlns:cc="http://creativecommons.org/ns#"
   xmlns:dc="http://purl.org/dc/elements/1.1/">
  <metadata
     id="metadata10">
    <rdf:RDF>
      <cc:Work
         rdf:about="">
        <dc:format>image/svg+xml</dc:format>
        <dc:type
           rdf:resource="http://purl.org/dc/dcmitype/StillImage" />
      </cc:Work>
    </rdf:RDF>
  </metadata>
  <defs
     id="defs8" />
  <circle
     style="fill:#000080;fill-opacity:1;stroke:none;stroke-width:0;stroke-linecap:square;stroke-dasharray:none;paint-order:stroke fill markers;stop-color:#000000"
     id="path961"
     cx="15"
     cy="15"
     r="15" />
  <rect
     style="visibility:hidden;fill:none;stroke:none"
     id="canvas"
     y="23.5"
     x="0"
     height="14"
     width="14" />
  <g
     id="g3125"
     transform="translate(38.068739,28.927412)">
    <rect
       style="visibility:hidden;fill:none;stroke:none"
       id="canvas-1-6"
       y="-15.302778"
       x="-28.193739"
       height="14"
       width="14" />
    <circle
       style="fill:#ffffff;fill-opacity:1;stroke:none;stroke-width:0;stroke-linejoin:round;stroke-dasharray:none;paint-order:stroke fill markers;stop-color:#000000"
       id="path1449-5-0-9-2-5-2-0"
       cx="-23.068739"
       cy="-13.927412"
       r="12.65625" />
    <g
       id="g1397"
       transform="matrix(0.83333333,0,0,0.83333333,-22.801261,-9.0932865)"
       style="stroke-width:1.2">
      <path
         style="fill:#5050ff;fill-opacity:1;stroke-width:2.51591"
         id="camping-5"
         d="m 13.718345,-2.4648137 -6.4285713,-11.7857153 1.071429,-3.214285 h -1.071429 l -1.071428,2.142856 -1.07143,-2.142856 h -1.071429 l 1.071429,3.214285 -6.428571,11.7857153 z m -7.5000003,-7.500001 3.214285,6.428572 h -6.428571 z" />
      <path
         d="m -9.7495458,-9.2695924 c -1.4732142,0 -2.9464282,1.4999986 -2.9464282,2.9999971 v 6.00000425 c 0,1.50000055 1.473214,3.00000115 2.9464282,3.00000115 h 1.5652906 c 0.3434295,-1.708815 1.8111361,-3.00000115 3.5909598,-3.00000115 1.7798256,0 3.2475318,1.29118615 3.5909599,3.00000115 h 8.9313616 c 0,0 0,-1.5000006 -1.4732157,-1.5000006 H 4.2459888 v -7.5000048 c 0,-1.4409948 -1.5090664,-2.9999971 -2.9464254,-2.9999971 z m 5.1562504,10.5000019 c -1.2204502,0 -2.2098217,1.0073565 -2.2098217,2.2500003 0,1.2426389 0.9893715,2.2499983 2.2098217,2.2499983 1.2204497,0 2.2098215,-1.0073594 2.2098215,-2.2499983 0,-1.2426438 -0.9893718,-2.2500003 -2.2098215,-2.2500003 z"
         id="caravan"
         style="fill:#000080;fill-opacity:1;stroke:none;stroke-width:1.5597" />
      <path
         id="caravan-7-6"
         style="fill:#ffffff;fill-opacity:1;stroke:none;stroke-width:1.5597"
         d="m -8.3389922,-6.2774688 c -0.040279,-0.0029 -0.097937,-0.0029 -0.1669875,0.0088 -0.4143288,0.07032 -1.2436193,0.373535 -1.2436193,1.498535 0,1.499999 1.4743261,1.500732 1.4743261,1.500732 h 2.9464533 c 0,0 1.4721281,-7.33e-4 1.4721281,-1.500732 0,-1.500002 -1.4721281,-1.498535 -1.4721281,-1.498535 h -2.9464533 c 0,0 -0.023439,-0.0059 -0.063719,-0.0088 z m 7.42875399,0.0088 c 0,0 -1.47212809,-0.0015 -1.47212809,1.498535 0,1.499999 1.47212809,1.500732 1.47212809,1.500732 h 0.73606409 c 0,0 1.47432522,-7.33e-4 1.47432522,-1.500732 0,-1.500002 -1.47432522,-1.498535 -1.47432522,-1.498535 z" />
    </g>
  </g>
</svg>
