<?xml version="1.0" encoding="UTF-8" standalone="no"?>
<svg
   id="svg2"
   viewBox="0 0 33.75 42.1875"
   height="45"
   width="36"
   version="1.1"
   xmlns="http://www.w3.org/2000/svg"
   xmlns:svg="http://www.w3.org/2000/svg"
   xmlns:rdf="http://www.w3.org/1999/02/22-rdf-syntax-ns#"
   xmlns:cc="http://creativecommons.org/ns#"
   xmlns:dc="http://purl.org/dc/elements/1.1/">
  <metadata
     id="metadata10">
    <rdf:RDF>
      <cc:Work
         rdf:about="">
        <dc:format>image/svg+xml</dc:format>
        <dc:type
           rdf:resource="http://purl.org/dc/dcmitype/StillImage" />
      </cc:Work>
    </rdf:RDF>
  </metadata>
  <defs
     id="defs8" />
  <path
     style="color:#000000;fill:#ff0000;stroke-width:1;-inkscape-stroke:none"
     d="M 6.5625,0 C 2.959311,0 0,2.9642515 0,6.5734561 V 27.23289 c 0,3.609204 2.959311,6.573456 6.5625,6.573456 h 2.46875 l 7.84375,8.381156 7.84375,-8.381156 h 2.46875 c 3.603189,0 6.5625,-2.964252 6.5625,-6.573456 V 6.5734561 C 33.75,2.9642516 30.790689,0 27.1875,0 Z"
     id="rect5129-3" />
  <rect
     width="14"
     height="14"
     x="1.875"
     y="25.375"
     id="canvas"
     style="visibility:hidden;fill:none;stroke:none" />
  <rect
     width="14"
     height="14"
     x="1.875"
     y="25.375"
     id="canvas-3"
     style="visibility:hidden;fill:none;stroke:none" />
  <rect
     width="14"
     height="14"
     x="1.875"
     y="25.375"
     id="canvas-5"
     style="visibility:hidden;fill:none;stroke:none" />
  <rect
     width="14"
     height="14"
     x="1.875"
     y="25.375"
     id="canvas-6"
     style="visibility:hidden;fill:none;stroke:none" />
  <rect
     width="14"
     height="14"
     x="1.875"
     y="25.375"
     id="canvas-2"
     style="visibility:hidden;fill:none;stroke:none" />
  <path
     style="fill:#225500;fill-opacity:1;stroke:none;stroke-width:0;stroke-linecap:butt;stroke-linejoin:miter;stroke-miterlimit:4;stroke-dasharray:none;stroke-dashoffset:0;stroke-opacity:1"
     d="M 6.5625,1.875 C 3.965625,1.875 1.875,3.965625 1.875,6.5625 v 20.625 c 0,2.596875 2.090625,4.6875 4.6875,4.6875 h 3.28125 l 7.03125,7.5 7.03125,-7.5 h 3.28125 c 2.596875,0 4.6875,-2.090625 4.6875,-4.6875 V 6.5625 c 0,-2.596875 -2.090625,-4.6875 -4.6875,-4.6875 z"
     id="rect5129" />
  <rect
     width="13.125"
     height="13.125"
     x="2.6913733"
     y="19.197683"
     id="canvas-5-9"
     style="visibility:hidden;fill:none;stroke:none;stroke-width:0.9375" />
  <g
     id="g5857"
     transform="matrix(1.1904762,0,0,1.1904762,0.2217094,-0.6310205)"
     style="stroke-width:0.84">
    <path
       id="path2496"
       d="m 20.197522,5.9490886 -1.500886,4.5802934 h 0.750443 l -1.500887,4.580293 h 0.750444 L 16.45234,20.25177 h 3.369958 v 2.300881 h 0.750448 V 20.25177 h 3.250357 l 0.0094,-0.06794 -2.134075,-5.07411 h 0.750444 l -1.500886,-4.580296 h 0.750444 z"
       style="fill:#ffffff;fill-rule:evenodd;stroke:none;stroke-width:0.0921676px;stroke-linecap:butt;stroke-linejoin:miter;stroke-opacity:1" />
    <path
       style="fill:#ffffff;stroke-width:1.377"
       id="camping"
       d="m 17.270025,24.548807 -5.624999,-10.312501 0.9375,-2.812499 h -0.9375 l -0.9375,1.874999 -0.9375006,-1.874999 H 8.832525 L 9.7700254,14.236306 4.145025,24.548807 Z m -6.5625,-6.562501 2.812501,5.625002 H 7.8950252 Z" />
    <path
       id="path2496-6"
       d="m 15.632511,4.8613066 -0.808619,2.467679 h 0.404309 l -0.808619,2.46768 h 0.40431 l -1.209137,2.7703574 h 1.8156 v 1.239623 h 0.404311 v -1.239623 h 1.751163 l 0.0052,-0.03661 -1.149824,-2.7337284 h 0.40431 L 16.03683,7.3290036 h 0.404309 z"
       style="fill:#ffffff;fill-rule:evenodd;stroke:none;stroke-width:0.0496562px;stroke-linecap:butt;stroke-linejoin:miter;stroke-opacity:1" />
  </g>
  <path
     style="font-style:normal;font-variant:normal;font-weight:900;font-stretch:normal;font-size:11.711px;line-height:125%;font-family:'Noto Sans';-inkscape-font-specification:'Noto Sans, Heavy';font-variant-ligatures:normal;font-variant-caps:normal;font-variant-numeric:normal;font-feature-settings:normal;text-align:end;letter-spacing:0px;word-spacing:0px;writing-mode:lr-tb;text-anchor:end;fill:#ff0000;fill-opacity:1;stroke:none;stroke-width:0.9375px;stroke-linecap:butt;stroke-linejoin:miter;stroke-opacity:1"
     d="m 24.84375,21.637502 0.611113,11.286458 h 3.934025 L 30,21.637502 Z m 2.56667,13.169442 c -0.683996,0 -1.278834,0.169817 -1.783682,0.511808 -0.488565,0.341994 -0.733336,0.936833 -0.733336,1.783679 0,0.797989 0.244771,1.375746 0.733336,1.73403 0.504848,0.35828 1.099687,0.538539 1.783682,0.538539 0.667704,0 1.245458,-0.180263 1.734024,-0.538539 0.488565,-0.358284 0.733332,-0.936041 0.733332,-1.73403 0,-0.846846 -0.244767,-1.441685 -0.733332,-1.783679 -0.488566,-0.341996 -1.06632,-0.511808 -1.734024,-0.511808 z"
     id="path826-8" />
</svg>
