<?xml version="1.0" encoding="UTF-8" standalone="no"?>
<!-- Created with Inkscape (http://www.inkscape.org/) -->

<svg
   xmlns:dc="http://purl.org/dc/elements/1.1/"
   xmlns:cc="http://creativecommons.org/ns#"
   xmlns:rdf="http://www.w3.org/1999/02/22-rdf-syntax-ns#"
   xmlns:svg="http://www.w3.org/2000/svg"
   xmlns="http://www.w3.org/2000/svg"
   xmlns:sodipodi="http://sodipodi.sourceforge.net/DTD/sodipodi-0.dtd"
   xmlns:inkscape="http://www.inkscape.org/namespaces/inkscape"
   version="1.1"
   width="32"
   height="40"
   viewBox="0 0 30 37.5"
   id="svg2"
   inkscape:version="0.92.1 r15371"
   sodipodi:docname="m_camping.svg"
   inkscape:export-filename="/home/sven/osm/campsite-map/icons/marker-cc.svg.png"
   inkscape:export-xdpi="96"
   inkscape:export-ydpi="96">
  <metadata
     id="metadata10">
    <rdf:RDF>
      <cc:Work
         rdf:about="">
        <dc:format>image/svg+xml</dc:format>
        <dc:type
           rdf:resource="http://purl.org/dc/dcmitype/StillImage" />
        <dc:title></dc:title>
      </cc:Work>
    </rdf:RDF>
  </metadata>
  <defs
     id="defs8" />
  <sodipodi:namedview
     pagecolor="#ffffff"
     bordercolor="#666666"
     borderopacity="1"
     objecttolerance="10"
     gridtolerance="10"
     guidetolerance="10"
     inkscape:pageopacity="0"
     inkscape:pageshadow="2"
     inkscape:window-width="1686"
     inkscape:window-height="1108"
     id="namedview6"
     showgrid="false"
     inkscape:zoom="22.25"
     inkscape:cx="15.591924"
     inkscape:cy="21.145245"
     inkscape:window-x="170"
     inkscape:window-y="0"
     inkscape:window-maximized="0"
     inkscape:current-layer="svg2" />
  <rect
     width="14"
     height="14"
     x="0"
     y="23.5"
     id="canvas"
     style="visibility:hidden;fill:none;stroke:none" />
  <path
     style="opacity:1;fill:#000080;fill-opacity:1;stroke:none;stroke-width:0;stroke-linecap:butt;stroke-linejoin:miter;stroke-miterlimit:4;stroke-dasharray:none;stroke-dashoffset:0;stroke-opacity:1"
     d="M 5 0 C 2.23 0 0 2.23 0 5 L 0 27 C 0 29.77 2.23 32 5 32 L 8.5 32 L 16 40 L 23.5 32 L 27 32 C 29.77 32 32 29.77 32 27 L 32 5 C 32 2.23 29.77 0 27 0 L 5 0 z "
     transform="scale(0.9375)"
     id="rect5129" />
  <path
     inkscape:connector-curvature="0"
     d="M 26.250001,26.25 16.607143,8.571429 18.214286,3.750001 H 16.607143 L 15.000001,6.964285 13.392856,3.750001 H 11.785713 L 13.392856,8.571429 3.75,26.25 Z M 15,14.999998 l 4.821427,9.642858 h -9.642856 z"
     id="camping-5"
     style="fill:#ffffff;stroke-width:2.09659481" />
</svg>
