<?xml version="1.0" encoding="UTF-8" standalone="no"?>
<!-- Created with Inkscape (http://www.inkscape.org/) -->

<svg
   xmlns:dc="http://purl.org/dc/elements/1.1/"
   xmlns:cc="http://creativecommons.org/ns#"
   xmlns:rdf="http://www.w3.org/1999/02/22-rdf-syntax-ns#"
   xmlns:svg="http://www.w3.org/2000/svg"
   xmlns="http://www.w3.org/2000/svg"
   xmlns:sodipodi="http://sodipodi.sourceforge.net/DTD/sodipodi-0.dtd"
   xmlns:inkscape="http://www.inkscape.org/namespaces/inkscape"
   version="1.1"
   width="32"
   height="40"
   viewBox="0 0 30 37.5"
   id="svg2"
   inkscape:version="0.92.1 r15371"
   sodipodi:docname="m_caravan.svg"
   inkscape:export-filename="/home/sven/osm/campsite-map/icons/marker-cc.svg.png"
   inkscape:export-xdpi="96"
   inkscape:export-ydpi="96">
  <metadata
     id="metadata10">
    <rdf:RDF>
      <cc:Work
         rdf:about="">
        <dc:format>image/svg+xml</dc:format>
        <dc:type
           rdf:resource="http://purl.org/dc/dcmitype/StillImage" />
        <dc:title />
      </cc:Work>
    </rdf:RDF>
  </metadata>
  <defs
     id="defs8" />
  <sodipodi:namedview
     pagecolor="#ffffff"
     bordercolor="#666666"
     borderopacity="1"
     objecttolerance="10"
     gridtolerance="10"
     guidetolerance="10"
     inkscape:pageopacity="0"
     inkscape:pageshadow="2"
     inkscape:window-width="1686"
     inkscape:window-height="1108"
     id="namedview6"
     showgrid="false"
     inkscape:zoom="13"
     inkscape:cx="2.8855253"
     inkscape:cy="28.696855"
     inkscape:window-x="100"
     inkscape:window-y="63"
     inkscape:window-maximized="0"
     inkscape:current-layer="svg2" />
  <rect
     width="14"
     height="14"
     x="0"
     y="23.5"
     id="canvas"
     style="visibility:hidden;fill:none;stroke:none" />
  <path
     style="opacity:1;fill:#000080;fill-opacity:1;stroke:none;stroke-width:0;stroke-linecap:butt;stroke-linejoin:miter;stroke-miterlimit:4;stroke-dasharray:none;stroke-dashoffset:0;stroke-opacity:1"
     d="M 5 0 C 2.23 0 0 2.23 0 5 L 0 27 C 0 29.77 2.23 32 5 32 L 8.5 32 L 16 40 L 23.5 32 L 27 32 C 29.77 32 32 29.77 32 27 L 32 5 C 32 2.23 29.77 0 27 0 L 5 0 z "
     transform="scale(0.9375)"
     id="rect5129" />
  <path
     style="fill:#ffffff;fill-opacity:1;fill-rule:nonzero;stroke:none;stroke-width:1.171875"
     d="m 5.1331782,7.428794 c -0.150346,0 -0.2960888,0.04288 -0.4204088,0.125608 L 2.0211182,9.297565 c -0.09394,0.09516 -0.146118,0.225258 -0.146118,0.358888 v 0.589598 c 0,0.134428 0.052178,0.264528 0.146118,0.358889 l 0.6408696,0.638305 c 0.141792,0.14179 0.3350214,0.223023 0.535766,0.223023 h 6.752197 v 0.505003 L 7.4351814,12.41988 c -0.1984654,0.03529 -0.3746848,0.148661 -0.4896248,0.315307 l -1.8610844,2.707032 c -0.11893,0.172814 -0.2879086,0.304144 -0.4844966,0.376832 l -2.3942884,0.876708 c -0.1988966,0.07339 -0.330687,0.261757 -0.330687,0.474243 v 2.878785 c 0,0.278509 0.2264878,0.502442 0.5050052,0.502442 h 2.0200194 c 0,-1.393638 1.1289152,-2.522462 2.5224612,-2.522462 1.394834,0 2.5250228,1.128824 2.5250228,2.522462 h 9.5899662 c 0,-1.393638 1.131381,-2.522462 2.525025,-2.522462 1.393532,0 2.522461,1.128824 2.522461,2.522462 h 1.012574 L 28.125,19.543782 V 8.943806 c 0,-0.279602 -0.226502,-0.507568 -0.505004,-0.507568 H 21.057494 L 19.037475,7.428792 Z m 1.0330824,1.007445 h 3.5324702 c 0.13986,0 0.25122,0.113974 0.25122,0.253784 v 1.515015 c 0,0.139804 -0.111412,0.251221 -0.25122,0.251221 H 6.1662606 c -0.13986,0 -0.253785,-0.111426 -0.253785,-0.251221 V 8.690023 c 0,-0.139804 0.113904,-0.253784 0.253785,-0.253784 z m 7.5699454,3.03003 h 4.040038 c 0.140994,0 0.251221,0.111412 0.251221,0.25122 v 7.57251 c 0,0.139804 -0.110222,0.253784 -0.251221,0.253784 h -4.040038 c -0.1386,0 -0.251221,-0.113978 -0.251221,-0.253784 v -7.57251 c 0,-0.139804 0.112546,-0.25122 0.251221,-0.25122 z m 6.565063,0 h 3.53247 c 0.13874,0 0.251222,0.111412 0.251222,0.25122 v 2.525025 c 0,0.139804 -0.112532,0.253783 -0.251222,0.253783 h -3.53247 c -0.13986,0 -0.253784,-0.113988 -0.253784,-0.253783 v -2.525025 c 0,-0.139804 0.11403,-0.25122 0.253784,-0.25122 z M 7.6966552,12.878744 h 2.0020756 c 0.13986,0 0.25122,0.114772 0.25122,0.253784 v 2.332764 c 0,0.134736 -0.103544,0.246149 -0.238403,0.25122 l -3.9041744,0.174317 c -0.11186,0.005 -0.2077992,-0.08159 -0.2127692,-0.192261 -0.0028,-0.04355 0.01148,-0.08518 0.035896,-0.120484 l 1.6483152,-2.473755 c 0.09324,-0.140596 0.2489088,-0.225585 0.4178468,-0.225585 z M 6.922486,18.533773 c -1.115128,0 -2.0200208,0.902328 -2.0200208,2.017457 0,1.115128 0.9048928,2.02002 2.0200208,2.02002 1.115128,0 2.017456,-0.904892 2.017456,-2.02002 0,-1.115129 -0.902328,-2.017457 -2.017456,-2.017457 z m 14.640014,0 c -1.115128,0 -2.02002,0.902328 -2.02002,2.017457 0,1.115128 0.904892,2.02002 2.02002,2.02002 1.115016,0 2.017456,-0.904892 2.017456,-2.02002 0,-1.115129 -0.90244,-2.017457 -2.017456,-2.017457 z"
     id="path5733"
     inkscape:connector-curvature="0" />
</svg>
