<?xml version="1.0" encoding="UTF-8" standalone="no"?>
<svg
   id="svg2"
   viewBox="0 0 33.75 42.1875"
   height="45"
   width="36"
   version="1.1"
   xmlns="http://www.w3.org/2000/svg"
   xmlns:svg="http://www.w3.org/2000/svg"
   xmlns:rdf="http://www.w3.org/1999/02/22-rdf-syntax-ns#"
   xmlns:cc="http://creativecommons.org/ns#"
   xmlns:dc="http://purl.org/dc/elements/1.1/">
  <metadata
     id="metadata10">
    <rdf:RDF>
      <cc:Work
         rdf:about="">
        <dc:format>image/svg+xml</dc:format>
        <dc:type
           rdf:resource="http://purl.org/dc/dcmitype/StillImage" />
      </cc:Work>
    </rdf:RDF>
  </metadata>
  <defs
     id="defs8" />
  <path
     style="color:#000000;fill:#ff0000;stroke-width:1;-inkscape-stroke:none"
     d="M 6.5625,0 C 2.959311,0 0,2.9642515 0,6.5734561 V 27.23289 c 0,3.609204 2.959311,6.573456 6.5625,6.573456 h 2.46875 l 7.84375,8.381156 7.84375,-8.381156 h 2.46875 c 3.603189,0 6.5625,-2.964252 6.5625,-6.573456 V 6.5734561 C 33.75,2.9642516 30.790689,0 27.1875,0 Z"
     id="rect5129-3" />
  <rect
     width="14"
     height="14"
     x="1.875"
     y="25.375"
     id="canvas"
     style="visibility:hidden;fill:none;stroke:none" />
  <rect
     width="14"
     height="14"
     x="1.875"
     y="25.375"
     id="canvas-3"
     style="visibility:hidden;fill:none;stroke:none" />
  <path
     style="fill:#000080;fill-opacity:1;stroke:none;stroke-width:0;stroke-linecap:butt;stroke-linejoin:miter;stroke-miterlimit:4;stroke-dasharray:none;stroke-dashoffset:0;stroke-opacity:1"
     d="M 6.5625,1.875 C 3.965625,1.875 1.875,3.965625 1.875,6.5625 v 20.625 c 0,2.596875 2.090625,4.6875 4.6875,4.6875 h 3.28125 l 7.03125,7.5 7.03125,-7.5 h 3.28125 c 2.596875,0 4.6875,-2.090625 4.6875,-4.6875 V 6.5625 c 0,-2.596875 -2.090625,-4.6875 -4.6875,-4.6875 z"
     id="rect5129" />
  <path
     d="M 28.125001,28.125 18.482143,10.446429 20.089286,5.625001 H 18.482143 L 16.875001,8.839285 15.267856,5.625001 H 13.660713 L 15.267856,10.446429 5.625,28.125 Z M 16.875,16.874998 l 4.821427,9.642858 h -9.642856 z"
     id="camping-5"
     style="fill:#ffffff;stroke-width:2.09659" />
  <path
     style="font-style:normal;font-variant:normal;font-weight:900;font-stretch:normal;font-size:11.711px;line-height:125%;font-family:'Noto Sans';-inkscape-font-specification:'Noto Sans, Heavy';font-variant-ligatures:normal;font-variant-caps:normal;font-variant-numeric:normal;font-feature-settings:normal;text-align:end;letter-spacing:0px;word-spacing:0px;writing-mode:lr-tb;text-anchor:end;fill:#ff0000;fill-opacity:1;stroke:none;stroke-width:0.9375px;stroke-linecap:butt;stroke-linejoin:miter;stroke-opacity:1"
     d="m 24.84375,21.637502 0.611113,11.286458 h 3.934025 L 30,21.637502 Z m 2.56667,13.169442 c -0.683996,0 -1.278834,0.169817 -1.783682,0.511808 -0.488565,0.341994 -0.733336,0.936833 -0.733336,1.783679 0,0.797989 0.244771,1.375746 0.733336,1.73403 0.504848,0.35828 1.099687,0.538539 1.783682,0.538539 0.667704,0 1.245458,-0.180263 1.734024,-0.538539 0.488565,-0.358284 0.733332,-0.936041 0.733332,-1.73403 0,-0.846846 -0.244767,-1.441685 -0.733332,-1.783679 -0.488566,-0.341996 -1.06632,-0.511808 -1.734024,-0.511808 z"
     id="path826-8" />
</svg>
