<?xml version="1.0" encoding="UTF-8" standalone="no"?>
<svg
   id="svg2"
   viewBox="0 0 30 37.5"
   height="40"
   width="32"
   version="1.1"
   sodipodi:docname="m_camping.svg"
   inkscape:version="1.2.2 (b0a8486541, 2022-12-01)"
   xmlns:inkscape="http://www.inkscape.org/namespaces/inkscape"
   xmlns:sodipodi="http://sodipodi.sourceforge.net/DTD/sodipodi-0.dtd"
   xmlns="http://www.w3.org/2000/svg"
   xmlns:svg="http://www.w3.org/2000/svg"
   xmlns:rdf="http://www.w3.org/1999/02/22-rdf-syntax-ns#"
   xmlns:cc="http://creativecommons.org/ns#"
   xmlns:dc="http://purl.org/dc/elements/1.1/">
  <sodipodi:namedview
     id="namedview5338"
     pagecolor="#ffffff"
     bordercolor="#666666"
     borderopacity="1.0"
     inkscape:showpageshadow="2"
     inkscape:pageopacity="0.0"
     inkscape:pagecheckerboard="0"
     inkscape:deskcolor="#d1d1d1"
     showgrid="false"
     inkscape:zoom="5.9"
     inkscape:cx="15.847458"
     inkscape:cy="20"
     inkscape:window-width="1292"
     inkscape:window-height="839"
     inkscape:window-x="470"
     inkscape:window-y="50"
     inkscape:window-maximized="0"
     inkscape:current-layer="g3963" />
  <metadata
     id="metadata10">
    <rdf:RDF>
      <cc:Work
         rdf:about="">
        <dc:format>image/svg+xml</dc:format>
        <dc:type
           rdf:resource="http://purl.org/dc/dcmitype/StillImage" />
      </cc:Work>
    </rdf:RDF>
  </metadata>
  <defs
     id="defs8" />
  <rect
     style="visibility:hidden;fill:none;stroke:none"
     id="canvas"
     y="23.5"
     x="0"
     height="14"
     width="14" />
  <g
     id="g617"
     transform="translate(11.504237,30.985169)">
    <path
       id="path1449-7-9-0-2-0-67"
       style="fill:#000080;fill-opacity:1;stroke-width:0;stroke-linejoin:round;paint-order:stroke fill markers;stop-color:#000000"
       d="m 3.495763,-30.985169 c -8.28426,0 -15,6.715737 -15,15 0,4.142132 1.10324,6.613568 4.56116,11.196899 3.45792,4.583332 7.89783,9.027822 10.43884,11.303101 2.541009,-2.275279 6.980923,-6.719769 10.438843,-11.303101 3.45792,-4.583331 4.561157,-7.054767 4.561157,-11.196899 0,-8.284263 -6.715737,-15 -15,-15 z" />
    <g
       id="g3963"
       transform="translate(32.190785,23.87629)">
      <circle
         style="fill:#ffffff;fill-opacity:1;stroke:none;stroke-width:0;stroke-linejoin:round;stroke-dasharray:none;paint-order:stroke fill markers;stop-color:#000000"
         id="path1449-5-0-9-2-5-1"
         cx="-28.695023"
         cy="-39.861458"
         r="12.65625" />
      <path
         style="fill:#000080;fill-opacity:1;stroke-width:2.35653"
         id="camping-5-8"
         d="m -20.265106,-32.809572 -7.225641,-13.247014 1.20427,-3.612821 h -1.20427 l -1.204275,2.408547 -1.204277,-2.408547 h -1.204271 l 1.204271,3.612821 -7.225642,13.247014 z m -8.429917,-8.429919 3.612819,7.225643 h -7.22564 z" />
    </g>
  </g>
</svg>
