<?xml version="1.0" encoding="UTF-8" standalone="no"?>
<svg
   id="svg2"
   viewBox="0 0 33.75 42.1875"
   height="45"
   width="36"
   version="1.1"
   xmlns="http://www.w3.org/2000/svg"
   xmlns:svg="http://www.w3.org/2000/svg"
   xmlns:rdf="http://www.w3.org/1999/02/22-rdf-syntax-ns#"
   xmlns:cc="http://creativecommons.org/ns#"
   xmlns:dc="http://purl.org/dc/elements/1.1/">
  <metadata
     id="metadata10">
    <rdf:RDF>
      <cc:Work
         rdf:about="">
        <dc:format>image/svg+xml</dc:format>
        <dc:type
           rdf:resource="http://purl.org/dc/dcmitype/StillImage" />
      </cc:Work>
    </rdf:RDF>
  </metadata>
  <defs
     id="defs8" />
  <path
     style="color:#000000;fill:#ff0000;stroke-width:1;-inkscape-stroke:none"
     d="M 6.5625,0 C 2.959311,0 0,2.9642515 0,6.5734561 V 27.23289 c 0,3.609204 2.959311,6.573456 6.5625,6.573456 h 2.46875 l 7.84375,8.381156 7.84375,-8.381156 h 2.46875 c 3.603189,0 6.5625,-2.964252 6.5625,-6.573456 V 6.5734561 C 33.75,2.9642516 30.790689,0 27.1875,0 Z"
     id="rect5129-3" />
  <rect
     width="14"
     height="14"
     x="1.875"
     y="25.375"
     id="canvas"
     style="visibility:hidden;fill:none;stroke:none" />
  <rect
     width="14"
     height="14"
     x="1.875"
     y="25.375"
     id="canvas-3"
     style="visibility:hidden;fill:none;stroke:none" />
  <rect
     width="14"
     height="14"
     x="1.875"
     y="25.375"
     id="canvas-5"
     style="visibility:hidden;fill:none;stroke:none" />
  <path
     style="fill:#000080;fill-opacity:1;stroke:none;stroke-width:0;stroke-linecap:butt;stroke-linejoin:miter;stroke-miterlimit:4;stroke-dasharray:none;stroke-dashoffset:0;stroke-opacity:1"
     d="M 6.5625,1.875 C 3.965625,1.875 1.875,3.965625 1.875,6.5625 v 20.625 c 0,2.596875 2.090625,4.6875 4.6875,4.6875 h 3.28125 l 7.03125,7.5 7.03125,-7.5 h 3.28125 c 2.596875,0 4.6875,-2.090625 4.6875,-4.6875 V 6.5625 c 0,-2.596875 -2.090625,-4.6875 -4.6875,-4.6875 z"
     id="rect5129" />
  <path
     style="fill:#ffffff;fill-opacity:1;fill-rule:nonzero;stroke:none;stroke-width:1.17188"
     d="m 7.0081782,9.303794 c -0.150346,0 -0.2960888,0.04288 -0.4204088,0.125608 l -2.6916512,1.743163 c -0.09394,0.09516 -0.146118,0.225258 -0.146118,0.358888 v 0.589598 c 0,0.134428 0.052178,0.264528 0.146118,0.358889 l 0.6408696,0.638305 c 0.141792,0.14179 0.3350214,0.223023 0.535766,0.223023 h 6.7521972 v 0.505003 L 9.3101814,14.29488 C 9.111716,14.33017 8.9354966,14.443541 8.8205566,14.610187 l -1.8610844,2.707032 c -0.11893,0.172814 -0.2879086,0.304144 -0.4844966,0.376832 l -2.3942884,0.876708 c -0.1988966,0.07339 -0.330687,0.261757 -0.330687,0.474243 v 2.878785 c 0,0.278509 0.2264878,0.502442 0.5050052,0.502442 h 2.0200194 c 0,-1.393638 1.1289152,-2.522462 2.5224612,-2.522462 1.394834,0 2.525023,1.128824 2.525023,2.522462 h 9.589966 c 0,-1.393638 1.131381,-2.522462 2.525025,-2.522462 1.393532,0 2.522461,1.128824 2.522461,2.522462 h 1.012574 L 30,21.418782 V 10.818806 c 0,-0.279602 -0.226502,-0.507568 -0.505004,-0.507568 H 22.932494 L 20.912475,9.303792 Z m 1.0330824,1.007445 h 3.5324704 c 0.13986,0 0.25122,0.113974 0.25122,0.253784 v 1.515015 c 0,0.139804 -0.111412,0.251221 -0.25122,0.251221 H 8.0412606 c -0.13986,0 -0.253785,-0.111426 -0.253785,-0.251221 v -1.515015 c 0,-0.139804 0.113904,-0.253784 0.253785,-0.253784 z m 7.5699454,3.03003 h 4.040038 c 0.140994,0 0.251221,0.111412 0.251221,0.25122 v 7.57251 c 0,0.139804 -0.110222,0.253784 -0.251221,0.253784 h -4.040038 c -0.1386,0 -0.251221,-0.113978 -0.251221,-0.253784 v -7.57251 c 0,-0.139804 0.112546,-0.25122 0.251221,-0.25122 z m 6.565063,0 h 3.53247 c 0.13874,0 0.251222,0.111412 0.251222,0.25122 v 2.525025 c 0,0.139804 -0.112532,0.253783 -0.251222,0.253783 h -3.53247 c -0.13986,0 -0.253784,-0.113988 -0.253784,-0.253783 v -2.525025 c 0,-0.139804 0.11403,-0.25122 0.253784,-0.25122 z M 9.5716552,14.753744 h 2.0020758 c 0.13986,0 0.25122,0.114772 0.25122,0.253784 v 2.332764 c 0,0.134736 -0.103544,0.246149 -0.238403,0.25122 l -3.9041746,0.174317 c -0.11186,0.005 -0.2077992,-0.08159 -0.2127692,-0.192261 -0.0028,-0.04355 0.01148,-0.08518 0.035896,-0.120484 l 1.6483152,-2.473755 c 0.09324,-0.140596 0.2489088,-0.225585 0.4178468,-0.225585 z M 8.797486,20.408773 c -1.115128,0 -2.0200208,0.902328 -2.0200208,2.017457 0,1.115128 0.9048928,2.02002 2.0200208,2.02002 1.115128,0 2.017456,-0.904892 2.017456,-2.02002 0,-1.115129 -0.902328,-2.017457 -2.017456,-2.017457 z m 14.640014,0 c -1.115128,0 -2.02002,0.902328 -2.02002,2.017457 0,1.115128 0.904892,2.02002 2.02002,2.02002 1.115016,0 2.017456,-0.904892 2.017456,-2.02002 0,-1.115129 -0.90244,-2.017457 -2.017456,-2.017457 z"
     id="path5733" />
</svg>
