<?xml version="1.0" encoding="UTF-8" standalone="no"?>
<svg
   id="svg2"
   viewBox="0 0 30 37.5"
   height="40"
   width="32"
   version="1.1"
   xmlns="http://www.w3.org/2000/svg"
   xmlns:svg="http://www.w3.org/2000/svg"
   xmlns:rdf="http://www.w3.org/1999/02/22-rdf-syntax-ns#"
   xmlns:cc="http://creativecommons.org/ns#"
   xmlns:dc="http://purl.org/dc/elements/1.1/">
  <metadata
     id="metadata10">
    <rdf:RDF>
      <cc:Work
         rdf:about="">
        <dc:format>image/svg+xml</dc:format>
        <dc:type
           rdf:resource="http://purl.org/dc/dcmitype/StillImage" />
      </cc:Work>
    </rdf:RDF>
  </metadata>
  <defs
     id="defs8" />
  <rect
     style="visibility:hidden;fill:none;stroke:none"
     id="canvas"
     y="23.5"
     x="0"
     height="14"
     width="14" />
  <g
     id="g617"
     transform="translate(11.504237,30.985169)">
    <g
       id="g5960"
       transform="translate(3.424894,-0.8231901)">
      <path
         id="path1449-7-9-0-2-0-0"
         style="fill:#552200;fill-opacity:1;stroke-width:0;stroke-linejoin:round;paint-order:stroke fill markers;stop-color:#000000"
         d="m 0.07086912,-30.161979 c -8.28426002,0 -15.00000012,6.715737 -15.00000012,15 0,4.142132 1.10324,6.6135682 4.56116,11.1968992 3.4579201,4.58333204 7.8978301,9.027822 10.43884012,11.303101 C 2.6118781,5.0627422 7.0517921,0.61825224 10.509712,-3.9650798 c 3.45792,-4.583331 4.561157,-7.0547672 4.561157,-11.1968992 0,-8.284263 -6.7157369,-15 -14.99999988,-15 z" />
      <circle
         style="fill:#ffffff;fill-opacity:1;stroke:none;stroke-width:0;stroke-linejoin:round;stroke-dasharray:none;paint-order:stroke fill markers;stop-color:#000000"
         id="path1449-5-0-9-2-9"
         cx="0.070580304"
         cy="-15.161978"
         r="12.65625" />
      <path
         style="fill:#552200;fill-opacity:1;stroke-width:1.77489"
         d="m -8.0863219,-20.678135 0.567334,1.70045 -3.4009021,6.23602 h 7.9364701 l -3.400901,-6.23602 0.565783,-1.70045 h -0.565783 l -0.567334,1.133117 -0.567333,-1.133117 z m 1.134667,3.968235 1.700451,3.400901 h -3.400902 z"
         id="camping-5-6" />
      <path
         style="fill:#552200;fill-opacity:1;stroke-width:1.77488"
         d="m -2.6947599,-22.420428 0.567334,1.70045 -3.400902,6.236019 h 7.936471 l -3.40090198,-6.236019 0.565784,-1.70045 h -0.565784 l -0.56733302,1.133117 -0.567334,-1.133117 z m 1.134668,3.968234 1.70045002,3.400902 H -3.2605429 Z"
         id="camping-5-6-92" />
      <path
         style="fill:#552200;fill-opacity:1;stroke-width:1.77488"
         d="m 4.6022071,-24.877805 0.567334,1.700452 -3.400902,6.236019 h 7.936471 l -3.400902,-6.236019 0.565784,-1.700452 h -0.565784 l -0.567333,1.133118 -0.567334,-1.133118 z m 1.134668,3.968236 1.700451,3.400901 h -3.400902 z"
         id="camping-5-6-02" />
      <path
         style="fill:#552200;fill-opacity:1;stroke-width:1.77488"
         d="m -1.0637979,-12.426399 0.56733402,1.700451 -3.40090202,6.2360202 h 7.93647 L 0.63820312,-10.725948 1.2039861,-12.426399 H 0.63820312 l -0.567334,1.133118 -0.567333,-1.133118 z m 1.13466702,3.9682362 1.70045098,3.400901 h -3.400902 z"
         id="camping-5-6-3" />
      <path
         style="fill:#552200;fill-opacity:1;stroke-width:1.77488"
         d="m 3.4311631,-16.022688 0.567334,1.700451 -3.40090198,6.2360202 H 8.5340651 l -3.400901,-6.2360202 0.565784,-1.700451 h -0.565784 l -0.567334,1.133118 -0.567333,-1.133118 z m 1.134667,3.968236 1.700451,3.4009022 h -3.400901 z"
         id="camping-5-6-7" />
    </g>
  </g>
</svg>
