<?xml version="1.0" encoding="UTF-8" standalone="no"?>
<svg
   id="svg2"
   viewBox="0 0 33.75 42.1875"
   height="45"
   width="36"
   version="1.1"
   xmlns="http://www.w3.org/2000/svg"
   xmlns:svg="http://www.w3.org/2000/svg"
   xmlns:rdf="http://www.w3.org/1999/02/22-rdf-syntax-ns#"
   xmlns:cc="http://creativecommons.org/ns#"
   xmlns:dc="http://purl.org/dc/elements/1.1/">
  <metadata
     id="metadata10">
    <rdf:RDF>
      <cc:Work
         rdf:about="">
        <dc:format>image/svg+xml</dc:format>
        <dc:type
           rdf:resource="http://purl.org/dc/dcmitype/StillImage" />
      </cc:Work>
    </rdf:RDF>
  </metadata>
  <defs
     id="defs8" />
  <path
     style="color:#000000;fill:#ff0000;stroke-width:1;-inkscape-stroke:none"
     d="M 6.5625,0 C 2.959311,0 0,2.9642515 0,6.5734561 V 27.23289 c 0,3.609204 2.959311,6.573456 6.5625,6.573456 h 2.46875 l 7.84375,8.381156 7.84375,-8.381156 h 2.46875 c 3.603189,0 6.5625,-2.964252 6.5625,-6.573456 V 6.5734561 C 33.75,2.9642516 30.790689,0 27.1875,0 Z"
     id="rect5129-3" />
  <rect
     width="14"
     height="14"
     x="1.875"
     y="25.375"
     id="canvas"
     style="visibility:hidden;fill:none;stroke:none" />
  <rect
     width="14"
     height="14"
     x="1.875"
     y="25.375"
     id="canvas-3"
     style="visibility:hidden;fill:none;stroke:none" />
  <rect
     width="14"
     height="14"
     x="1.875"
     y="25.375"
     id="canvas-5"
     style="visibility:hidden;fill:none;stroke:none" />
  <rect
     width="14"
     height="14"
     x="1.875"
     y="25.375"
     id="canvas-6"
     style="visibility:hidden;fill:none;stroke:none" />
  <path
     style="fill:#68228b;fill-opacity:1;stroke:none;stroke-width:0;stroke-linecap:butt;stroke-linejoin:miter;stroke-miterlimit:4;stroke-dasharray:none;stroke-dashoffset:0;stroke-opacity:1"
     d="M 6.5625,1.875 C 3.965625,1.875 1.875,3.965625 1.875,6.5625 v 20.625 c 0,2.596875 2.090625,4.6875 4.6875,4.6875 h 3.28125 l 7.03125,7.5 7.03125,-7.5 h 3.28125 c 2.596875,0 4.6875,-2.090625 4.6875,-4.6875 V 6.5625 c 0,-2.596875 -2.090625,-4.6875 -4.6875,-4.6875 z"
     id="rect5129" />
  <path
     d="M 15.374193,17.052951 9.8234458,6.8765762 10.748571,4.1012027 H 9.8234458 L 8.8983215,5.9514513 7.9731957,4.1012027 H 7.0480705 L 7.9731957,6.8765762 2.4224473,17.052951 Z m -6.4758724,-6.475875 2.7753744,5.55075 H 6.1229462 Z"
     id="camping-5"
     style="fill:#cc9ae6;fill-opacity:1;stroke-width:2.09659" />
  <path
     style="fill:#cc9ae6;fill-opacity:1;stroke-width:2.0966"
     d="m 27.29187,10.79773 0.924682,2.775879 -5.551757,10.177001 H 31.875 V 22.824097 H 26.365357 L 29.141235,17.27417 31.875,22.739868 v -5.85022 l -1.809083,-3.316039 0.926515,-2.775879 h -0.926515 l -0.924682,1.851196 -0.924683,-1.851196 z"
     id="camping-5-6" />
  <path
     style="fill:#ffffff;fill-opacity:1;stroke:none;stroke-width:0.234375;stroke-linecap:round;stroke-linejoin:round;stroke-miterlimit:4;stroke-dasharray:none;stroke-dashoffset:0;stroke-opacity:1"
     d="m 13.245635,5.2581363 c -0.97356,0 -1.764899,0.7887961 -1.764899,1.7623557 0,0.9735508 0.791347,1.7623557 1.764899,1.7623557 0.97355,0 1.762354,-0.7888049 1.762354,-1.7623557 0,-0.9735596 -0.788795,-1.7623557 -1.762354,-1.7623557 z m 0,3.6900119 c -1.666304,-0.043855 -3.190728,0.3924497 -3.34161,1.2511968 l -1.2944289,7.392739 c -0.1388029,1.065714 1.1738826,1.160413 1.3071439,0.218705 l 0.87482,-5.009872 0.322972,4.252034 -0.745123,10.627539 c -0.116803,1.207422 1.619378,1.433394 1.825932,0.155129 l 1.050294,-9.620479 1.052835,9.620479 c 0.206546,1.278265 1.93765,1.052293 1.820848,-0.155129 l -0.745125,-10.627539 0.325515,-4.252034 0.87482,5.009872 c 0.133262,0.941708 1.443401,0.847009 1.304601,-0.218705 L 16.587245,10.199345 C 16.436361,9.3405979 14.911929,8.9043381 13.245635,8.9481482 Z"
     id="path4713-6" />
  <path
     style="fill:#000000;fill-opacity:0.941176;stroke:none;stroke-width:1.40625;stroke-linecap:round;stroke-linejoin:round;stroke-miterlimit:4;stroke-dasharray:none;stroke-dashoffset:0;stroke-opacity:1"
     d="m 13.244371,16.090576 c -0.180777,0.0014 -0.326897,0.150661 -0.324096,0.331421 v 0.97229 c -0.41723,0.09172 -0.781584,0.133678 -1.138916,-0.0037 -0.424143,-0.205407 -0.6864,0.470968 -0.234375,0.604248 0.524338,0.200937 1.085468,0.219259 1.697387,0.04761 0.611919,0.17165 1.173049,0.15333 1.697388,-0.04761 0.452025,-0.13328 0.189768,-0.809655 -0.234375,-0.604248 -0.357333,0.137378 -0.721687,0.09538 -1.138916,0.0037 v -0.97229 c 0.0028,-0.18076 -0.14332,-0.330021 -0.324097,-0.331421 z"
     id="rect5730" />
  <path
     style="fill:#ffffff;fill-opacity:1;fill-rule:evenodd;stroke:none;stroke-width:0.9375px;stroke-linecap:butt;stroke-linejoin:miter;stroke-opacity:1"
     d="m 22.784735,5.2581366 c -0.97356,0 -1.762356,0.7887961 -1.762356,1.7623557 0,0.9735598 0.788796,1.7623558 1.762356,1.7623558 0.97356,0 1.764899,-0.788796 1.764899,-1.7623558 0,-0.9735596 -0.791339,-1.7623557 -1.764899,-1.7623557 z m 0,3.690012 c -1.378814,-0.00353 -2.51358,0.8556555 -2.858424,2.1539894 l -1.775072,6.489947 c -0.138803,1.065724 1.438372,1.160413 1.571625,0.218705 l 1.271541,-5.009873 -0.317885,2.665151 c 0,0 -0.917952,2.014797 -0.958742,3.761219 l 0.190731,8.453204 c -0.116803,1.207423 1.619388,1.433395 1.825932,0.155129 l 1.050292,-9.620479 1.052837,9.620479 c 0.206546,1.278266 1.942745,1.052294 1.825934,-0.155129 l 0.188188,-8.453204 c -0.04076,-1.746422 -0.958743,-3.761219 -0.958743,-3.761219 l -0.317885,-2.665151 1.274085,5.009873 c 0.133261,0.941708 1.710425,0.847019 1.571623,-0.218705 L 25.645701,11.102139 C 25.30085,9.8038041 24.16354,8.9441153 22.784735,8.9481486 Z"
     id="path4531-6-7-6-7-9" />
  <path
     style="fill:#000000;fill-opacity:1;stroke:none;stroke-width:1.40625;stroke-linecap:round;stroke-linejoin:round;stroke-miterlimit:4;stroke-dasharray:none;stroke-dashoffset:0;stroke-opacity:1"
     d="m 22.781982,15.783692 c -0.0031,0.0012 -0.0061,0.0024 -0.0092,0.0037 -0.17433,0.0096 -0.310049,0.155012 -0.307617,0.32959 l 0.0073,1.118775 c -0.343073,0.17727 -0.635567,0.286696 -0.807495,0.256347 -0.2057,-0.03628 -0.396713,-0.179559 -0.6427,-0.479737 -0.271982,-0.360046 -0.802599,0.0741 -0.50354,0.411988 0.288072,0.351529 0.609248,0.633548 1.034545,0.708618 0.374608,0.06613 0.789769,-0.09676 1.243287,-0.342408 0.453424,0.245568 0.870571,0.408528 1.245117,0.342408 0.425296,-0.07503 0.748278,-0.357089 1.036377,-0.708618 0.04015,-0.0455 0.06679,-0.101305 0.0769,-0.161133 V 17.14599 c -0.05325,-0.277799 -0.411054,-0.360196 -0.580444,-0.133667 -0.245988,0.300178 -0.437,0.443437 -0.6427,0.479737 -0.171929,0.03038 -0.462581,-0.07907 -0.805664,-0.256347 l 0.0073,-1.118775 c 0.0046,-0.188105 -0.150741,-0.340936 -0.338745,-0.333252 -0.0043,-8.4e-5 -0.0085,-8.4e-5 -0.01281,0 z"
     id="rect6401" />
  <path
     style="font-style:normal;font-variant:normal;font-weight:900;font-stretch:normal;font-size:11.711px;line-height:125%;font-family:'Noto Sans';-inkscape-font-specification:'Noto Sans, Heavy';font-variant-ligatures:normal;font-variant-caps:normal;font-variant-numeric:normal;font-feature-settings:normal;text-align:end;letter-spacing:0px;word-spacing:0px;writing-mode:lr-tb;text-anchor:end;fill:#ff0000;fill-opacity:1;stroke:none;stroke-width:0.9375px;stroke-linecap:butt;stroke-linejoin:miter;stroke-opacity:1"
     d="m 24.84375,21.637502 0.611113,11.286458 h 3.934025 L 30,21.637502 Z m 2.56667,13.169442 c -0.683996,0 -1.278834,0.169817 -1.783682,0.511808 -0.488565,0.341994 -0.733336,0.936833 -0.733336,1.783679 0,0.797989 0.244771,1.375746 0.733336,1.73403 0.504848,0.35828 1.099687,0.538539 1.783682,0.538539 0.667704,0 1.245458,-0.180263 1.734024,-0.538539 0.488565,-0.358284 0.733332,-0.936041 0.733332,-1.73403 0,-0.846846 -0.244767,-1.441685 -0.733332,-1.783679 -0.488566,-0.341996 -1.06632,-0.511808 -1.734024,-0.511808 z"
     id="path826-8" />
</svg>
