<?xml version="1.0" encoding="UTF-8" standalone="no"?>
<svg
   id="svg2"
   viewBox="0 0 33.75 42.1875"
   height="45"
   width="36"
   version="1.1"
   xmlns="http://www.w3.org/2000/svg"
   xmlns:svg="http://www.w3.org/2000/svg"
   xmlns:rdf="http://www.w3.org/1999/02/22-rdf-syntax-ns#"
   xmlns:cc="http://creativecommons.org/ns#"
   xmlns:dc="http://purl.org/dc/elements/1.1/">
  <metadata
     id="metadata10">
    <rdf:RDF>
      <cc:Work
         rdf:about="">
        <dc:format>image/svg+xml</dc:format>
        <dc:type
           rdf:resource="http://purl.org/dc/dcmitype/StillImage" />
      </cc:Work>
    </rdf:RDF>
  </metadata>
  <defs
     id="defs8" />
  <path
     style="color:#000000;fill:#ff0000;stroke-width:1;-inkscape-stroke:none"
     d="M 6.5625,0 C 2.959311,0 0,2.9642515 0,6.5734561 V 27.23289 c 0,3.609204 2.959311,6.573456 6.5625,6.573456 h 2.46875 l 7.84375,8.381156 7.84375,-8.381156 h 2.46875 c 3.603189,0 6.5625,-2.964252 6.5625,-6.573456 V 6.5734561 C 33.75,2.9642516 30.790689,0 27.1875,0 Z"
     id="rect5129-3" />
  <rect
     width="14"
     height="14"
     x="1.875"
     y="25.375"
     id="canvas"
     style="visibility:hidden;fill:none;stroke:none" />
  <path
     style="fill:#666666;fill-opacity:1;stroke:none;stroke-width:0;stroke-linecap:butt;stroke-linejoin:miter;stroke-miterlimit:4;stroke-dasharray:none;stroke-dashoffset:0;stroke-opacity:1"
     d="M 6.5625,1.875 C 3.965625,1.875 1.875,3.965625 1.875,6.5625 v 20.625 c 0,2.596875 2.090625,4.6875 4.6875,4.6875 h 3.28125 l 7.03125,7.5 7.03125,-7.5 h 3.28125 c 2.596875,0 4.6875,-2.090625 4.6875,-4.6875 V 6.5625 c 0,-2.596875 -2.090625,-4.6875 -4.6875,-4.6875 z"
     id="rect5129" />
  <path
     style="fill:#ffffff;fill-opacity:1;fill-rule:nonzero;stroke:none;stroke-width:1.17188"
     d="m 7.0081781,9.303793 c -0.1503459,0 -0.2960888,0.04288 -0.4204088,0.125606 L 3.8961181,11.172563 C 3.802178,11.267718 3.75,11.39782 3.75,11.53145 v 0.589599 c 0,0.134427 0.052178,0.264528 0.1461181,0.358888 l 0.6408696,0.638305 c 0.141792,0.141791 0.3350214,0.223024 0.5357658,0.223024 h 6.7521975 v 0.505003 l -2.5147696,0.448609 c -0.1984654,0.03529 -0.3746849,0.14866 -0.4896248,0.315307 l -1.8610845,2.707032 c -0.11893,0.172814 -0.2879086,0.304144 -0.4844965,0.376833 L 4.080687,18.570757 C 3.8817904,18.644143 3.75,18.832515 3.75,19.045 v 2.878786 c 0,0.27851 0.2264878,0.502443 0.5050052,0.502443 h 2.0200196 c 0,-1.393639 1.1289151,-2.522463 2.5224611,-2.522463 1.3948341,0 2.5250231,1.128824 2.5250231,2.522463 h 9.589965 c 0,-1.393639 1.131382,-2.522463 2.525025,-2.522463 1.393533,0 2.522462,1.128824 2.522462,2.522463 h 1.012574 L 30,21.418781 V 10.818804 c 0,-0.279603 -0.226502,-0.507569 -0.505003,-0.507569 H 22.932493 L 20.912474,9.303789 Z m 1.0330826,1.007445 h 3.5324703 c 0.13986,0 0.25122,0.113971 0.25122,0.253785 v 1.515015 c 0,0.139803 -0.111412,0.25122 -0.25122,0.25122 H 8.0412607 c -0.13986,0 -0.253785,-0.111428 -0.253785,-0.25122 v -1.515015 c 0,-0.139805 0.1139033,-0.253785 0.253785,-0.253785 z m 7.5699453,3.03003 h 4.040037 c 0.140995,0 0.251222,0.111415 0.251222,0.25122 V 21.165 c 0,0.139803 -0.11022,0.253782 -0.251222,0.253782 h -4.040037 c -0.138601,0 -0.251221,-0.113971 -0.251221,-0.253782 v -7.572512 c 0,-0.139804 0.112541,-0.25122 0.251221,-0.25122 z m 6.565063,0 h 3.532469 c 0.138742,0 0.251223,0.111415 0.251223,0.25122 v 2.525025 c 0,0.139805 -0.112528,0.253783 -0.251223,0.253783 h -3.532469 c -0.139861,0 -0.253784,-0.113983 -0.253784,-0.253783 v -2.525025 c 0,-0.139804 0.114029,-0.25122 0.253784,-0.25122 z M 9.5716552,14.753744 h 2.0020758 c 0.13986,0 0.25122,0.114767 0.25122,0.253783 v 2.332765 c 0,0.134735 -0.103544,0.246148 -0.238403,0.25122 l -3.9041747,0.174317 c -0.11186,0.005 -0.2077991,-0.08159 -0.2127692,-0.192262 -0.0028,-0.04355 0.011479,-0.08518 0.035897,-0.120482 L 9.1538158,14.97933 c 0.093241,-0.140596 0.2489089,-0.225585 0.4178469,-0.225585 z m -0.7741693,5.655028 c -1.115128,0 -2.0200207,0.90233 -2.0200207,2.017458 0,1.115129 0.9048927,2.02002 2.0200207,2.02002 1.1151281,0 2.0174561,-0.904891 2.0174561,-2.02002 0,-1.115128 -0.902328,-2.017458 -2.0174561,-2.017458 z m 14.6400131,0 c -1.115127,0 -2.02002,0.90233 -2.02002,2.017458 0,1.115129 0.904893,2.02002 2.02002,2.02002 1.115017,0 2.017458,-0.904891 2.017458,-2.02002 0,-1.115128 -0.902441,-2.017458 -2.017458,-2.017458 z"
     id="path5733" />
</svg>
