<?xml version="1.0" encoding="UTF-8" standalone="no"?>
<svg
   id="svg2"
   viewBox="0 0 33.75 42.1875"
   height="45"
   width="36"
   version="1.1"
   xmlns="http://www.w3.org/2000/svg"
   xmlns:svg="http://www.w3.org/2000/svg"
   xmlns:rdf="http://www.w3.org/1999/02/22-rdf-syntax-ns#"
   xmlns:cc="http://creativecommons.org/ns#"
   xmlns:dc="http://purl.org/dc/elements/1.1/">
  <metadata
     id="metadata10">
    <rdf:RDF>
      <cc:Work
         rdf:about="">
        <dc:format>image/svg+xml</dc:format>
        <dc:type
           rdf:resource="http://purl.org/dc/dcmitype/StillImage" />
      </cc:Work>
    </rdf:RDF>
  </metadata>
  <defs
     id="defs8" />
  <path
     style="color:#000000;fill:#ff0000;stroke-width:1;-inkscape-stroke:none"
     d="M 6.5625,0 C 2.959311,0 0,2.9642515 0,6.5734561 V 27.23289 c 0,3.609204 2.959311,6.573456 6.5625,6.573456 h 2.46875 l 7.84375,8.381156 7.84375,-8.381156 h 2.46875 c 3.603189,0 6.5625,-2.964252 6.5625,-6.573456 V 6.5734561 C 33.75,2.9642516 30.790689,0 27.1875,0 Z"
     id="rect5129-3" />
  <rect
     style="visibility:hidden;fill:none;stroke:none"
     id="canvas"
     y="25.375"
     x="1.875"
     height="14"
     width="14" />
  <rect
     style="visibility:hidden;fill:none;stroke:none"
     id="canvas-6"
     y="25.375"
     x="1.875"
     height="14"
     width="14" />
  <rect
     width="14"
     height="14"
     x="1.875"
     y="25.375"
     id="canvas-3"
     style="visibility:hidden;fill:none;stroke:none" />
  <path
     style="fill:#666666;fill-opacity:1;stroke:none;stroke-width:0;stroke-linecap:butt;stroke-linejoin:miter;stroke-miterlimit:4;stroke-dasharray:none;stroke-dashoffset:0;stroke-opacity:1"
     d="M 6.5625,1.875 C 3.965625,1.875 1.875,3.965625 1.875,6.5625 v 20.625 c 0,2.596875 2.090625,4.6875 4.6875,4.6875 h 3.28125 l 7.03125,7.5 7.03125,-7.5 h 3.28125 c 2.596875,0 4.6875,-2.090625 4.6875,-4.6875 V 6.5625 c 0,-2.596875 -2.090625,-4.6875 -4.6875,-4.6875 z"
     id="rect5129" />
  <path
     style="fill:#ffffff;stroke-width:2.0966"
     d="m 6.7822266,8.5107422 0.670166,2.0086668 -4.017334,7.366333 H 12.810058 L 8.7927246,10.519409 9.4610596,8.5107422 h -0.668335 l -0.670166,1.338501 -0.670166,-1.338501 z m 1.340332,4.6874998 2.0086674,4.017334 H 6.1138916 Z"
     id="camping-5-6" />
  <path
     style="fill:#ffffff;stroke-width:2.09659"
     d="m 13.15104,6.4526486 0.670166,2.008666 -4.0173335,7.3663334 h 9.3749995 l -4.017334,-7.3663334 0.668335,-2.008666 h -0.668335 l -0.670166,1.338501 -0.670166,-1.338501 z m 1.340332,4.6874994 2.008667,4.017334 h -4.017334 z"
     id="camping-5-6-92" />
  <path
     style="fill:#ffffff;stroke-width:2.09659"
     d="m 21.770623,3.5498595 0.670166,2.0086675 -4.017334,7.366333 h 9.375 L 23.781121,5.558527 24.449456,3.5498595 H 23.781121 L 23.110955,4.888361 22.440789,3.5498595 Z m 1.340332,4.6875005 2.008667,4.017333 h -4.017334 z"
     id="camping-5-6-02" />
  <path
     style="fill:#ffffff;stroke-width:2.09659"
     d="m 13.849275,20.572331 0.670166,2.008667 -4.017334,7.366333 h 9.374999 l -4.017333,-7.366333 0.668335,-2.008667 h -0.668335 l -0.670166,1.338501 -0.670166,-1.338501 z m 1.340332,4.6875 2.008667,4.017334 H 13.18094 Z"
     id="camping-5-6-3" />
  <path
     style="fill:#ffffff;stroke-width:2.09659"
     d="m 19.158263,16.611659 0.670166,2.008667 -4.017334,7.366333 h 9.374999 l -4.017333,-7.366333 0.668335,-2.008667 h -0.668335 l -0.670166,1.338501 -0.670166,-1.338501 z m 1.340332,4.6875 2.008667,4.017334 h -4.017334 z"
     id="camping-5-6-7" />
</svg>
