<?xml version="1.0" encoding="UTF-8" standalone="no"?>
<svg
   id="svg2"
   viewBox="0 0 33.75 42.1875"
   height="45"
   width="36"
   version="1.1"
   xmlns="http://www.w3.org/2000/svg"
   xmlns:svg="http://www.w3.org/2000/svg"
   xmlns:rdf="http://www.w3.org/1999/02/22-rdf-syntax-ns#"
   xmlns:cc="http://creativecommons.org/ns#"
   xmlns:dc="http://purl.org/dc/elements/1.1/">
  <metadata
     id="metadata10">
    <rdf:RDF>
      <cc:Work
         rdf:about="">
        <dc:format>image/svg+xml</dc:format>
        <dc:type
           rdf:resource="http://purl.org/dc/dcmitype/StillImage" />
      </cc:Work>
    </rdf:RDF>
  </metadata>
  <defs
     id="defs8" />
  <path
     style="color:#000000;fill:#ff0000;stroke-width:1;-inkscape-stroke:none"
     d="M 6.5625,0 C 2.959311,0 0,2.9642515 0,6.5734561 V 27.23289 c 0,3.609204 2.959311,6.573456 6.5625,6.573456 h 2.46875 l 7.84375,8.381156 7.84375,-8.381156 h 2.46875 c 3.603189,0 6.5625,-2.964252 6.5625,-6.573456 V 6.5734561 C 33.75,2.9642516 30.790689,0 27.1875,0 Z"
     id="rect5129-3" />
  <rect
     style="visibility:hidden;fill:none;stroke:none"
     id="canvas"
     y="25.375"
     x="1.875"
     height="14"
     width="14" />
  <rect
     style="visibility:hidden;fill:none;stroke:none"
     id="canvas-6"
     y="25.375"
     x="1.875"
     height="14"
     width="14" />
  <rect
     style="visibility:hidden;fill:none;stroke:none"
     id="canvas-3"
     y="25.375"
     x="1.875"
     height="14"
     width="14" />
  <path
     id="rect5129"
     d="M 6.5625,1.875 C 3.965625,1.875 1.875,3.965625 1.875,6.5625 v 20.625 c 0,2.596875 2.090625,4.6875 4.6875,4.6875 h 3.28125 l 7.03125,7.5 7.03125,-7.5 h 3.28125 c 2.596875,0 4.6875,-2.090625 4.6875,-4.6875 V 6.5625 c 0,-2.596875 -2.090625,-4.6875 -4.6875,-4.6875 z"
     style="fill:#000080;fill-opacity:1;stroke:none;stroke-width:0;stroke-linecap:butt;stroke-linejoin:miter;stroke-miterlimit:4;stroke-dasharray:none;stroke-dashoffset:0;stroke-opacity:1" />
  <path
     style="fill:#8181ff;fill-opacity:1;stroke-width:2.09659"
     id="camping-5"
     d="M 30.9375,20.344804 24.508929,8.559089 25.580358,5.344804 H 24.508929 L 23.437501,7.48766 22.366071,5.344804 H 21.294642 L 22.366071,8.559089 15.9375,20.344804 Z m -7.5,-7.500001 3.214285,6.428572 h -6.428571 z" />
  <g
     style="stroke-width:0.999939"
     transform="matrix(0.99109137,0,0,1.0091113,1.8833518,-0.9220999)"
     id="g4554">
    <path
       d="m 3.9104126,14.197934 c -1.4864567,0 -2.97291261,1.486455 -2.97291261,2.97291 v 5.94583 c 0,1.486457 1.48645591,2.972914 2.97291261,2.972914 h 1.5793606 c 0.3465164,-1.693386 1.8274158,-2.972914 3.6232378,-2.972914 1.795824,0 3.276723,1.279528 3.623238,2.972914 h 9.011643 c 0,0 0,-1.486457 -1.486458,-1.486457 h -2.229685 v -7.432287 c 0,-1.427984 -1.522631,-2.97291 -2.97291,-2.97291 z m 1.2541984,2.97291 c 0.1393543,-0.02318 0.2322598,0 0.2322598,0 h 2.9729134 c 0,0 1.4864567,0 1.4864567,1.48646 0,1.486457 -1.4864567,1.486457 -1.4864567,1.486457 H 5.3968708 c 0,0 -1.4864566,0 -1.4864566,-1.486457 0,-1.114844 0.8361322,-1.416779 1.2541968,-1.48646 z m 7.664542,0 h 0.743226 c 0,0 1.48646,0 1.48646,1.48646 0,1.486457 -1.486458,1.486457 -1.486458,1.486457 h -0.743228 c 0,0 -1.486457,0 -1.486457,-1.486457 0,-1.48646 1.486457,-1.48646 1.486457,-1.48646 z m -3.716142,7.432287 c -1.2314204,0 -2.2296851,0.998261 -2.2296851,2.229685 0,1.231419 0.9982647,2.229683 2.2296851,2.229683 1.23142,0 2.229685,-0.998264 2.229685,-2.229683 0,-1.231424 -0.998265,-2.229685 -2.229685,-2.229685 z"
       id="caravan"
       style="fill:#ffffff;fill-opacity:1;stroke:none;stroke-width:1.29967" />
  </g>
  <path
     style="font-style:normal;font-variant:normal;font-weight:900;font-stretch:normal;font-size:11.711px;line-height:125%;font-family:'Noto Sans';-inkscape-font-specification:'Noto Sans, Heavy';font-variant-ligatures:normal;font-variant-caps:normal;font-variant-numeric:normal;font-feature-settings:normal;text-align:end;letter-spacing:0px;word-spacing:0px;writing-mode:lr-tb;text-anchor:end;fill:#ff0000;fill-opacity:1;stroke:none;stroke-width:0.9375px;stroke-linecap:butt;stroke-linejoin:miter;stroke-opacity:1"
     d="m 24.84375,21.637502 0.611113,11.286458 h 3.934025 L 30,21.637502 Z m 2.56667,13.169442 c -0.683996,0 -1.278834,0.169817 -1.783682,0.511808 -0.488565,0.341994 -0.733336,0.936833 -0.733336,1.783679 0,0.797989 0.244771,1.375746 0.733336,1.73403 0.504848,0.35828 1.099687,0.538539 1.783682,0.538539 0.667704,0 1.245458,-0.180263 1.734024,-0.538539 0.488565,-0.358284 0.733332,-0.936041 0.733332,-1.73403 0,-0.846846 -0.244767,-1.441685 -0.733332,-1.783679 -0.488566,-0.341996 -1.06632,-0.511808 -1.734024,-0.511808 z"
     id="path826-8" />
</svg>
