<?xml version="1.0" encoding="UTF-8" standalone="no"?>
<svg
   xmlns:dc="http://purl.org/dc/elements/1.1/"
   xmlns:cc="http://creativecommons.org/ns#"
   xmlns:rdf="http://www.w3.org/1999/02/22-rdf-syntax-ns#"
   xmlns:svg="http://www.w3.org/2000/svg"
   xmlns="http://www.w3.org/2000/svg"
   version="1.1"
   width="32"
   height="40"
   viewBox="0 0 30 37.5"
   id="svg2">
  <metadata
     id="metadata10">
    <rdf:RDF>
      <cc:Work
         rdf:about="">
        <dc:format>image/svg+xml</dc:format>
        <dc:type
           rdf:resource="http://purl.org/dc/dcmitype/StillImage" />
        <dc:title></dc:title>
      </cc:Work>
    </rdf:RDF>
  </metadata>
  <defs
     id="defs8" />
  <rect
     width="14"
     height="14"
     x="0"
     y="23.5"
     id="canvas"
     style="visibility:hidden;fill:none;stroke:none" />
  <path
     style="font-style:normal;font-variant:normal;font-weight:900;font-stretch:normal;font-size:11.71098423px;line-height:125%;font-family:'Noto Sans';-inkscape-font-specification:'Noto Sans, Heavy';font-variant-ligatures:normal;font-variant-caps:normal;font-variant-numeric:normal;font-feature-settings:normal;text-align:end;letter-spacing:0px;word-spacing:0px;writing-mode:lr-tb;text-anchor:end;fill:#ff0000;fill-opacity:1;stroke:none;stroke-width:0.9375px;stroke-linecap:butt;stroke-linejoin:miter;stroke-opacity:1"
     d="m 22.96875,19.762502 0.611113,11.286458 h 3.934025 L 28.125,19.762502 Z m 2.56667,13.169442 c -0.683996,0 -1.278834,0.169817 -1.783682,0.511808 -0.488565,0.341994 -0.733336,0.936833 -0.733336,1.783679 0,0.797989 0.244771,1.375746 0.733336,1.73403 0.504848,0.35828 1.099687,0.538539 1.783682,0.538539 0.667704,0 1.245458,-0.180263 1.734024,-0.538539 0.488565,-0.358284 0.733332,-0.936041 0.733332,-1.73403 0,-0.846846 -0.244767,-1.441685 -0.733332,-1.783679 -0.488566,-0.341996 -1.06632,-0.511808 -1.734024,-0.511808 z"
     id="path826-8" />
</svg>
